<svg xmlns="http://www.w3.org/2000/svg" xmlns:xlink="http://www.w3.org/1999/xlink" width="1000" zoomAndPan="magnify" viewBox="0 0 750 675.000002" height="900" preserveAspectRatio="xMidYMid meet" version="1.0"><defs><clipPath id="b49d3ca495"><path d="M 169.023438 35.277344 L 403.425781 35.277344 L 403.425781 673.632812 L 169.023438 673.632812 Z M 169.023438 35.277344 " clip-rule="nonzero"/></clipPath><clipPath id="6e468c32ed"><path d="M 171 54 L 403.425781 54 L 403.425781 648 L 171 648 Z M 171 54 " clip-rule="nonzero"/></clipPath></defs><path fill="#fbc12d" d="M 188.824219 36.625 C 188.824219 36.625 181.128906 33.609375 184.449219 24.71875 C 187.769531 15.824219 203.757812 13.5625 196.515625 0.296875 C 218.394531 18.84375 204.359375 37.226562 204.359375 37.226562 L 188.824219 36.625 " fill-opacity="1" fill-rule="nonzero"/><path fill="#64b287" d="M 278.484375 177.558594 L 274.886719 149.359375 L 271.84375 177.558594 Z M 293.460938 184.609375 L 311.441406 161.105469 L 288.339844 180.738281 Z M 299.539062 194.832031 L 325.957031 182.808594 L 295.800781 188.0625 Z M 300.089844 204.507812 L 320.011719 201.882812 L 300.921875 200.78125 Z M 262.019531 180.738281 L 238.921875 161.105469 L 256.90625 184.609375 Z M 254.558594 188.0625 L 224.40625 182.808594 L 250.824219 194.832031 Z M 250.273438 204.507812 L 230.355469 201.882812 L 249.441406 200.78125 Z M 250.273438 204.507812 " fill-opacity="1" fill-rule="nonzero"/><g clip-path="url(#b49d3ca495)"><path fill="#85d4a6" d="M 187.363281 35.761719 L 205.140625 35.761719 L 204.441406 63.976562 L 211.894531 71.808594 C 211.894531 71.808594 209.804688 79.820312 206.667969 82.082031 C 205.101562 86.4375 208.0625 88.175781 208.0625 88.175781 C 208.0625 88.175781 211.546875 89.917969 212.070312 97.40625 C 212.589844 104.894531 212.070312 112.207031 211.722656 114.652344 C 211.371094 117.089844 211.722656 135.71875 213.640625 140.070312 C 215.554688 144.425781 223.75 190.050781 223.75 190.050781 C 223.75 190.050781 228.976562 205.199219 232.636719 209.207031 C 236.296875 213.214844 238.5625 218.957031 234.902344 225.050781 C 231.242188 231.144531 236.472656 228.882812 239.429688 230.96875 C 242.394531 233.0625 246.753906 241.59375 246.753906 241.59375 C 246.753906 241.59375 249.367188 226.621094 248.320312 220.351562 C 246.054688 218.433594 248.492188 215.46875 248.492188 215.46875 C 248.492188 215.46875 249.886719 211.292969 249.367188 206.417969 C 248.84375 201.542969 246.753906 203.632812 248.492188 197.714844 C 250.238281 191.789062 256.855469 178.382812 274.289062 177.339844 C 291.714844 176.292969 301.472656 193.007812 301.824219 201.371094 C 302.175781 209.726562 300.777344 213.214844 303.21875 216.34375 C 305.65625 219.476562 302.347656 222.613281 302.347656 222.613281 C 302.347656 222.613281 304.089844 265.277344 311.582031 272.246094 C 319.074219 279.207031 334.0625 283.390625 335.632812 313.339844 C 345.742188 326.050781 353.066406 332.671875 353.066406 332.671875 L 366.65625 310.203125 L 403.429688 330.058594 L 395.234375 346.078125 C 395.234375 346.078125 399.765625 351.476562 397.675781 358.269531 C 395.585938 365.058594 385.824219 378.988281 385.824219 378.988281 C 385.824219 378.988281 381.117188 384.90625 372.230469 384.90625 C 371.1875 440.113281 350.445312 430.363281 350.445312 430.363281 C 350.445312 430.363281 359.683594 503.84375 359.683594 512.550781 C 355.308594 514.105469 345.742188 517.082031 345.742188 517.082031 C 345.742188 517.082031 345.914062 645.421875 354.804688 647.863281 C 363.867188 647.863281 369.964844 647.863281 369.964844 647.863281 L 369.964844 663.707031 L 381.46875 673.632812 L 169.023438 673.632812 C 169.023438 673.632812 181.394531 667.015625 181.394531 664.75 C 181.394531 662.488281 181.394531 647.6875 181.394531 647.6875 L 198.824219 647.6875 C 198.824219 647.6875 213.640625 636.714844 218.519531 614.425781 C 213.464844 616.339844 209.632812 619.125 209.632812 619.125 C 209.632812 619.125 221.425781 544.152344 213.964844 485.472656 C 211.480469 476.777344 205.882812 446.65625 210.234375 429.578125 C 214.585938 412.503906 213.964844 394.183594 208.375 383.625 C 202.777344 373.070312 208.679688 355.0625 212.410156 349.78125 C 216.140625 344.503906 208.992188 345.121094 213.035156 330.527344 C 214.898438 321.527344 207.125 317.175781 207.125 317.175781 C 207.125 317.175781 203.402344 307.863281 207.4375 300.40625 C 211.480469 292.957031 205.574219 298.238281 205.574219 288.925781 C 205.574219 279.605469 196.875 263.460938 192.210938 263.460938 C 187.550781 263.460938 184.753906 237.382812 196.875 215.957031 C 201.222656 203.535156 199.046875 188.324219 199.046875 188.324219 C 199.046875 188.324219 193.761719 138.019531 193.761719 129.949219 C 193.761719 121.875 190.34375 112.558594 190.34375 112.558594 C 190.34375 112.558594 184.753906 107.285156 184.132812 99.828125 C 183.511719 92.378906 181.335938 86.789062 182.578125 85.851562 C 183.824219 84.925781 187.550781 82.75 187.550781 82.75 C 187.550781 82.75 181.335938 74.058594 181.335938 70.644531 C 181.335938 67.226562 189.394531 64.125 189.394531 64.125 L 187.363281 35.761719 " fill-opacity="1" fill-rule="nonzero"/></g><g clip-path="url(#6e468c32ed)"><path fill="#64b287" d="M 192.308594 119.503906 L 193.550781 131.117188 L 201.160156 131.117188 L 201.988281 119.230469 Z M 254.402344 196.144531 C 254.714844 196.484375 255.058594 196.71875 255.441406 196.867188 C 255.824219 197.015625 256.238281 197.074219 256.691406 197.023438 C 257.15625 196.964844 257.644531 196.839844 258.234375 196.441406 C 258.066406 195.746094 257.785156 195.324219 257.484375 194.976562 C 257.175781 194.636719 256.828125 194.394531 256.441406 194.253906 C 256.0625 194.113281 255.644531 194.050781 255.1875 194.09375 C 254.730469 194.160156 254.242188 194.28125 253.644531 194.679688 C 253.820312 195.375 254.101562 195.789062 254.402344 196.144531 Z M 258.699219 191.164062 C 258.78125 191.675781 258.957031 192.128906 259.210938 192.53125 C 259.464844 192.9375 259.800781 193.285156 260.226562 193.574219 C 260.667969 193.859375 261.171875 194.101562 261.921875 194.1875 C 262.164062 193.472656 262.15625 192.914062 262.085938 192.394531 C 262.003906 191.886719 261.835938 191.433594 261.578125 191.027344 C 261.320312 190.628906 260.980469 190.28125 260.554688 189.992188 C 260.113281 189.707031 259.613281 189.460938 258.863281 189.375 C 258.625 190.089844 258.632812 190.648438 258.699219 191.164062 Z M 263.011719 188.203125 C 263.078125 188.820312 263.246094 189.390625 263.496094 189.917969 C 263.753906 190.449219 264.09375 190.9375 264.535156 191.375 C 264.992188 191.8125 265.511719 192.210938 266.292969 192.484375 C 266.566406 191.703125 266.570312 191.046875 266.515625 190.421875 C 266.449219 189.804688 266.28125 189.230469 266.023438 188.707031 C 265.765625 188.175781 265.421875 187.691406 264.984375 187.253906 C 264.53125 186.820312 264.011719 186.417969 263.234375 186.144531 C 262.960938 186.925781 262.957031 187.574219 263.011719 188.203125 Z M 268.15625 185.546875 C 268.082031 186.242188 268.121094 186.914062 268.238281 187.570312 C 268.367188 188.226562 268.589844 188.863281 268.917969 189.484375 C 269.261719 190.09375 269.679688 190.695312 270.382812 191.242188 C 270.832031 190.472656 270.992188 189.761719 271.078125 189.0625 C 271.15625 188.367188 271.121094 187.695312 270.992188 187.039062 C 270.859375 186.382812 270.640625 185.746094 270.3125 185.125 C 269.960938 184.515625 269.550781 183.914062 268.851562 183.371094 C 268.410156 184.136719 268.25 184.847656 268.15625 185.546875 Z M 294.503906 194.09375 C 294.050781 194.050781 293.636719 194.113281 293.253906 194.253906 C 292.871094 194.394531 292.519531 194.636719 292.207031 194.976562 C 291.90625 195.324219 291.628906 195.746094 291.457031 196.441406 C 292.050781 196.839844 292.542969 196.964844 293 197.023438 C 293.457031 197.074219 293.871094 197.015625 294.253906 196.867188 C 294.636719 196.71875 294.988281 196.484375 295.292969 196.144531 C 295.59375 195.789062 295.871094 195.375 296.046875 194.679688 C 295.453125 194.28125 294.96875 194.160156 294.503906 194.09375 Z M 289.140625 189.992188 C 288.710938 190.28125 288.375 190.628906 288.121094 191.027344 C 287.863281 191.433594 287.691406 191.886719 287.609375 192.394531 C 287.542969 192.914062 287.53125 193.472656 287.773438 194.1875 C 288.519531 194.101562 289.023438 193.859375 289.46875 193.574219 C 289.894531 193.285156 290.226562 192.9375 290.484375 192.53125 C 290.738281 192.128906 290.910156 191.675781 290.992188 191.164062 C 291.058594 190.648438 291.070312 190.089844 290.828125 189.375 C 290.085938 189.460938 289.582031 189.707031 289.140625 189.992188 Z M 284.710938 187.253906 C 284.269531 187.691406 283.925781 188.175781 283.675781 188.707031 C 283.417969 189.230469 283.25 189.804688 283.175781 190.421875 C 283.121094 191.046875 283.128906 191.703125 283.402344 192.484375 C 284.1875 192.210938 284.703125 191.8125 285.164062 191.375 C 285.601562 190.9375 285.941406 190.449219 286.195312 189.917969 C 286.449219 189.390625 286.617188 188.820312 286.6875 188.203125 C 286.738281 187.574219 286.734375 186.925781 286.464844 186.144531 C 285.683594 186.417969 285.167969 186.820312 284.710938 187.253906 Z M 279.382812 185.125 C 279.054688 185.746094 278.835938 186.382812 278.703125 187.039062 C 278.570312 187.695312 278.542969 188.367188 278.617188 189.0625 C 278.707031 189.761719 278.867188 190.472656 279.316406 191.242188 C 280.015625 190.695312 280.433594 190.09375 280.777344 189.484375 C 281.105469 188.863281 281.328125 188.226562 281.453125 187.570312 C 281.582031 186.914062 281.613281 186.242188 281.535156 185.546875 C 281.445312 184.847656 281.289062 184.136719 280.84375 183.371094 C 280.140625 183.914062 279.730469 184.515625 279.382812 185.125 Z M 275.984375 188.890625 C 276.191406 188.105469 276.285156 187.324219 276.285156 186.542969 C 276.292969 185.761719 276.191406 184.972656 275.992188 184.191406 C 275.765625 183.40625 275.476562 182.625 274.886719 181.84375 C 274.300781 182.625 274.011719 183.40625 273.785156 184.191406 C 273.582031 184.972656 273.484375 185.761719 273.484375 186.542969 C 273.492188 187.324219 273.582031 188.105469 273.792969 188.890625 C 274.015625 189.675781 274.304688 190.457031 274.886719 191.242188 C 275.46875 190.457031 275.761719 189.675781 275.984375 188.890625 Z M 382.886719 357.859375 C 383.039062 358.390625 383.261719 358.847656 383.542969 359.265625 C 383.828125 359.675781 384.171875 360.03125 384.582031 360.351562 C 385.011719 360.667969 385.484375 360.925781 386.195312 361.253906 C 386.605469 360.566406 386.589844 359.871094 386.5 359.269531 C 386.398438 358.667969 386.167969 358.132812 385.851562 357.675781 C 385.527344 357.214844 385.121094 356.820312 384.625 356.519531 C 384.109375 356.226562 383.542969 355.980469 382.753906 355.957031 C 382.65625 356.738281 382.75 357.320312 382.886719 357.859375 Z M 386.589844 350.453125 C 387.0625 351.105469 387.546875 351.683594 388.050781 352.257812 C 388.546875 352.832031 389.09375 353.363281 389.671875 353.914062 C 390.292969 354.445312 390.894531 355 391.785156 355.527344 C 392.128906 353.546875 391.324219 351.753906 390.132812 350.394531 C 389.53125 349.710938 388.789062 349.152344 387.96875 348.75 C 387.136719 348.367188 386.210938 348.085938 385.195312 348.222656 C 385.664062 349.117188 386.117188 349.796875 386.589844 350.453125 Z M 403.429688 330.058594 L 398.375 327.460938 C 398.375 327.460938 391.925781 338.484375 390.210938 341.78125 C 391.351562 341.921875 395.234375 346.078125 395.234375 346.078125 Z M 350.445312 430.363281 C 350.445312 430.363281 372.644531 440.746094 372.230469 384.90625 C 378.640625 374.523438 375.894531 367.707031 375.894531 367.707031 L 351.527344 408.285156 L 346.003906 404.386719 Z M 341.128906 350.824219 L 353.066406 332.671875 L 335.632812 313.339844 Z M 340.480469 359.914062 L 317.414062 293.039062 L 346.003906 404.386719 Z M 198.824219 647.6875 C 198.824219 647.6875 294.253906 647.863281 354.804688 647.863281 C 344.976562 618.519531 345.742188 517.082031 345.742188 517.082031 L 324.6875 523.859375 L 306.117188 303.933594 C 306.117188 303.933594 306.5 523.089844 304.015625 551.394531 C 295.019531 555.984375 260.1875 578.933594 260.1875 578.933594 L 298.082031 316.742188 C 298.082031 316.742188 240.476562 592.511719 239.703125 598.441406 C 238.945312 604.371094 218.519531 614.425781 218.519531 614.425781 C 213.601562 636.34375 198.824219 647.6875 198.824219 647.6875 Z M 220.183594 525.765625 L 293.679688 310.621094 L 215.59375 480.25 C 221.523438 490.773438 220.183594 525.765625 220.183594 525.765625 Z M 291.191406 294.941406 L 215.59375 396.679688 C 215.59375 396.679688 219.035156 411.785156 215.585938 424.027344 C 212.140625 436.265625 210.617188 448.699219 212.714844 456.542969 C 214.820312 464.378906 291.191406 294.941406 291.191406 294.941406 Z M 212.140625 382.339844 L 291.574219 287.101562 L 215.402344 350.78125 C 204.679688 368.949219 212.140625 382.339844 212.140625 382.339844 Z M 259.996094 254.589844 C 259.996094 254.589844 271.285156 270.464844 290.617188 267.019531 C 286.789062 243.6875 293.839844 231.261719 293.839844 231.261719 C 293.839844 231.261719 286.40625 245.792969 274.347656 246.367188 C 262.289062 246.941406 257.316406 231.261719 257.316406 231.261719 C 259.804688 240.820312 259.996094 254.589844 259.996094 254.589844 Z M 294.988281 219.40625 C 294.988281 219.40625 294.597656 228.582031 293.839844 231.261719 C 298.042969 231.261719 298.617188 224.566406 298.617188 224.566406 C 298.617188 224.566406 298.042969 220.355469 294.988281 219.40625 Z M 252.53125 224.566406 C 252.53125 224.566406 253.105469 231.261719 257.316406 231.261719 C 256.550781 228.582031 256.167969 219.40625 256.167969 219.40625 C 253.105469 220.355469 252.53125 224.566406 252.53125 224.566406 Z M 198.9375 254.972656 C 211.191406 261.855469 221.324219 233.746094 221.324219 233.746094 C 221.324219 233.746094 213.105469 241.207031 205.0625 241.394531 C 197.023438 241.585938 200.46875 212.136719 200.46875 212.136719 C 200.46875 212.136719 186.691406 248.085938 198.9375 254.972656 Z M 189.675781 103.746094 L 190.644531 121.164062 L 203.925781 121.164062 L 205.03125 92.691406 C 205.03125 92.691406 200.191406 90.203125 199.359375 87.992188 C 190.78125 87.992188 188.988281 90.066406 188.988281 90.066406 L 198.808594 90.898438 C 198.808594 90.898438 202.261719 93.386719 199.222656 96.558594 C 196.179688 97.941406 189.125 97.113281 189.125 97.113281 C 189.125 97.113281 194.933594 99.46875 197.976562 99.324219 C 201.160156 101.675781 196.597656 103.472656 196.597656 103.472656 Z M 187.550781 82.75 C 187.550781 82.75 195.765625 81.359375 198.253906 83.433594 C 198.253906 80.386719 206.667969 82.082031 206.667969 82.082031 L 206.695312 75.964844 L 187.324219 75.964844 Z M 222.945312 54.421875 L 171.144531 54.421875 L 176.261719 68.828125 L 218.136719 68.828125 Z M 218.136719 73.03125 L 176.261719 73.03125 L 176.261719 70.660156 L 218.136719 70.660156 L 218.136719 73.03125 " fill-opacity="1" fill-rule="nonzero"/></g><path fill="#85d4a6" d="M 343.90625 654.011719 C 342.371094 649.644531 341.054688 645.03125 339.886719 640.441406 C 338.71875 635.839844 337.707031 631.1875 336.875 626.503906 C 336.027344 621.820312 335.324219 617.105469 334.839844 612.355469 C 334.292969 607.613281 334.046875 602.839844 333.871094 598.058594 C 333.695312 602.835938 333.59375 607.632812 333.789062 612.433594 C 333.929688 617.226562 334.285156 622.019531 334.796875 626.800781 C 335.289062 631.589844 335.964844 636.355469 336.808594 641.101562 C 337.65625 645.863281 338.617188 650.554688 339.914062 655.3125 Z M 320.652344 651.996094 C 319.328125 640.46875 318.128906 628.910156 317.066406 617.339844 C 316.546875 611.558594 316.078125 605.769531 315.683594 599.976562 C 315.316406 594.183594 314.972656 588.378906 315.117188 582.570312 C 314.625 588.363281 314.617188 594.199219 314.632812 600.015625 C 314.679688 605.828125 314.804688 611.648438 314.972656 617.472656 C 315.335938 629.101562 315.835938 640.726562 316.464844 652.355469 Z M 314.339844 651.449219 C 313.546875 642.710938 312.863281 633.933594 312.238281 625.160156 C 311.625 616.382812 311.066406 607.605469 310.636719 598.816406 C 310.210938 590.027344 309.835938 581.234375 309.695312 572.4375 C 309.546875 563.640625 309.523438 554.835938 309.945312 546.042969 C 309.175781 554.816406 308.847656 563.625 308.644531 572.4375 C 308.4375 581.25 308.457031 590.0625 308.539062 598.878906 C 308.617188 607.691406 308.824219 616.507812 309.09375 625.320312 C 309.367188 634.136719 309.699219 642.933594 310.148438 651.761719 Z M 304.773438 652.859375 C 303.898438 638.910156 303.222656 624.921875 302.824219 610.941406 C 302.617188 603.945312 302.519531 596.949219 302.546875 589.953125 C 302.585938 582.960938 302.710938 575.957031 303.4375 568.992188 C 302.367188 575.914062 301.882812 582.925781 301.496094 589.925781 C 301.117188 596.925781 300.867188 603.933594 300.722656 610.945312 C 300.421875 624.976562 300.394531 638.984375 300.578125 653.027344 Z M 274.339844 654.285156 C 272.949219 641.984375 271.933594 629.578125 271.226562 617.175781 C 270.558594 604.769531 270.21875 592.332031 270.710938 579.890625 C 269.523438 592.285156 269.160156 604.765625 269.132812 617.230469 C 269.136719 629.707031 269.453125 642.164062 270.152344 654.664062 Z M 265.539062 651.527344 C 264.84375 640.933594 264.296875 630.289062 263.957031 619.65625 C 263.792969 614.339844 263.660156 609.015625 263.652344 603.699219 C 263.644531 598.375 263.695312 593.050781 264.011719 587.726562 C 263.34375 593.019531 262.945312 598.34375 262.601562 603.664062 C 262.261719 608.988281 262.042969 614.324219 261.855469 619.65625 C 261.496094 630.324219 261.34375 640.988281 261.34375 651.679688 Z M 243.703125 652.253906 C 244.101562 647.542969 244.375 642.886719 244.59375 638.199219 C 244.8125 633.523438 244.945312 628.84375 245.007812 624.164062 C 245.125 614.808594 244.90625 605.445312 244.105469 596.144531 C 244.207031 605.480469 243.722656 614.789062 242.910156 624.0625 C 242.5 628.695312 242.019531 633.320312 241.453125 637.9375 C 240.890625 642.546875 240.265625 647.175781 239.535156 651.722656 Z M 230.394531 651.679688 C 231.296875 648.550781 232.039062 645.203125 232.714844 641.910156 C 233.382812 638.601562 233.949219 635.261719 234.464844 631.910156 C 234.957031 628.554688 235.40625 625.1875 235.753906 621.804688 C 236.125 618.425781 236.398438 615.035156 236.644531 611.632812 C 236.75 615.039062 236.828125 618.449219 236.804688 621.863281 C 236.804688 625.277344 236.699219 628.695312 236.554688 632.113281 C 236.382812 635.535156 236.160156 638.957031 235.824219 642.371094 C 235.488281 645.808594 235.105469 649.175781 234.476562 652.679688 L 230.394531 651.679688 " fill-opacity="1" fill-rule="nonzero"/></svg>