<svg xmlns="http://www.w3.org/2000/svg" xmlns:xlink="http://www.w3.org/1999/xlink" width="1000" zoomAndPan="magnify" viewBox="0 0 750 675.000002" height="900" preserveAspectRatio="xMidYMid meet" version="1.0"><defs><clipPath id="1d88e8aea9"><path d="M 0.554688 175.121094 L 749.445312 175.121094 L 749.445312 549 L 0.554688 549 Z M 0.554688 175.121094 " clip-rule="nonzero"/></clipPath><clipPath id="d797b38780"><path d="M 671 511 L 749.445312 511 L 749.445312 556 L 671 556 Z M 671 511 " clip-rule="nonzero"/></clipPath><clipPath id="a5cd25525f"><path d="M 0.554688 546 L 749.445312 546 L 749.445312 564 L 0.554688 564 Z M 0.554688 546 " clip-rule="nonzero"/></clipPath><clipPath id="4e52ef4175"><path d="M 0.554688 563 L 749.445312 563 L 749.445312 639.433594 L 0.554688 639.433594 Z M 0.554688 563 " clip-rule="nonzero"/></clipPath></defs><g clip-path="url(#1d88e8aea9)"><path fill="#a8e2e3" d="M 374.914062 175.054688 C 168.292969 175.054688 0.800781 342.09375 0.800781 548.144531 L 749.03125 548.144531 C 749.03125 342.09375 581.53125 175.054688 374.914062 175.054688 " fill-opacity="1" fill-rule="nonzero"/></g><g clip-path="url(#d797b38780)"><path fill="#655551" d="M 749.03125 555.070312 L 671.140625 555.070312 L 671.140625 511.007812 L 749.03125 511.007812 L 749.03125 555.070312 " fill-opacity="1" fill-rule="nonzero"/></g><path fill="#151c27" d="M 744.039062 511.007812 C 742.78125 511.527344 668.734375 511.007812 668.734375 511.007812 L 622.703125 509.429688 L 630.449219 486.867188 L 707.089844 488.433594 L 744.039062 511.007812 " fill-opacity="1" fill-rule="nonzero"/><path fill="#151c27" d="M 118.773438 431.027344 L 89.921875 467.582031 L 68.410156 467.582031 L 78.597656 479.765625 L 78.597656 494.109375 L 313.359375 494.109375 L 313.359375 505.683594 L 526.734375 505.683594 L 507.726562 477.667969 L 366.195312 425.457031 C 366.195312 425.457031 301.28125 294.078125 258.253906 282 C 258.253906 282 274.304688 365.613281 268.945312 412.210938 L 187.296875 336.347656 L 191.824219 383.152344 L 80.113281 367.371094 L 118.773438 431.027344 " fill-opacity="1" fill-rule="nonzero"/><path fill="#2b2c32" d="M 182.222656 467.582031 C 182.222656 467.582031 127.597656 390.273438 75.496094 363.378906 C 75.496094 363.378906 107.011719 417.164062 115.414062 436.070312 L 118.773438 431.027344 C 118.773438 431.027344 95.199219 385.308594 86.839844 375.144531 C 86.839844 375.144531 131.800781 402.875 178.015625 470.101562 L 182.222656 467.582031 " fill-opacity="1" fill-rule="nonzero"/><path fill="#ece9ea" d="M 182.222656 327.246094 C 182.222656 327.246094 279.28125 335.226562 332.226562 402.875 C 332.226562 402.875 345.25 421.363281 358.273438 501.617188 L 350.292969 501.617188 C 350.292969 501.617188 338.109375 475.5625 336.847656 474.722656 C 335.585938 473.886719 293.988281 467.582031 293.988281 467.582031 L 284.996094 489.640625 L 277.601562 489.640625 C 277.601562 489.640625 257.917969 405.871094 182.222656 327.246094 " fill-opacity="1" fill-rule="nonzero"/><path fill="#7c7f7c" d="M 277.601562 489.640625 C 277.601562 489.640625 263.3125 407.496094 182.222656 327.246094 C 182.222656 327.246094 190.203125 368.839844 189.785156 379.761719 L 194.828125 379.761719 C 194.828125 379.761719 192.730469 352.027344 189.363281 341.53125 C 189.363281 341.53125 248.191406 399.390625 272.136719 487.625 L 277.601562 489.640625 " fill-opacity="1" fill-rule="nonzero"/><path fill="#ece9ea" d="M 75.496094 363.378906 C 75.496094 363.378906 178.183594 348.519531 236.621094 404.636719 C 236.621094 404.636719 262.238281 444.992188 272.738281 487.84375 L 255.933594 481.644531 L 244.828125 460.015625 L 198.1875 449.933594 L 193.984375 467.160156 L 182.222656 467.582031 C 182.222656 467.582031 128.859375 390.6875 75.496094 363.378906 " fill-opacity="1" fill-rule="nonzero"/><path fill="#d9d9d2" d="M 408.1875 472.109375 L 422.683594 416.742188 L 364.308594 501.617188 L 379.296875 501.617188 L 408.1875 472.109375 " fill-opacity="1" fill-rule="nonzero"/><path fill="#ece9ea" d="M 422.683594 416.742188 C 422.683594 416.742188 419.664062 459.050781 364.308594 501.617188 C 364.308594 501.617188 346.96875 353.988281 253.234375 272.203125 C 253.234375 272.203125 372.863281 290.304688 422.683594 416.742188 " fill-opacity="1" fill-rule="nonzero"/><path fill="#7c7f7c" d="M 253.234375 272.203125 C 253.234375 272.203125 339.394531 329.46875 364.308594 501.617188 L 358.273438 501.617188 C 358.273438 501.617188 339.648438 363.070312 262.21875 286.503906 C 262.21875 286.503906 270.25 307.828125 272.136719 354.398438 L 263.40625 350.101562 C 263.40625 350.101562 260.402344 296.875 253.234375 272.203125 " fill-opacity="1" fill-rule="nonzero"/><path fill="#ece9ea" d="M 463.757812 489.007812 L 408.1875 472.109375 L 422.683594 416.742188 Z M 463.757812 489.007812 " fill-opacity="1" fill-rule="nonzero"/><path fill="#dbdcd9" d="M 554.886719 398.394531 C 554.886719 398.394531 493.484375 368.78125 422.683594 416.742188 L 463.757812 489.007812 L 513.398438 483.597656 L 526.734375 501.617188 L 540.074219 501.617188 C 540.074219 501.617188 558.59375 444.324219 554.886719 398.394531 " fill-opacity="1" fill-rule="nonzero"/><path fill="#dbdcd9" d="M 693.4375 511.007812 L 679.734375 511.007812 L 667.503906 492.855469 L 635.277344 492.855469 L 631.203125 499.894531 L 621.941406 499.894531 L 626.015625 459.179688 C 626.015625 459.179688 676.769531 432.195312 733.074219 445.484375 L 693.4375 511.007812 " fill-opacity="1" fill-rule="nonzero"/><path fill="#151c27" d="M 581.363281 486.324219 L 565.671875 447.011719 C 565.671875 447.011719 597.234375 467.121094 621.035156 499.894531 L 631.203125 499.894531 L 635.277344 492.855469 L 667.503906 492.855469 L 679.734375 511.007812 L 674.597656 511.007812 L 665.222656 496.066406 L 637.085938 495.160156 L 633.480469 501.617188 L 616.886719 501.617188 L 581.363281 486.324219 " fill-opacity="1" fill-rule="nonzero"/><path fill="#665d65" d="M 563.035156 442.847656 C 563.035156 442.847656 599.582031 463.148438 621.941406 499.894531 L 619.773438 499.894531 C 619.773438 499.894531 601.15625 473.210938 568.015625 449.535156 L 581.363281 482.898438 L 577.933594 484.523438 L 563.035156 442.847656 " fill-opacity="1" fill-rule="nonzero"/><path fill="#ece9ea" d="M 621.941406 499.894531 C 621.941406 499.894531 600.828125 466.925781 563.035156 442.847656 C 563.035156 442.847656 593.046875 438.464844 626.015625 459.179688 C 626.015625 459.179688 634.535156 484.707031 621.941406 499.894531 " fill-opacity="1" fill-rule="nonzero"/><path fill="#2c2722" d="M 590.378906 477.667969 L 547.636719 501.617188 L 616.886719 501.617188 C 616.886719 501.617188 606.25 484.339844 590.378906 477.667969 " fill-opacity="1" fill-rule="nonzero"/><path fill="#867a73" d="M 55.324219 546.195312 L 699.460938 546.195312 L 699.460938 521.035156 L 644.609375 501.617188 L 345.6875 501.617188 L 315.496094 489.640625 L 277.601562 489.640625 L 211.324219 465.175781 L 156.980469 465.175781 L 156.980469 489.007812 L 55.324219 489.007812 L 55.324219 505.683594 L 100.613281 505.683594 L 101.117188 514.136719 L 55.324219 514.136719 L 55.324219 546.195312 " fill-opacity="1" fill-rule="nonzero"/><path fill="#30363c" d="M 319.519531 534.621094 L 300.398438 534.621094 L 300.398438 499.894531 L 319.519531 499.894531 L 319.519531 534.621094 " fill-opacity="1" fill-rule="nonzero"/><path fill="#30363c" d="M 535.410156 546.195312 L 516.28125 546.195312 L 516.28125 517.257812 L 535.410156 517.257812 L 535.410156 546.195312 " fill-opacity="1" fill-rule="nonzero"/><path fill="#30363c" d="M 625.988281 546.195312 L 612.398438 546.195312 L 612.398438 526.570312 L 625.988281 526.570312 L 625.988281 546.195312 " fill-opacity="1" fill-rule="nonzero"/><path fill="#30363c" d="M 353.238281 546.195312 L 325.058594 546.195312 L 325.058594 531.726562 L 353.238281 531.726562 L 353.238281 546.195312 " fill-opacity="1" fill-rule="nonzero"/><path fill="#30363c" d="M 164.023438 546.195312 L 149.933594 546.195312 L 149.933594 524.054688 L 164.023438 524.054688 L 164.023438 546.195312 " fill-opacity="1" fill-rule="nonzero"/><path fill="#30363c" d="M 293.355469 517.257812 L 244.539062 517.257812 L 244.539062 511.007812 L 293.355469 511.007812 L 293.355469 517.257812 " fill-opacity="1" fill-rule="nonzero"/><path fill="#30363c" d="M 486.59375 517.257812 L 325.058594 517.257812 L 325.058594 511.007812 L 486.59375 511.007812 L 486.59375 517.257812 " fill-opacity="1" fill-rule="nonzero"/><path fill="#30363c" d="M 656.6875 517.257812 L 570.128906 517.257812 L 570.128906 511.007812 L 656.6875 511.007812 L 656.6875 517.257812 " fill-opacity="1" fill-rule="nonzero"/><path fill="#2f2e31" d="M 526.734375 501.617188 L 513.398438 483.597656 L 463.757812 489.007812 L 408.1875 472.109375 L 379.296875 501.617188 L 388.511719 501.617188 L 410.640625 478.03125 L 457.195312 492.378906 L 457.195312 501.617188 L 467.714844 501.617188 L 467.714844 492.925781 L 508.789062 489.007812 L 518.429688 501.617188 L 526.734375 501.617188 " fill-opacity="1" fill-rule="nonzero"/><path fill="#2f2e31" d="M 284.996094 489.640625 L 293.988281 467.582031 L 336.847656 474.722656 L 350.292969 501.617188 L 345.6875 501.617188 L 333.082031 478.90625 L 298.03125 472.109375 L 291.457031 489.640625 L 284.996094 489.640625 " fill-opacity="1" fill-rule="nonzero"/><path fill="#2f2e31" d="M 200.429688 465.175781 L 203.058594 454.699219 L 239.53125 463.675781 L 245.652344 477.847656 L 255.933594 481.644531 L 244.828125 460.015625 L 198.1875 449.933594 L 194.472656 465.175781 L 200.429688 465.175781 " fill-opacity="1" fill-rule="nonzero"/><g clip-path="url(#a5cd25525f)"><path fill="#58524b" d="M 749.03125 563.949219 L 0.800781 563.949219 L 0.800781 546.195312 L 749.03125 546.195312 L 749.03125 563.949219 " fill-opacity="1" fill-rule="nonzero"/></g><path fill="#716762" d="M 139.550781 489.007812 L 55.324219 489.007812 L 55.324219 505.683594 L 100.613281 505.683594 L 101.117188 514.136719 L 55.324219 514.136719 L 55.324219 546.195312 L 139.550781 546.195312 L 139.550781 489.007812 " fill-opacity="1" fill-rule="nonzero"/><g clip-path="url(#4e52ef4175)"><path fill="#3a97a6" d="M 749.03125 639.34375 L 0.800781 639.34375 L 0.800781 563.949219 L 749.03125 563.949219 L 749.03125 639.34375 " fill-opacity="1" fill-rule="nonzero"/></g><path fill="#dfdcdd" d="M 315.625 295.046875 C 335.765625 318.308594 400.851562 403.867188 364.308594 501.617188 C 419.664062 459.050781 422.683594 416.742188 422.683594 416.742188 C 396.929688 351.382812 352.523438 314.972656 315.625 295.046875 " fill-opacity="1" fill-rule="nonzero"/><path fill="#dfdcdd" d="M 254.851562 346.308594 C 276.710938 368.632812 312.921875 418.289062 272.738281 473.535156 C 276.207031 483.71875 277.601562 489.640625 277.601562 489.640625 L 284.996094 489.640625 L 293.988281 467.582031 C 293.988281 467.582031 335.585938 473.886719 336.847656 474.722656 C 338.109375 475.5625 350.292969 501.617188 350.292969 501.617188 L 358.273438 501.617188 C 345.25 421.363281 332.226562 402.875 332.226562 402.875 C 310.589844 375.230469 281.585938 357.550781 254.851562 346.308594 " fill-opacity="1" fill-rule="nonzero"/><path fill="#dfdcdd" d="M 152.914062 365.554688 C 170.703125 383.054688 192.089844 415.835938 182.222656 467.582031 L 193.984375 467.160156 L 198.1875 449.9375 L 244.828125 460.015625 L 255.933594 481.644531 L 272.738281 487.84375 C 262.238281 444.992188 236.621094 404.636719 236.621094 404.636719 C 212.757812 381.726562 181.527344 370.644531 152.914062 365.554688 " fill-opacity="1" fill-rule="nonzero"/><path fill="#ece9ea" d="M 489.894531 390.476562 C 492.441406 415.203125 502.355469 473.105469 540.144531 501.394531 C 541.367188 497.53125 558.460938 442.6875 554.886719 398.394531 C 554.886719 398.394531 528.277344 385.5625 489.894531 390.476562 " fill-opacity="1" fill-rule="nonzero"/><path fill="#ece9ea" d="M 675.113281 443.875 C 674.445312 464.5625 676.910156 493.488281 692.960938 511.007812 L 693.4375 511.007812 L 733.074219 445.484375 C 712.226562 440.558594 692.144531 441.167969 675.113281 443.875 " fill-opacity="1" fill-rule="nonzero"/></svg>