<svg xmlns="http://www.w3.org/2000/svg" xmlns:xlink="http://www.w3.org/1999/xlink" width="1000" zoomAndPan="magnify" viewBox="0 0 750 675.000002" height="900" preserveAspectRatio="xMidYMid meet" version="1.0"><defs><clipPath id="2ce51c8c9b"><path d="M 0.554688 0 L 749.445312 0 L 749.445312 674 L 0.554688 674 Z M 0.554688 0 " clip-rule="nonzero"/></clipPath><clipPath id="8c5b1b6752"><path d="M 0.554688 0 L 749.445312 0 L 749.445312 674 L 0.554688 674 Z M 0.554688 0 " clip-rule="nonzero"/></clipPath><clipPath id="787c14e313"><path d="M 117.570312 0 L 632.429688 0 C 697.054688 0 749.445312 52.390625 749.445312 117.015625 L 749.445312 556.988281 C 749.445312 621.613281 697.054688 674 632.429688 674 L 117.570312 674 C 52.945312 674 0.554688 621.613281 0.554688 556.988281 L 0.554688 117.015625 C 0.554688 52.390625 52.945312 0 117.570312 0 " clip-rule="nonzero"/></clipPath><clipPath id="08af90cf11"><path d="M 327.84375 60.519531 L 641.628906 60.519531 L 641.628906 464 L 327.84375 464 Z M 327.84375 60.519531 " clip-rule="nonzero"/></clipPath><clipPath id="cb5ec71762"><path d="M 108.410156 129.488281 L 484.351562 129.488281 L 484.351562 613 L 108.410156 613 Z M 108.410156 129.488281 " clip-rule="nonzero"/></clipPath></defs><g clip-path="url(#2ce51c8c9b)"><path fill="#ffffff" d="M 0.554688 0 L 749.445312 0 L 749.445312 681.492188 L 0.554688 681.492188 Z M 0.554688 0 " fill-opacity="1" fill-rule="nonzero"/><path fill="#ffffff" d="M 0.554688 0 L 749.445312 0 L 749.445312 674 L 0.554688 674 Z M 0.554688 0 " fill-opacity="1" fill-rule="nonzero"/><path fill="#ffffff" d="M 0.554688 0 L 749.445312 0 L 749.445312 674 L 0.554688 674 Z M 0.554688 0 " fill-opacity="1" fill-rule="nonzero"/></g><g clip-path="url(#8c5b1b6752)"><g clip-path="url(#787c14e313)"><path fill="#5c9ce5" d="M 0.554688 0 L 749.445312 0 L 749.445312 674 L 0.554688 674 Z M 0.554688 0 " fill-opacity="1" fill-rule="nonzero"/></g></g><path fill="#5c9ce5" d="M 484.734375 441.679688 C 482.535156 441.679688 480.335938 441.625 478.136719 441.511719 C 475.941406 441.402344 473.746094 441.238281 471.558594 441.023438 C 469.367188 440.804688 467.183594 440.53125 465.007812 440.207031 C 462.832031 439.882812 460.667969 439.503906 458.507812 439.074219 C 456.351562 438.644531 454.207031 438.160156 452.070312 437.625 C 449.9375 437.085938 447.816406 436.5 445.710938 435.859375 C 443.609375 435.21875 441.519531 434.527344 439.449219 433.785156 C 437.375 433.042969 435.324219 432.25 433.292969 431.40625 C 431.261719 430.5625 429.25 429.671875 427.261719 428.730469 C 425.273438 427.789062 423.308594 426.796875 421.367188 425.761719 C 419.429688 424.722656 417.515625 423.636719 415.628906 422.503906 C 413.742188 421.371094 411.882812 420.195312 410.054688 418.972656 C 408.226562 417.75 406.425781 416.480469 404.660156 415.171875 C 402.894531 413.859375 401.160156 412.507812 399.457031 411.109375 C 397.757812 409.714844 396.09375 408.277344 394.460938 406.796875 C 392.832031 405.320312 391.238281 403.804688 389.683594 402.246094 C 388.128906 400.691406 386.609375 399.097656 385.132812 397.46875 C 383.65625 395.835938 382.21875 394.171875 380.820312 392.46875 C 379.425781 390.769531 378.074219 389.035156 376.761719 387.269531 C 375.449219 385.5 374.183594 383.703125 372.960938 381.871094 C 371.738281 380.042969 370.558594 378.183594 369.429688 376.296875 C 368.296875 374.410156 367.210938 372.496094 366.175781 370.554688 C 365.136719 368.617188 364.148438 366.652344 363.203125 364.664062 C 362.261719 362.671875 361.371094 360.664062 360.527344 358.628906 C 359.683594 356.597656 358.890625 354.546875 358.148438 352.472656 C 357.40625 350.402344 356.714844 348.3125 356.078125 346.207031 C 355.4375 344.101562 354.847656 341.984375 354.3125 339.847656 C 353.777344 337.714844 353.292969 335.566406 352.863281 333.410156 C 352.429688 331.25 352.054688 329.085938 351.730469 326.90625 C 351.402344 324.730469 351.132812 322.546875 350.914062 320.359375 C 350.699219 318.167969 350.535156 315.976562 350.425781 313.777344 C 350.3125 311.578125 350.257812 309.378906 350.253906 307.179688 C 350.253906 248.402344 438.226562 134.859375 484.734375 83.007812 C 531.242188 134.859375 619.214844 248.402344 619.214844 307.179688 C 619.210938 309.378906 619.15625 311.578125 619.046875 313.777344 C 618.9375 315.976562 618.773438 318.167969 618.554688 320.359375 C 618.335938 322.546875 618.066406 324.730469 617.742188 326.90625 C 617.417969 329.085938 617.039062 331.25 616.609375 333.410156 C 616.175781 335.566406 615.695312 337.714844 615.15625 339.847656 C 614.621094 341.984375 614.035156 344.101562 613.394531 346.207031 C 612.753906 348.3125 612.0625 350.402344 611.320312 352.472656 C 610.578125 354.546875 609.785156 356.597656 608.941406 358.628906 C 608.097656 360.664062 607.207031 362.671875 606.265625 364.664062 C 605.324219 366.652344 604.332031 368.617188 603.296875 370.554688 C 602.257812 372.496094 601.171875 374.410156 600.039062 376.296875 C 598.910156 378.183594 597.730469 380.042969 596.507812 381.871094 C 595.285156 383.703125 594.019531 385.5 592.707031 387.269531 C 591.398438 389.035156 590.042969 390.769531 588.648438 392.46875 C 587.25 394.171875 585.816406 395.835938 584.335938 397.46875 C 582.859375 399.097656 581.34375 400.691406 579.785156 402.246094 C 578.230469 403.804688 576.636719 405.320312 575.007812 406.796875 C 573.378906 408.277344 571.710938 409.714844 570.011719 411.109375 C 568.3125 412.507812 566.578125 413.859375 564.808594 415.171875 C 563.042969 416.480469 561.246094 417.75 559.414062 418.972656 C 557.585938 420.195312 555.730469 421.371094 553.84375 422.503906 C 551.953125 423.636719 550.042969 424.722656 548.101562 425.761719 C 546.160156 426.796875 544.195312 427.789062 542.207031 428.730469 C 540.21875 429.671875 538.210938 430.5625 536.175781 431.40625 C 534.144531 432.25 532.09375 433.042969 530.023438 433.785156 C 527.949219 434.527344 525.863281 435.21875 523.757812 435.859375 C 521.652344 436.5 519.53125 437.085938 517.398438 437.625 C 515.265625 438.160156 513.117188 438.644531 510.960938 439.074219 C 508.804688 439.503906 506.636719 439.882812 504.460938 440.207031 C 502.285156 440.53125 500.101562 440.804688 497.910156 441.023438 C 495.722656 441.238281 493.527344 441.402344 491.332031 441.511719 C 489.132812 441.625 486.933594 441.679688 484.734375 441.679688 Z M 484.734375 441.679688 " fill-opacity="1" fill-rule="nonzero"/><g clip-path="url(#08af90cf11)"><path fill="#ffffff" d="M 501.410156 67.878906 C 500.871094 67.316406 500.308594 66.785156 499.714844 66.28125 C 499.125 65.777344 498.507812 65.304688 497.871094 64.863281 C 497.230469 64.421875 496.570312 64.011719 495.890625 63.636719 C 495.210938 63.261719 494.511719 62.921875 493.800781 62.617188 C 493.085938 62.3125 492.355469 62.042969 491.613281 61.8125 C 490.875 61.582031 490.121094 61.390625 489.359375 61.234375 C 488.597656 61.078125 487.832031 60.960938 487.058594 60.882812 C 486.285156 60.804688 485.511719 60.765625 484.734375 60.765625 C 483.957031 60.765625 483.183594 60.804688 482.410156 60.882812 C 481.636719 60.960938 480.871094 61.078125 480.109375 61.234375 C 479.347656 61.390625 478.597656 61.582031 477.855469 61.8125 C 477.113281 62.042969 476.386719 62.3125 475.671875 62.617188 C 474.957031 62.921875 474.257812 63.261719 473.578125 63.636719 C 472.898438 64.011719 472.238281 64.421875 471.597656 64.863281 C 470.960938 65.304688 470.34375 65.777344 469.753906 66.28125 C 469.160156 66.785156 468.597656 67.316406 468.058594 67.878906 C 453.691406 83.859375 327.84375 226.476562 327.84375 307.023438 C 327.84375 309.589844 327.90625 312.15625 328.03125 314.722656 C 328.15625 317.285156 328.347656 319.847656 328.597656 322.402344 C 328.847656 324.957031 329.164062 327.507812 329.539062 330.046875 C 329.917969 332.585938 330.355469 335.117188 330.855469 337.636719 C 331.359375 340.15625 331.921875 342.660156 332.542969 345.152344 C 333.167969 347.640625 333.851562 350.117188 334.597656 352.574219 C 335.34375 355.03125 336.148438 357.46875 337.011719 359.886719 C 337.878906 362.304688 338.800781 364.699219 339.785156 367.074219 C 340.769531 369.445312 341.808594 371.792969 342.90625 374.113281 C 344.003906 376.433594 345.15625 378.730469 346.367188 380.992188 C 347.578125 383.257812 348.84375 385.492188 350.164062 387.695312 C 351.484375 389.898438 352.855469 392.066406 354.285156 394.203125 C 355.710938 396.335938 357.1875 398.4375 358.71875 400.5 C 360.246094 402.5625 361.828125 404.585938 363.457031 406.570312 C 365.085938 408.554688 366.761719 410.5 368.484375 412.402344 C 370.210938 414.304688 371.980469 416.164062 373.796875 417.980469 C 375.609375 419.796875 377.46875 421.566406 379.371094 423.292969 C 381.273438 425.015625 383.21875 426.691406 385.203125 428.324219 C 387.1875 429.953125 389.210938 431.53125 391.273438 433.0625 C 393.335938 434.589844 395.433594 436.070312 397.570312 437.496094 C 399.703125 438.921875 401.875 440.296875 404.074219 441.617188 C 406.277344 442.9375 408.511719 444.203125 410.777344 445.414062 C 413.039062 446.625 415.332031 447.777344 417.65625 448.875 C 419.976562 449.972656 422.324219 451.015625 424.695312 451.996094 C 427.066406 452.980469 429.460938 453.902344 431.878906 454.769531 C 434.296875 455.632812 436.734375 456.4375 439.191406 457.183594 C 441.648438 457.929688 444.121094 458.613281 446.613281 459.238281 C 449.105469 459.863281 451.609375 460.425781 454.125 460.925781 C 456.644531 461.425781 459.175781 461.867188 461.714844 462.242188 C 464.253906 462.621094 466.800781 462.933594 469.355469 463.1875 C 471.910156 463.4375 474.472656 463.625 477.035156 463.753906 C 479.601562 463.878906 482.167969 463.941406 484.734375 463.941406 C 487.300781 463.941406 489.867188 463.878906 492.433594 463.753906 C 494.996094 463.625 497.558594 463.4375 500.113281 463.1875 C 502.667969 462.933594 505.214844 462.621094 507.753906 462.242188 C 510.296875 461.867188 512.824219 461.425781 515.34375 460.925781 C 517.863281 460.425781 520.367188 459.863281 522.855469 459.238281 C 525.347656 458.613281 527.820312 457.929688 530.277344 457.183594 C 532.734375 456.4375 535.171875 455.632812 537.589844 454.769531 C 540.007812 453.902344 542.402344 452.980469 544.773438 451.996094 C 547.148438 451.015625 549.492188 449.972656 551.816406 448.875 C 554.136719 447.777344 556.429688 446.625 558.695312 445.414062 C 560.957031 444.203125 563.191406 442.9375 565.394531 441.617188 C 567.597656 440.296875 569.765625 438.921875 571.898438 437.496094 C 574.035156 436.070312 576.132812 434.589844 578.195312 433.0625 C 580.257812 431.53125 582.28125 429.953125 584.265625 428.324219 C 586.25 426.691406 588.195312 425.015625 590.097656 423.292969 C 592 421.566406 593.859375 419.796875 595.675781 417.980469 C 597.488281 416.164062 599.261719 414.304688 600.984375 412.402344 C 602.707031 410.5 604.386719 408.554688 606.015625 406.570312 C 607.644531 404.585938 609.222656 402.5625 610.753906 400.5 C 612.28125 398.4375 613.757812 396.335938 615.1875 394.203125 C 616.613281 392.066406 617.984375 389.898438 619.304688 387.695312 C 620.625 385.492188 621.890625 383.257812 623.101562 380.992188 C 624.3125 378.730469 625.464844 376.433594 626.5625 374.113281 C 627.660156 371.792969 628.703125 369.445312 629.683594 367.074219 C 630.667969 364.699219 631.589844 362.304688 632.457031 359.886719 C 633.320312 357.46875 634.125 355.03125 634.871094 352.574219 C 635.617188 350.117188 636.300781 347.640625 636.925781 345.152344 C 637.550781 342.660156 638.113281 340.15625 638.613281 337.636719 C 639.113281 335.117188 639.550781 332.585938 639.929688 330.046875 C 640.304688 327.507812 640.621094 324.957031 640.871094 322.402344 C 641.125 319.847656 641.3125 317.285156 641.4375 314.722656 C 641.5625 312.15625 641.628906 309.589844 641.628906 307.023438 C 641.628906 226.476562 515.777344 83.859375 501.410156 67.878906 Z M 484.734375 419.105469 C 482.902344 419.105469 481.070312 419.058594 479.238281 418.964844 C 477.40625 418.875 475.578125 418.738281 473.753906 418.554688 C 471.929688 418.375 470.113281 418.148438 468.296875 417.875 C 466.484375 417.605469 464.679688 417.289062 462.882812 416.929688 C 461.082031 416.570312 459.296875 416.167969 457.515625 415.722656 C 455.738281 415.273438 453.972656 414.785156 452.21875 414.25 C 450.464844 413.71875 448.726562 413.140625 447 412.523438 C 445.273438 411.902344 443.5625 411.242188 441.871094 410.539062 C 440.175781 409.835938 438.5 409.09375 436.84375 408.308594 C 435.1875 407.523438 433.550781 406.699219 431.933594 405.832031 C 430.316406 404.96875 428.722656 404.0625 427.152344 403.121094 C 425.578125 402.175781 424.03125 401.195312 422.507812 400.175781 C 420.980469 399.15625 419.484375 398.101562 418.011719 397.007812 C 416.539062 395.914062 415.09375 394.789062 413.675781 393.625 C 412.261719 392.460938 410.871094 391.261719 409.515625 390.03125 C 408.15625 388.800781 406.828125 387.535156 405.53125 386.238281 C 404.234375 384.941406 402.972656 383.613281 401.738281 382.257812 C 400.507812 380.898438 399.3125 379.507812 398.148438 378.09375 C 396.984375 376.675781 395.855469 375.230469 394.765625 373.757812 C 393.671875 372.285156 392.617188 370.785156 391.597656 369.261719 C 390.578125 367.738281 389.597656 366.1875 388.652344 364.617188 C 387.710938 363.042969 386.804688 361.449219 385.941406 359.832031 C 385.074219 358.214844 384.25 356.578125 383.464844 354.921875 C 382.679688 353.265625 381.9375 351.589844 381.234375 349.894531 C 380.53125 348.199219 379.871094 346.492188 379.253906 344.765625 C 378.632812 343.039062 378.058594 341.296875 377.523438 339.542969 C 376.992188 337.789062 376.5 336.023438 376.054688 334.246094 C 375.605469 332.464844 375.203125 330.679688 374.84375 328.878906 C 374.484375 327.082031 374.171875 325.277344 373.898438 323.460938 C 373.628906 321.648438 373.402344 319.828125 373.21875 318.003906 C 373.039062 316.179688 372.902344 314.351562 372.808594 312.519531 C 372.71875 310.6875 372.671875 308.855469 372.667969 307.023438 C 372.667969 264.273438 435.785156 175.121094 484.734375 117.015625 C 533.683594 175.074219 596.800781 264.226562 596.800781 307.023438 C 596.796875 308.855469 596.75 310.6875 596.660156 312.519531 C 596.566406 314.351562 596.429688 316.179688 596.25 318.003906 C 596.066406 319.828125 595.839844 321.648438 595.570312 323.460938 C 595.300781 325.277344 594.984375 327.082031 594.625 328.878906 C 594.265625 330.679688 593.863281 332.464844 593.417969 334.246094 C 592.96875 336.023438 592.480469 337.789062 591.945312 339.542969 C 591.410156 341.296875 590.835938 343.039062 590.214844 344.765625 C 589.597656 346.492188 588.9375 348.199219 588.234375 349.894531 C 587.53125 351.589844 586.789062 353.265625 586.003906 354.921875 C 585.21875 356.578125 584.394531 358.214844 583.527344 359.832031 C 582.664062 361.449219 581.757812 363.042969 580.816406 364.617188 C 579.875 366.1875 578.890625 367.738281 577.875 369.261719 C 576.855469 370.785156 575.796875 372.285156 574.707031 373.757812 C 573.613281 375.230469 572.484375 376.675781 571.320312 378.09375 C 570.160156 379.507812 568.960938 380.898438 567.730469 382.257812 C 566.5 383.613281 565.234375 384.941406 563.9375 386.238281 C 562.640625 387.535156 561.3125 388.800781 559.957031 390.03125 C 558.597656 391.261719 557.210938 392.460938 555.792969 393.625 C 554.375 394.789062 552.929688 395.914062 551.457031 397.007812 C 549.984375 398.101562 548.488281 399.15625 546.964844 400.175781 C 545.441406 401.195312 543.890625 402.175781 542.320312 403.121094 C 540.746094 404.0625 539.152344 404.96875 537.535156 405.832031 C 535.917969 406.699219 534.28125 407.523438 532.625 408.308594 C 530.96875 409.09375 529.292969 409.835938 527.601562 410.539062 C 525.90625 411.242188 524.195312 411.902344 522.472656 412.523438 C 520.746094 413.140625 519.003906 413.71875 517.25 414.25 C 515.496094 414.785156 513.730469 415.273438 511.953125 415.722656 C 510.175781 416.167969 508.386719 416.570312 506.589844 416.929688 C 504.789062 417.289062 502.984375 417.605469 501.171875 417.875 C 499.359375 418.148438 497.539062 418.375 495.714844 418.554688 C 493.890625 418.738281 492.0625 418.875 490.230469 418.964844 C 488.402344 419.058594 486.566406 419.105469 484.734375 419.105469 Z M 484.734375 419.105469 " fill-opacity="1" fill-rule="nonzero"/></g><path fill="#5c9ce5" d="M 296.382812 586.316406 C 293.746094 586.3125 291.109375 586.246094 288.476562 586.113281 C 285.84375 585.984375 283.21875 585.785156 280.59375 585.527344 C 277.96875 585.265625 275.355469 584.941406 272.75 584.550781 C 270.140625 584.160156 267.542969 583.707031 264.960938 583.191406 C 262.375 582.675781 259.804688 582.097656 257.246094 581.453125 C 254.691406 580.8125 252.152344 580.105469 249.628906 579.339844 C 247.105469 578.570312 244.605469 577.742188 242.125 576.851562 C 239.640625 575.964844 237.183594 575.011719 234.75 574.003906 C 232.3125 572.992188 229.90625 571.921875 227.523438 570.792969 C 225.140625 569.664062 222.785156 568.480469 220.460938 567.234375 C 218.136719 565.988281 215.84375 564.691406 213.585938 563.332031 C 211.324219 561.976562 209.097656 560.566406 206.90625 559.097656 C 204.714844 557.632812 202.5625 556.113281 200.445312 554.542969 C 198.328125 552.972656 196.25 551.347656 194.210938 549.675781 C 192.175781 548.003906 190.179688 546.28125 188.226562 544.507812 C 186.273438 542.738281 184.363281 540.917969 182.5 539.054688 C 180.636719 537.1875 178.820312 535.28125 177.046875 533.324219 C 175.277344 531.371094 173.558594 529.375 171.882812 527.335938 C 170.210938 525.296875 168.589844 523.21875 167.019531 521.101562 C 165.449219 518.984375 163.929688 516.828125 162.464844 514.636719 C 161 512.441406 159.589844 510.214844 158.234375 507.953125 C 156.878906 505.691406 155.578125 503.398438 154.335938 501.070312 C 153.089844 498.746094 151.90625 496.390625 150.777344 494.007812 C 149.648438 491.625 148.582031 489.214844 147.570312 486.777344 C 146.558594 484.339844 145.609375 481.882812 144.722656 479.398438 C 143.832031 476.917969 143.003906 474.414062 142.238281 471.890625 C 141.46875 469.367188 140.765625 466.824219 140.121094 464.269531 C 139.480469 461.710938 138.902344 459.136719 138.386719 456.550781 C 137.867188 453.964844 137.417969 451.367188 137.027344 448.757812 C 136.636719 446.148438 136.3125 443.53125 136.054688 440.910156 C 135.792969 438.285156 135.597656 435.65625 135.464844 433.019531 C 135.332031 430.386719 135.265625 427.75 135.261719 425.113281 C 135.261719 354.667969 240.660156 218.585938 296.382812 156.441406 C 352.101562 218.585938 457.5 354.667969 457.5 425.113281 C 457.496094 427.75 457.429688 430.386719 457.296875 433.019531 C 457.167969 435.65625 456.96875 438.285156 456.710938 440.910156 C 456.449219 443.53125 456.125 446.148438 455.734375 448.757812 C 455.347656 451.367188 454.894531 453.964844 454.378906 456.550781 C 453.859375 459.136719 453.28125 461.710938 452.640625 464.269531 C 451.996094 466.824219 451.292969 469.367188 450.527344 471.890625 C 449.757812 474.414062 448.929688 476.917969 448.042969 479.398438 C 447.152344 481.882812 446.203125 484.339844 445.191406 486.777344 C 444.183594 489.214844 443.113281 491.625 441.984375 494.007812 C 440.855469 496.390625 439.671875 498.746094 438.425781 501.070312 C 437.183594 503.398438 435.882812 505.691406 434.527344 507.953125 C 433.171875 510.214844 431.761719 512.441406 430.296875 514.632812 C 428.832031 516.828125 427.3125 518.984375 425.742188 521.101562 C 424.171875 523.21875 422.550781 525.296875 420.878906 527.335938 C 419.207031 529.375 417.484375 531.371094 415.714844 533.324219 C 413.941406 535.28125 412.125 537.1875 410.261719 539.054688 C 408.398438 540.917969 406.488281 542.738281 404.535156 544.507812 C 402.582031 546.28125 400.589844 548.003906 398.550781 549.675781 C 396.511719 551.347656 394.4375 552.972656 392.320312 554.542969 C 390.203125 556.113281 388.046875 557.632812 385.855469 559.097656 C 383.664062 560.566406 381.4375 561.976562 379.175781 563.332031 C 376.917969 564.691406 374.625 565.988281 372.300781 567.234375 C 369.976562 568.476562 367.621094 569.664062 365.238281 570.792969 C 362.855469 571.921875 360.449219 572.992188 358.011719 574.003906 C 355.578125 575.011719 353.121094 575.964844 350.640625 576.851562 C 348.15625 577.742188 345.65625 578.570312 343.132812 579.339844 C 340.609375 580.105469 338.070312 580.8125 335.515625 581.453125 C 332.957031 582.097656 330.386719 582.675781 327.800781 583.191406 C 325.21875 583.707031 322.621094 584.160156 320.015625 584.550781 C 317.40625 584.941406 314.792969 585.265625 312.167969 585.527344 C 309.546875 585.785156 306.917969 585.984375 304.285156 586.113281 C 301.652344 586.246094 299.015625 586.3125 296.382812 586.316406 Z M 296.382812 586.316406 " fill-opacity="1" fill-rule="nonzero"/><g clip-path="url(#cb5ec71762)"><path fill="#ffffff" d="M 316.359375 138.304688 C 315.714844 137.632812 315.039062 136.996094 314.332031 136.390625 C 313.621094 135.789062 312.882812 135.21875 312.117188 134.691406 C 311.351562 134.160156 310.5625 133.671875 309.746094 133.222656 C 308.933594 132.773438 308.097656 132.367188 307.242188 132 C 306.382812 131.636719 305.511719 131.3125 304.625 131.035156 C 303.734375 130.757812 302.835938 130.527344 301.921875 130.339844 C 301.011719 130.15625 300.09375 130.015625 299.167969 129.921875 C 298.242188 129.828125 297.3125 129.78125 296.382812 129.78125 C 295.449219 129.78125 294.523438 129.828125 293.597656 129.921875 C 292.671875 130.015625 291.75 130.15625 290.839844 130.339844 C 289.925781 130.527344 289.027344 130.757812 288.136719 131.035156 C 287.25 131.3125 286.378906 131.636719 285.523438 132 C 284.664062 132.367188 283.828125 132.773438 283.015625 133.222656 C 282.199219 133.671875 281.410156 134.160156 280.644531 134.691406 C 279.878906 135.21875 279.140625 135.789062 278.433594 136.390625 C 277.722656 136.996094 277.046875 137.632812 276.402344 138.304688 C 259.191406 157.460938 108.410156 328.390625 108.410156 424.925781 C 108.410156 428.003906 108.484375 431.078125 108.636719 434.152344 C 108.785156 437.226562 109.011719 440.296875 109.316406 443.359375 C 109.617188 446.421875 109.992188 449.476562 110.445312 452.519531 C 110.894531 455.566406 111.421875 458.597656 112.019531 461.617188 C 112.621094 464.632812 113.296875 467.636719 114.042969 470.621094 C 114.789062 473.609375 115.609375 476.574219 116.503906 479.519531 C 117.398438 482.464844 118.363281 485.386719 119.398438 488.285156 C 120.433594 491.183594 121.539062 494.054688 122.71875 496.894531 C 123.894531 499.738281 125.140625 502.554688 126.457031 505.335938 C 127.773438 508.117188 129.15625 510.867188 130.605469 513.582031 C 132.054688 516.296875 133.570312 518.972656 135.152344 521.613281 C 136.734375 524.253906 138.378906 526.851562 140.089844 529.410156 C 141.796875 531.96875 143.570312 534.484375 145.402344 536.957031 C 147.234375 539.429688 149.125 541.855469 151.078125 544.234375 C 153.027344 546.613281 155.039062 548.945312 157.101562 551.226562 C 159.167969 553.507812 161.289062 555.734375 163.464844 557.910156 C 165.640625 560.085938 167.867188 562.210938 170.148438 564.277344 C 172.425781 566.34375 174.753906 568.351562 177.132812 570.304688 C 179.511719 572.257812 181.9375 574.152344 184.40625 575.984375 C 186.878906 577.816406 189.390625 579.589844 191.949219 581.300781 C 194.507812 583.011719 197.105469 584.65625 199.746094 586.238281 C 202.382812 587.820312 205.058594 589.335938 207.773438 590.789062 C 210.484375 592.238281 213.230469 593.621094 216.011719 594.9375 C 218.792969 596.253906 221.605469 597.5 224.449219 598.679688 C 227.289062 599.859375 230.160156 600.964844 233.054688 602 C 235.953125 603.039062 238.871094 604.003906 241.816406 604.898438 C 244.761719 605.789062 247.722656 606.613281 250.707031 607.359375 C 253.691406 608.105469 256.691406 608.78125 259.710938 609.382812 C 262.726562 609.984375 265.757812 610.507812 268.800781 610.960938 C 271.84375 611.410156 274.894531 611.789062 277.957031 612.089844 C 281.019531 612.390625 284.085938 612.617188 287.15625 612.769531 C 290.230469 612.921875 293.304688 612.996094 296.382812 612.996094 C 299.457031 612.996094 302.53125 612.921875 305.605469 612.769531 C 308.675781 612.617188 311.746094 612.390625 314.804688 612.089844 C 317.867188 611.789062 320.917969 611.410156 323.960938 610.960938 C 327.003906 610.507812 330.035156 609.984375 333.050781 609.382812 C 336.070312 608.78125 339.070312 608.105469 342.054688 607.359375 C 345.039062 606.613281 348.003906 605.789062 350.945312 604.898438 C 353.890625 604.003906 356.808594 603.039062 359.707031 602 C 362.601562 600.964844 365.472656 599.859375 368.316406 598.679688 C 371.15625 597.5 373.96875 596.253906 376.75 594.9375 C 379.53125 593.621094 382.277344 592.238281 384.992188 590.789062 C 387.703125 589.335938 390.378906 587.820312 393.019531 586.238281 C 395.65625 584.65625 398.253906 583.011719 400.8125 581.300781 C 403.371094 579.589844 405.886719 577.816406 408.355469 575.984375 C 410.828125 574.152344 413.25 572.257812 415.628906 570.304688 C 418.007812 568.351562 420.335938 566.34375 422.613281 564.277344 C 424.894531 562.210938 427.121094 560.085938 429.296875 557.910156 C 431.472656 555.734375 433.59375 553.507812 435.660156 551.226562 C 437.726562 548.945312 439.734375 546.613281 441.683594 544.234375 C 443.636719 541.855469 445.527344 539.429688 447.359375 536.957031 C 449.195312 534.484375 450.964844 531.96875 452.671875 529.410156 C 454.382812 526.851562 456.027344 524.253906 457.609375 521.613281 C 459.191406 518.972656 460.707031 516.296875 462.15625 513.582031 C 463.605469 510.867188 464.988281 508.117188 466.304688 505.335938 C 467.621094 502.554688 468.867188 499.738281 470.042969 496.894531 C 471.222656 494.050781 472.328125 491.183594 473.363281 488.285156 C 474.402344 485.386719 475.367188 482.464844 476.257812 479.519531 C 477.152344 476.574219 477.972656 473.609375 478.71875 470.621094 C 479.46875 467.636719 480.140625 464.632812 480.742188 461.617188 C 481.339844 458.597656 481.867188 455.566406 482.316406 452.519531 C 482.769531 449.476562 483.144531 446.421875 483.449219 443.359375 C 483.75 440.296875 483.976562 437.226562 484.125 434.152344 C 484.277344 431.078125 484.351562 428.003906 484.351562 424.925781 C 484.351562 328.390625 333.574219 157.460938 316.359375 138.304688 Z M 296.382812 559.261719 C 294.183594 559.257812 291.988281 559.203125 289.796875 559.089844 C 287.601562 558.980469 285.410156 558.816406 283.226562 558.601562 C 281.039062 558.382812 278.859375 558.109375 276.6875 557.785156 C 274.515625 557.460938 272.351562 557.085938 270.199219 556.652344 C 268.042969 556.222656 265.902344 555.738281 263.773438 555.203125 C 261.640625 554.667969 259.527344 554.082031 257.425781 553.441406 C 255.324219 552.800781 253.238281 552.109375 251.171875 551.367188 C 249.101562 550.625 247.054688 549.835938 245.023438 548.992188 C 242.996094 548.148438 240.988281 547.257812 239.003906 546.316406 C 237.019531 545.378906 235.058594 544.386719 233.121094 543.351562 C 231.183594 542.316406 229.273438 541.230469 227.390625 540.101562 C 225.507812 538.96875 223.652344 537.792969 221.824219 536.570312 C 220 535.351562 218.203125 534.085938 216.441406 532.773438 C 214.675781 531.464844 212.945312 530.113281 211.246094 528.71875 C 209.550781 527.324219 207.886719 525.890625 206.257812 524.414062 C 204.632812 522.9375 203.042969 521.421875 201.488281 519.867188 C 199.933594 518.3125 198.421875 516.722656 196.945312 515.09375 C 195.46875 513.464844 194.035156 511.800781 192.640625 510.105469 C 191.25 508.40625 189.898438 506.671875 188.585938 504.90625 C 187.277344 503.144531 186.015625 501.347656 184.792969 499.519531 C 183.570312 497.691406 182.398438 495.835938 181.265625 493.953125 C 180.136719 492.066406 179.054688 490.15625 178.015625 488.21875 C 176.980469 486.28125 175.992188 484.320312 175.050781 482.332031 C 174.113281 480.347656 173.222656 478.339844 172.378906 476.308594 C 171.539062 474.277344 170.746094 472.230469 170.003906 470.160156 C 169.261719 468.089844 168.574219 466.003906 167.933594 463.902344 C 167.292969 461.800781 166.707031 459.683594 166.171875 457.550781 C 165.636719 455.417969 165.152344 453.277344 164.722656 451.121094 C 164.292969 448.964844 163.914062 446.800781 163.589844 444.628906 C 163.265625 442.453125 162.996094 440.273438 162.777344 438.085938 C 162.558594 435.898438 162.394531 433.710938 162.285156 431.515625 C 162.175781 429.320312 162.117188 427.121094 162.117188 424.925781 C 162.117188 373.6875 237.734375 266.835938 296.382812 197.199219 C 355.027344 266.785156 430.648438 373.636719 430.648438 424.925781 C 430.644531 427.121094 430.585938 429.320312 430.476562 431.515625 C 430.367188 433.710938 430.203125 435.898438 429.984375 438.085938 C 429.769531 440.273438 429.496094 442.453125 429.171875 444.628906 C 428.847656 446.800781 428.46875 448.964844 428.039062 451.121094 C 427.609375 453.277344 427.125 455.417969 426.589844 457.550781 C 426.054688 459.683594 425.46875 461.800781 424.828125 463.902344 C 424.191406 466.003906 423.5 468.089844 422.757812 470.160156 C 422.015625 472.230469 421.226562 474.277344 420.382812 476.308594 C 419.542969 478.339844 418.652344 480.347656 417.710938 482.332031 C 416.769531 484.320312 415.78125 486.28125 414.746094 488.21875 C 413.707031 490.15625 412.625 492.066406 411.496094 493.953125 C 410.367188 495.835938 409.191406 497.691406 407.96875 499.519531 C 406.75 501.347656 405.484375 503.144531 404.175781 504.90625 C 402.867188 506.671875 401.515625 508.40625 400.121094 510.105469 C 398.726562 511.800781 397.292969 513.464844 395.816406 515.09375 C 394.339844 516.722656 392.828125 518.3125 391.273438 519.867188 C 389.722656 521.421875 388.128906 522.9375 386.503906 524.414062 C 384.875 525.890625 383.210938 527.324219 381.515625 528.71875 C 379.816406 530.113281 378.085938 531.464844 376.320312 532.773438 C 374.558594 534.085938 372.761719 535.351562 370.9375 536.570312 C 369.109375 537.792969 367.257812 538.96875 365.371094 540.101562 C 363.488281 541.230469 361.578125 542.316406 359.640625 543.351562 C 357.703125 544.386719 355.742188 545.378906 353.757812 546.316406 C 351.773438 547.257812 349.765625 548.148438 347.738281 548.992188 C 345.707031 549.835938 343.660156 550.625 341.59375 551.367188 C 339.523438 552.109375 337.441406 552.800781 335.339844 553.441406 C 333.238281 554.082031 331.121094 554.667969 328.992188 555.203125 C 326.859375 555.738281 324.71875 556.222656 322.5625 556.652344 C 320.410156 557.085938 318.246094 557.460938 316.074219 557.785156 C 313.902344 558.109375 311.722656 558.382812 309.535156 558.601562 C 307.351562 558.816406 305.160156 558.980469 302.96875 559.09375 C 300.773438 559.203125 298.578125 559.257812 296.382812 559.261719 Z M 296.382812 559.261719 " fill-opacity="1" fill-rule="nonzero"/></g></svg>