<svg xmlns="http://www.w3.org/2000/svg" xmlns:xlink="http://www.w3.org/1999/xlink" width="1000" zoomAndPan="magnify" viewBox="0 0 750 675.000002" height="900" preserveAspectRatio="xMidYMid meet" version="1.0"><defs><clipPath id="f56ffcc1f0"><path d="M 0.554688 0 L 749.445312 0 L 749.445312 674 L 0.554688 674 Z M 0.554688 0 " clip-rule="nonzero"/></clipPath><clipPath id="1696bac1c3"><path d="M 0.554688 0 L 749.445312 0 L 749.445312 674 L 0.554688 674 Z M 0.554688 0 " clip-rule="nonzero"/></clipPath><clipPath id="c598ba6e67"><path d="M 117.570312 0 L 632.429688 0 C 697.054688 0 749.445312 52.390625 749.445312 117.015625 L 749.445312 556.988281 C 749.445312 621.613281 697.054688 674 632.429688 674 L 117.570312 674 C 52.945312 674 0.554688 621.613281 0.554688 556.988281 L 0.554688 117.015625 C 0.554688 52.390625 52.945312 0 117.570312 0 " clip-rule="nonzero"/></clipPath><clipPath id="05818b06e3"><path d="M 113.386719 25.117188 L 636.859375 25.117188 L 636.859375 286.480469 L 113.386719 286.480469 Z M 113.386719 25.117188 " clip-rule="nonzero"/></clipPath><clipPath id="4b5519c950"><path d="M 115 272.089844 L 635 272.089844 L 635 306.539062 L 115 306.539062 Z M 115 272.089844 " clip-rule="nonzero"/></clipPath><clipPath id="49eb951657"><path d="M 375 306.75 L 561.472656 306.75 L 561.472656 576.351562 L 375 576.351562 Z M 375 306.75 " clip-rule="nonzero"/></clipPath></defs><g clip-path="url(#f56ffcc1f0)"><path fill="#ffffff" d="M 0.554688 0 L 749.445312 0 L 749.445312 681.492188 L 0.554688 681.492188 Z M 0.554688 0 " fill-opacity="1" fill-rule="nonzero"/><path fill="#ffffff" d="M 0.554688 0 L 749.445312 0 L 749.445312 674 L 0.554688 674 Z M 0.554688 0 " fill-opacity="1" fill-rule="nonzero"/><path fill="#ffffff" d="M 0.554688 0 L 749.445312 0 L 749.445312 674 L 0.554688 674 Z M 0.554688 0 " fill-opacity="1" fill-rule="nonzero"/></g><g clip-path="url(#1696bac1c3)"><g clip-path="url(#c598ba6e67)"><path fill="#5c9ce5" d="M 0.554688 0 L 749.445312 0 L 749.445312 674 L 0.554688 674 Z M 0.554688 0 " fill-opacity="1" fill-rule="nonzero"/></g></g><g clip-path="url(#05818b06e3)"><path fill="#ffffff" d="M 636.851562 286.476562 L 608.710938 286.476562 C 608.710938 157.855469 503.921875 53.214844 375.121094 53.214844 C 246.316406 53.214844 141.527344 157.855469 141.527344 286.476562 L 113.390625 286.476562 C 113.390625 142.363281 230.800781 25.117188 375.121094 25.117188 C 519.4375 25.117188 636.851562 142.363281 636.851562 286.476562 Z M 636.851562 286.476562 " fill-opacity="1" fill-rule="nonzero"/></g><g clip-path="url(#4b5519c950)"><path fill="#ffffff" d="M 617.507812 272.089844 L 132.457031 272.089844 C 122.890625 272.089844 115.136719 279.804688 115.136719 289.316406 C 115.136719 298.828125 122.890625 306.539062 132.457031 306.539062 L 617.507812 306.539062 C 627.074219 306.539062 634.832031 298.828125 634.832031 289.316406 C 634.832031 279.804688 627.074219 272.089844 617.507812 272.089844 Z M 617.507812 272.089844 " fill-opacity="1" fill-rule="nonzero"/></g><g clip-path="url(#49eb951657)"><path fill="#ffffff" d="M 545.308594 430.75 L 473.964844 310.03125 C 472.769531 308.007812 470.589844 306.765625 468.238281 306.765625 C 465.882812 306.765625 463.703125 308.007812 462.507812 310.03125 L 391.152344 430.769531 C 380.59375 446.25 375.015625 464.363281 375.015625 483.171875 C 375.015625 534.542969 416.835938 576.335938 468.238281 576.335938 C 519.640625 576.335938 561.460938 534.542969 561.460938 483.171875 C 561.460938 464.355469 555.871094 446.226562 545.308594 430.75 Z M 468.238281 563.035156 C 424.171875 563.035156 388.324219 527.210938 388.324219 483.171875 C 388.324219 466.976562 393.144531 451.382812 402.253906 438.105469 C 402.351562 437.96875 402.4375 437.828125 402.523438 437.6875 L 468.238281 326.492188 L 533.949219 437.6875 C 534.019531 437.804688 534.09375 437.921875 534.171875 438.039062 L 534.1875 438.054688 C 534.1875 438.058594 534.191406 438.0625 534.191406 438.066406 C 534.195312 438.070312 534.199219 438.078125 534.203125 438.082031 C 543.328125 451.382812 548.152344 466.976562 548.152344 483.171875 C 548.148438 527.210938 512.300781 563.035156 468.238281 563.035156 Z M 468.238281 563.035156 " fill-opacity="1" fill-rule="nonzero"/></g><path fill="#ffffff" d="M 458.957031 529.921875 C 438.359375 529.921875 421.601562 513.175781 421.601562 492.589844 C 421.601562 488.917969 418.621094 485.941406 414.945312 485.941406 C 411.269531 485.941406 408.292969 488.917969 408.292969 492.589844 C 408.292969 520.507812 431.019531 543.222656 458.957031 543.222656 C 462.632812 543.222656 465.609375 540.246094 465.609375 536.574219 C 465.609375 532.898438 462.632812 529.921875 458.957031 529.921875 Z M 458.957031 529.921875 " fill-opacity="1" fill-rule="nonzero"/></svg>