<svg xmlns="http://www.w3.org/2000/svg" xmlns:xlink="http://www.w3.org/1999/xlink" width="1000" zoomAndPan="magnify" viewBox="0 0 750 675.000002" height="900" preserveAspectRatio="xMidYMid meet" version="1.0"><defs><clipPath id="682f4da703"><path d="M 0.554688 0 L 749.445312 0 L 749.445312 674 L 0.554688 674 Z M 0.554688 0 " clip-rule="nonzero"/></clipPath><clipPath id="c0f2406b4b"><path d="M 0.554688 0 L 749.445312 0 L 749.445312 674 L 0.554688 674 Z M 0.554688 0 " clip-rule="nonzero"/></clipPath><clipPath id="86477dcd2c"><path d="M 117.570312 0 L 632.429688 0 C 697.054688 0 749.445312 52.390625 749.445312 117.015625 L 749.445312 556.988281 C 749.445312 621.613281 697.054688 674 632.429688 674 L 117.570312 674 C 52.945312 674 0.554688 621.613281 0.554688 556.988281 L 0.554688 117.015625 C 0.554688 52.390625 52.945312 0 117.570312 0 " clip-rule="nonzero"/></clipPath><clipPath id="6d21369cbd"><path d="M 67.953125 34 L 682.046875 34 L 682.046875 376 L 67.953125 376 Z M 67.953125 34 " clip-rule="nonzero"/></clipPath></defs><g clip-path="url(#682f4da703)"><path fill="#ffffff" d="M 0.554688 0 L 749.445312 0 L 749.445312 681.492188 L 0.554688 681.492188 Z M 0.554688 0 " fill-opacity="1" fill-rule="nonzero"/><path fill="#ffffff" d="M 0.554688 0 L 749.445312 0 L 749.445312 674 L 0.554688 674 Z M 0.554688 0 " fill-opacity="1" fill-rule="nonzero"/><path fill="#ffffff" d="M 0.554688 0 L 749.445312 0 L 749.445312 674 L 0.554688 674 Z M 0.554688 0 " fill-opacity="1" fill-rule="nonzero"/></g><g clip-path="url(#c0f2406b4b)"><g clip-path="url(#86477dcd2c)"><path fill="#5c9ce5" d="M 0.554688 0 L 749.445312 0 L 749.445312 674 L 0.554688 674 Z M 0.554688 0 " fill-opacity="1" fill-rule="nonzero"/></g></g><g clip-path="url(#6d21369cbd)"><path fill="#ffffff" d="M 545.582031 102.453125 C 531.507812 102.453125 517.945312 104.585938 505.171875 108.542969 C 490.039062 65.300781 448.996094 34.21875 400.585938 34.21875 C 348.664062 34.21875 305.199219 69.972656 293.136719 118.164062 C 280.277344 108.441406 264.445312 102.453125 247.066406 102.453125 C 204.675781 102.453125 170.304688 136.824219 170.304688 179.214844 C 170.304688 189.515625 172.402344 199.308594 176.085938 208.28125 C 168.769531 206.25 161.210938 204.800781 153.246094 204.800781 C 106.128906 204.800781 67.953125 242.976562 67.953125 290.089844 C 67.953125 337.207031 106.128906 375.382812 153.246094 375.382812 L 545.582031 375.382812 C 620.941406 375.382812 682.046875 314.296875 682.046875 238.917969 C 682.046875 163.554688 620.941406 102.453125 545.582031 102.453125 Z M 545.582031 102.453125 " fill-opacity="1" fill-rule="nonzero"/></g><path fill="#ffffff" d="M 272.632812 460.007812 L 270.707031 401.652344 L 221.75 430.785156 C 210.867188 436.671875 203.632812 448.253906 204.078125 461.472656 C 204.710938 480.289062 220.554688 495.179688 239.492188 494.789062 C 258.40625 494.394531 273.265625 478.804688 272.632812 460.007812 Z M 238.875 587.257812 L 236.949219 528.902344 L 187.992188 558.039062 C 177.109375 563.925781 169.875 575.507812 170.320312 588.726562 C 170.953125 607.542969 186.796875 622.433594 205.734375 622.039062 C 224.667969 621.648438 239.507812 606.058594 238.875 587.257812 Z M 153.585938 511.179688 L 151.660156 452.824219 L 102.703125 481.960938 C 91.820312 487.84375 84.585938 499.425781 85.03125 512.648438 C 85.660156 531.445312 101.507812 546.335938 120.441406 545.960938 C 139.378906 545.570312 154.21875 529.980469 153.585938 511.179688 Z M 460.632812 460.007812 L 458.703125 401.652344 L 409.765625 430.785156 C 398.863281 436.671875 391.648438 448.253906 392.09375 461.472656 C 392.722656 480.289062 408.570312 495.179688 427.503906 494.789062 C 446.421875 494.394531 461.261719 478.804688 460.632812 460.007812 Z M 357.925781 528.238281 L 355.996094 469.882812 L 307.058594 499.019531 C 296.15625 504.902344 288.941406 516.484375 289.386719 529.707031 C 290.015625 548.519531 305.863281 563.414062 324.796875 563.019531 C 343.714844 562.628906 358.554688 547.035156 357.925781 528.238281 Z M 443.574219 604.316406 L 441.628906 545.960938 L 392.6875 575.097656 C 381.789062 580.980469 374.574219 592.566406 375.015625 605.785156 C 375.648438 624.601562 391.496094 639.492188 410.429688 639.097656 C 429.363281 638.707031 444.203125 623.117188 443.574219 604.316406 Z M 562.621094 511.179688 L 560.695312 452.824219 L 511.753906 481.960938 C 500.855469 487.84375 493.640625 499.425781 494.082031 512.648438 C 494.714844 531.460938 510.558594 546.355469 529.496094 545.960938 C 548.414062 545.570312 563.253906 529.980469 562.621094 511.179688 Z M 562.621094 511.179688 " fill-opacity="1" fill-rule="nonzero"/></svg>