<svg xmlns="http://www.w3.org/2000/svg" xmlns:xlink="http://www.w3.org/1999/xlink" width="1000" zoomAndPan="magnify" viewBox="0 0 750 675.000002" height="900" preserveAspectRatio="xMidYMid meet" version="1.0"><defs><clipPath id="527793b4cc"><path d="M 0.554688 0 L 749.445312 0 L 749.445312 674 L 0.554688 674 Z M 0.554688 0 " clip-rule="nonzero"/></clipPath><clipPath id="b3e4ba2a54"><path d="M 0.554688 0 L 749.445312 0 L 749.445312 674 L 0.554688 674 Z M 0.554688 0 " clip-rule="nonzero"/></clipPath><clipPath id="ab73882d43"><path d="M 117.570312 0 L 632.429688 0 C 697.054688 0 749.445312 52.390625 749.445312 117.015625 L 749.445312 556.988281 C 749.445312 621.613281 697.054688 674 632.429688 674 L 117.570312 674 C 52.945312 674 0.554688 621.613281 0.554688 556.988281 L 0.554688 117.015625 C 0.554688 52.390625 52.945312 0 117.570312 0 " clip-rule="nonzero"/></clipPath><clipPath id="51d72e2b56"><path d="M 347 44.589844 L 374 44.589844 L 374 128 L 347 128 Z M 347 44.589844 " clip-rule="nonzero"/></clipPath><clipPath id="618bb5939d"><path d="M 347 546 L 374 546 L 374 629.476562 L 347 629.476562 Z M 347 546 " clip-rule="nonzero"/></clipPath><clipPath id="4a4301fef6"><path d="M 67.953125 324 L 151 324 L 151 351 L 67.953125 351 Z M 67.953125 324 " clip-rule="nonzero"/></clipPath><clipPath id="eb26f2d19f"><path d="M 569 324 L 652.839844 324 L 652.839844 351 L 569 351 Z M 569 324 " clip-rule="nonzero"/></clipPath></defs><g clip-path="url(#527793b4cc)"><path fill="#ffffff" d="M 0.554688 0 L 749.445312 0 L 749.445312 681.492188 L 0.554688 681.492188 Z M 0.554688 0 " fill-opacity="1" fill-rule="nonzero"/><path fill="#ffffff" d="M 0.554688 0 L 749.445312 0 L 749.445312 674 L 0.554688 674 Z M 0.554688 0 " fill-opacity="1" fill-rule="nonzero"/><path fill="#ffffff" d="M 0.554688 0 L 749.445312 0 L 749.445312 674 L 0.554688 674 Z M 0.554688 0 " fill-opacity="1" fill-rule="nonzero"/></g><g clip-path="url(#b3e4ba2a54)"><g clip-path="url(#ab73882d43)"><path fill="#5c9ce5" d="M 0.554688 0 L 749.445312 0 L 749.445312 674 L 0.554688 674 Z M 0.554688 0 " fill-opacity="1" fill-rule="nonzero"/></g></g><g clip-path="url(#51d72e2b56)"><path fill="#ffffff" d="M 347.371094 57.613281 C 347.371094 54.15625 348.746094 50.84375 351.183594 48.402344 C 353.625 45.964844 356.9375 44.589844 360.398438 44.589844 C 363.855469 44.589844 367.167969 45.964844 369.609375 48.402344 C 372.046875 50.84375 373.421875 54.15625 373.421875 57.613281 L 373.421875 114.574219 C 373.421875 118.023438 372.046875 121.335938 369.609375 123.777344 C 367.167969 126.226562 363.855469 127.601562 360.398438 127.601562 C 356.9375 127.601562 353.625 126.226562 351.183594 123.777344 C 348.746094 121.335938 347.371094 118.023438 347.371094 114.574219 Z M 347.371094 57.613281 " fill-opacity="1" fill-rule="nonzero"/></g><g clip-path="url(#618bb5939d)"><path fill="#ffffff" d="M 347.371094 559.488281 C 347.371094 556.042969 348.746094 552.730469 351.183594 550.289062 C 353.625 547.839844 356.9375 546.464844 360.398438 546.464844 C 363.855469 546.464844 367.167969 547.839844 369.609375 550.289062 C 372.046875 552.730469 373.421875 556.042969 373.421875 559.488281 L 373.421875 616.449219 C 373.421875 619.910156 372.046875 623.222656 369.609375 625.664062 C 367.167969 628.101562 363.855469 629.476562 360.398438 629.476562 C 356.9375 629.476562 353.625 628.101562 351.183594 625.664062 C 348.746094 623.222656 347.371094 619.910156 347.371094 616.449219 Z M 347.371094 559.488281 " fill-opacity="1" fill-rule="nonzero"/></g><g clip-path="url(#4a4301fef6)"><path fill="#ffffff" d="M 80.980469 350.058594 C 77.519531 350.058594 74.207031 348.683594 71.765625 346.246094 C 69.328125 343.804688 67.953125 340.492188 67.953125 337.03125 C 67.953125 333.574219 69.328125 330.261719 71.765625 327.820312 C 74.207031 325.382812 77.519531 324.007812 80.980469 324.007812 L 137.941406 324.007812 C 141.386719 324.007812 144.699219 325.382812 147.140625 327.820312 C 149.589844 330.261719 150.964844 333.574219 150.964844 337.03125 C 150.964844 340.492188 149.589844 343.804688 147.140625 346.246094 C 144.699219 348.683594 141.386719 350.058594 137.941406 350.058594 Z M 80.980469 350.058594 " fill-opacity="1" fill-rule="nonzero"/></g><g clip-path="url(#eb26f2d19f)"><path fill="#ffffff" d="M 582.855469 350.058594 C 579.410156 350.058594 576.09375 348.683594 573.652344 346.246094 C 571.203125 343.804688 569.828125 340.492188 569.828125 337.03125 C 569.828125 333.574219 571.203125 330.261719 573.652344 327.820312 C 576.09375 325.382812 579.410156 324.007812 582.855469 324.007812 L 639.816406 324.007812 C 643.273438 324.007812 646.585938 325.382812 649.027344 327.820312 C 651.464844 330.261719 652.839844 333.574219 652.839844 337.03125 C 652.839844 340.492188 651.464844 343.804688 649.027344 346.246094 C 646.585938 348.683594 643.273438 350.058594 639.816406 350.058594 Z M 582.855469 350.058594 " fill-opacity="1" fill-rule="nonzero"/></g><path fill="#ffffff" d="M 153.605469 148.664062 C 151.164062 146.222656 149.792969 142.910156 149.792969 139.453125 C 149.792969 136.007812 151.164062 132.691406 153.605469 130.238281 C 156.054688 127.800781 159.371094 126.425781 162.816406 126.425781 C 166.273438 126.425781 169.585938 127.800781 172.027344 130.238281 L 212.304688 170.519531 C 214.742188 172.957031 216.117188 176.273438 216.117188 179.730469 C 216.117188 183.1875 214.742188 186.503906 212.304688 188.941406 C 209.867188 191.378906 206.550781 192.753906 203.09375 192.753906 C 199.636719 192.753906 196.320312 191.378906 193.882812 188.941406 Z M 153.605469 148.664062 " fill-opacity="1" fill-rule="nonzero"/><path fill="#ffffff" d="M 508.488281 503.546875 C 506.050781 501.109375 504.675781 497.792969 504.675781 494.335938 C 504.675781 490.878906 506.050781 487.5625 508.488281 485.125 C 510.925781 482.6875 514.242188 481.3125 517.699219 481.3125 C 521.15625 481.3125 524.472656 482.6875 526.910156 485.125 L 567.191406 525.402344 C 569.628906 527.84375 571.003906 531.15625 571.003906 534.613281 C 571.003906 538.058594 569.628906 541.375 567.191406 543.824219 C 564.738281 546.265625 561.421875 547.636719 557.976562 547.636719 C 554.519531 547.636719 551.207031 546.265625 548.765625 543.824219 Z M 508.488281 503.546875 " fill-opacity="1" fill-rule="nonzero"/><path fill="#ffffff" d="M 172.027344 543.824219 C 169.585938 546.265625 166.273438 547.636719 162.816406 547.636719 C 159.371094 547.636719 156.054688 546.265625 153.605469 543.824219 C 151.164062 541.375 149.792969 538.058594 149.792969 534.613281 C 149.792969 531.15625 151.164062 527.84375 153.605469 525.402344 L 193.882812 485.125 C 196.320312 482.6875 199.636719 481.3125 203.09375 481.3125 C 206.550781 481.3125 209.867188 482.6875 212.304688 485.125 C 214.742188 487.5625 216.117188 490.878906 216.117188 494.335938 C 216.117188 497.792969 214.742188 501.109375 212.304688 503.546875 Z M 172.027344 543.824219 " fill-opacity="1" fill-rule="nonzero"/><path fill="#ffffff" d="M 567.191406 148.664062 L 526.910156 188.941406 C 524.472656 191.378906 521.15625 192.753906 517.699219 192.753906 C 514.242188 192.753906 510.925781 191.378906 508.488281 188.941406 C 506.050781 186.503906 504.675781 183.1875 504.675781 179.730469 C 504.675781 176.273438 506.050781 172.957031 508.488281 170.519531 L 548.765625 130.238281 C 551.207031 127.800781 554.519531 126.425781 557.976562 126.425781 C 561.421875 126.425781 564.738281 127.800781 567.191406 130.238281 C 569.628906 132.691406 571.003906 136.007812 571.003906 139.453125 C 571.003906 142.910156 569.628906 146.222656 567.191406 148.664062 Z M 567.191406 148.664062 " fill-opacity="1" fill-rule="nonzero"/><path fill="#ffffff" d="M 188.71875 337.03125 C 188.707031 314.085938 193.289062 291.367188 202.21875 270.234375 C 210.859375 249.84375 223.363281 231.316406 239.027344 215.664062 C 254.679688 200 273.207031 187.496094 293.597656 178.867188 C 314.730469 169.9375 337.449219 165.34375 360.398438 165.355469 C 383.34375 165.34375 406.0625 169.9375 427.195312 178.867188 C 447.585938 187.496094 466.113281 200 481.765625 215.664062 C 497.429688 231.316406 509.933594 249.84375 518.5625 270.234375 C 527.492188 291.367188 532.085938 314.085938 532.074219 337.03125 C 532.085938 359.980469 527.492188 382.699219 518.5625 403.832031 C 509.933594 424.222656 497.429688 442.75 481.765625 458.402344 C 466.113281 474.066406 447.585938 486.570312 427.195312 495.199219 C 406.0625 504.128906 383.34375 508.722656 360.398438 508.710938 C 337.449219 508.722656 314.730469 504.128906 293.597656 495.199219 C 273.207031 486.570312 254.679688 474.066406 239.027344 458.402344 C 223.363281 442.75 210.859375 424.222656 202.230469 403.832031 C 193.300781 382.699219 188.707031 359.980469 188.71875 337.03125 Z M 214.769531 337.03125 C 214.757812 317.570312 218.640625 298.304688 226.214844 280.367188 C 233.546875 263.082031 244.152344 247.359375 257.4375 234.074219 C 270.722656 220.789062 286.445312 210.183594 303.742188 202.851562 C 321.667969 195.277344 340.933594 191.390625 360.398438 191.402344 C 379.859375 191.390625 399.125 195.277344 417.050781 202.851562 C 434.347656 210.183594 450.070312 220.789062 463.355469 234.074219 C 476.640625 247.359375 487.246094 263.082031 494.578125 280.378906 C 502.152344 298.304688 506.039062 317.570312 506.027344 337.03125 C 506.039062 356.496094 502.152344 375.761719 494.578125 393.6875 C 487.246094 410.984375 476.640625 426.707031 463.355469 439.992188 C 450.070312 453.277344 434.347656 463.882812 417.050781 471.214844 C 399.125 478.789062 379.859375 482.675781 360.398438 482.660156 C 340.933594 482.675781 321.667969 478.789062 303.742188 471.214844 C 286.445312 463.882812 270.722656 453.277344 257.4375 439.992188 C 244.152344 426.707031 233.546875 410.984375 226.214844 393.6875 C 218.640625 375.761719 214.757812 356.496094 214.769531 337.03125 Z M 214.769531 337.03125 " fill-opacity="1" fill-rule="evenodd"/></svg>