<svg xmlns="http://www.w3.org/2000/svg" xmlns:xlink="http://www.w3.org/1999/xlink" width="1280" zoomAndPan="magnify" viewBox="0 0 960 540.000001" height="720" preserveAspectRatio="xMidYMid meet" version="1.0"><defs><clipPath id="224ed84fa3"><path d="M 210.335938 161.605469 L 925.632812 161.605469 L 925.632812 538.914062 L 210.335938 538.914062 Z M 210.335938 161.605469 " clip-rule="nonzero"/></clipPath><clipPath id="860f783364"><path d="M 541.800781 0.0195312 L 625.261719 0.0195312 L 625.261719 293.175781 L 541.800781 293.175781 Z M 541.800781 0.0195312 " clip-rule="nonzero"/></clipPath></defs><g clip-path="url(#224ed84fa3)"><path fill="#ffffff" d="M 741.996094 523.914062 C 743.585938 514.757812 744.382812 505.421875 744.382812 496.089844 C 744.382812 407.050781 671.949219 334.597656 582.90625 334.597656 C 493.863281 334.597656 421.425781 407.050781 421.425781 496.089844 C 421.425781 505.421875 422.222656 514.757812 423.8125 523.914062 Z M 925.632812 531.210938 C 925.632812 535.246094 922.371094 538.523438 918.335938 538.523438 L 217.628906 538.523438 C 213.59375 538.523438 210.335938 535.246094 210.335938 531.210938 C 210.335938 527.195312 213.59375 523.914062 217.628906 523.914062 L 409.027344 523.914062 C 407.574219 514.738281 406.816406 505.421875 406.816406 496.089844 C 406.816406 398.996094 485.808594 319.988281 582.90625 319.988281 C 680 319.988281 758.992188 398.996094 758.992188 496.089844 C 758.992188 505.421875 758.238281 514.738281 756.800781 523.914062 L 918.335938 523.914062 C 922.371094 523.914062 925.632812 527.195312 925.632812 531.210938 Z M 749.097656 368.070312 C 750.457031 370.359375 752.882812 371.640625 755.382812 371.640625 C 756.644531 371.640625 757.925781 371.308594 759.109375 370.609375 L 807.035156 342.148438 C 810.492188 340.089844 811.636719 335.609375 809.578125 332.132812 C 807.503906 328.679688 803.039062 327.554688 799.566406 329.59375 L 751.640625 358.058594 C 748.1875 360.132812 747.039062 364.597656 749.097656 368.070312 Z M 800.535156 483.613281 C 796.578125 483.167969 792.96875 486.175781 792.601562 490.210938 C 792.230469 494.207031 795.179688 497.757812 799.199219 498.128906 L 854.710938 503.269531 C 854.925781 503.289062 855.15625 503.308594 855.390625 503.308594 C 859.117188 503.308594 862.296875 500.457031 862.648438 496.671875 C 863.015625 492.65625 860.066406 489.105469 856.050781 488.738281 Z M 311.117188 488.890625 C 307.101562 488.445312 303.53125 491.472656 303.160156 495.488281 C 302.792969 499.484375 305.742188 503.035156 309.757812 503.425781 L 365.273438 508.546875 C 365.507812 508.566406 365.71875 508.585938 365.953125 508.585938 C 369.679688 508.585938 372.859375 505.734375 373.210938 501.949219 C 373.578125 497.933594 370.628906 494.382812 366.613281 494.015625 Z M 399.5 378.253906 C 400.878906 379.457031 402.605469 380.058594 404.3125 380.058594 C 406.332031 380.058594 408.347656 379.226562 409.804688 377.578125 C 412.460938 374.550781 412.152344 369.953125 409.125 367.273438 L 367.253906 330.503906 C 364.226562 327.847656 359.605469 328.136719 356.949219 331.164062 C 354.289062 334.210938 354.582031 338.808594 357.609375 341.46875 Z M 503.796875 292.960938 C 504.554688 296.335938 507.558594 298.644531 510.898438 298.644531 C 511.441406 298.644531 511.984375 298.585938 512.507812 298.46875 C 516.449219 297.578125 518.910156 293.679688 518.039062 289.738281 L 505.753906 235.371094 C 504.863281 231.433594 500.945312 228.988281 497.042969 229.859375 C 493.105469 230.734375 490.640625 234.652344 491.511719 238.574219 Z M 642.125 294.824219 C 643.054688 295.230469 644.027344 295.425781 644.996094 295.425781 C 647.828125 295.425781 650.527344 293.773438 651.710938 291.019531 L 673.734375 239.816406 C 675.324219 236.109375 673.617188 231.820312 669.910156 230.230469 C 666.203125 228.621094 661.917969 230.347656 660.324219 234.050781 L 638.300781 285.238281 C 636.710938 288.945312 638.417969 293.230469 642.125 294.824219 Z M 700.839844 333.746094 C 702.140625 334.695312 703.652344 335.140625 705.128906 335.140625 C 707.398438 335.140625 709.609375 334.09375 711.046875 332.132812 L 781.035156 235.796875 C 783.402344 232.539062 782.683594 227.980469 779.425781 225.613281 C 776.144531 223.226562 771.605469 223.960938 769.21875 227.222656 L 699.230469 323.558594 C 696.863281 326.816406 697.601562 331.378906 700.839844 333.746094 Z M 773.738281 434.078125 C 774.75 437.164062 777.601562 439.125 780.6875 439.125 C 781.425781 439.125 782.179688 439.007812 782.9375 438.753906 L 896.195312 401.964844 C 900.019531 400.722656 902.113281 396.589844 900.875 392.769531 C 899.632812 388.925781 895.519531 386.832031 891.675781 388.074219 L 778.417969 424.882812 C 774.59375 426.125 772.5 430.238281 773.738281 434.078125 Z M 269.613281 401.964844 L 382.871094 438.753906 C 383.628906 439.007812 384.386719 439.125 385.125 439.125 C 388.207031 439.125 391.0625 437.164062 392.070312 434.078125 C 393.3125 430.238281 391.214844 426.125 387.394531 424.882812 L 274.132812 388.074219 C 270.3125 386.851562 266.179688 388.925781 264.9375 392.769531 C 263.695312 396.589844 265.789062 400.722656 269.613281 401.964844 Z M 454.761719 332.132812 C 456.199219 334.09375 458.429688 335.140625 460.679688 335.140625 C 462.175781 335.140625 463.667969 334.695312 464.96875 333.746094 C 468.230469 331.378906 468.945312 326.816406 466.578125 323.558594 L 396.589844 227.222656 C 394.222656 223.960938 389.664062 223.246094 386.382812 225.613281 C 383.125 227.980469 382.40625 232.539062 384.773438 235.796875 Z M 575.609375 288.128906 L 575.609375 169.050781 C 575.609375 165.015625 578.867188 161.757812 582.90625 161.757812 C 586.941406 161.757812 590.199219 165.015625 590.199219 169.050781 L 590.199219 288.128906 C 590.199219 292.164062 586.941406 295.425781 582.90625 295.425781 C 578.867188 295.425781 575.609375 292.164062 575.609375 288.128906 " fill-opacity="1" fill-rule="nonzero"/></g><g clip-path="url(#860f783364)"><path fill="#ffffff" d="M 620.398438 94.472656 C 615.074219 92.152344 609.386719 90.15625 604.75 88.976562 C 601.113281 88.050781 593.664062 86.757812 591.957031 86.757812 L 590.707031 86.757812 L 590.707031 293.050781 L 576.367188 293.050781 L 576.367188 86.757812 L 575.117188 86.757812 C 573.414062 86.757812 565.960938 88.050781 562.324219 88.976562 C 557.6875 90.15625 552 92.152344 546.675781 94.472656 C 544 95.640625 541.804688 96.566406 541.804688 96.53125 C 541.804688 96.054688 583.261719 0.257812 583.492188 0.191406 C 583.722656 0.125 625.269531 95.929688 625.269531 96.527344 C 625.269531 96.5625 623.078125 95.640625 620.398438 94.472656 Z M 620.398438 94.472656 " fill-opacity="1" fill-rule="nonzero"/></g></svg>