<svg xmlns="http://www.w3.org/2000/svg" xmlns:xlink="http://www.w3.org/1999/xlink" width="1280" zoomAndPan="magnify" viewBox="0 0 960 540.000001" height="720" preserveAspectRatio="xMidYMid meet" version="1.0"><defs><clipPath id="10d60a0e6d"><path d="M 210.335938 161.605469 L 926.007812 161.605469 L 926.007812 538.910156 L 210.335938 538.910156 Z M 210.335938 161.605469 " clip-rule="nonzero"/></clipPath><clipPath id="57dde8ce2d"><path d="M 541.890625 17.265625 L 624.984375 17.265625 L 624.984375 310.722656 L 541.890625 310.722656 Z M 541.890625 17.265625 " clip-rule="nonzero"/></clipPath></defs><g clip-path="url(#10d60a0e6d)"><path fill="#ffffff" d="M 742.277344 523.910156 C 743.867188 514.753906 744.664062 505.421875 744.664062 496.085938 C 744.664062 407.046875 672.191406 334.597656 583.101562 334.597656 C 494.011719 334.597656 421.539062 407.046875 421.539062 496.085938 C 421.539062 505.421875 422.335938 514.753906 423.925781 523.910156 Z M 926.007812 531.207031 C 926.007812 535.242188 922.746094 538.523438 918.710938 538.523438 L 217.632812 538.523438 C 213.597656 538.523438 210.335938 535.242188 210.335938 531.207031 C 210.335938 527.191406 213.597656 523.910156 217.632812 523.910156 L 409.132812 523.910156 C 407.675781 514.734375 406.921875 505.421875 406.921875 496.085938 C 406.921875 398.996094 485.953125 319.984375 583.101562 319.984375 C 680.25 319.984375 759.28125 398.996094 759.28125 496.085938 C 759.28125 505.421875 758.523438 514.734375 757.089844 523.910156 L 918.710938 523.910156 C 922.746094 523.910156 926.007812 527.191406 926.007812 531.207031 Z M 749.382812 368.066406 C 750.742188 370.355469 753.167969 371.636719 755.671875 371.636719 C 756.933594 371.636719 758.214844 371.304688 759.398438 370.609375 L 807.351562 342.144531 C 810.808594 340.085938 811.953125 335.605469 809.894531 332.132812 C 807.816406 328.679688 803.351562 327.550781 799.878906 329.589844 L 751.925781 358.054688 C 748.46875 360.128906 747.324219 364.59375 749.382812 368.066406 Z M 800.847656 483.609375 C 796.886719 483.164062 793.277344 486.171875 792.90625 490.207031 C 792.539062 494.207031 795.488281 497.757812 799.507812 498.125 L 855.050781 503.265625 C 855.265625 503.285156 855.496094 503.304688 855.730469 503.304688 C 859.457031 503.304688 862.640625 500.453125 862.992188 496.667969 C 863.359375 492.652344 860.410156 489.101562 856.390625 488.734375 Z M 311.171875 488.890625 C 307.152344 488.441406 303.578125 491.46875 303.210938 495.484375 C 302.84375 499.484375 305.792969 503.035156 309.8125 503.421875 L 365.355469 508.542969 C 365.585938 508.5625 365.800781 508.582031 366.035156 508.582031 C 369.761719 508.582031 372.945312 505.730469 373.296875 501.945312 C 373.664062 497.929688 370.714844 494.378906 366.695312 494.011719 Z M 399.601562 378.253906 C 400.980469 379.457031 402.707031 380.058594 404.414062 380.058594 C 406.433594 380.058594 408.453125 379.222656 409.910156 377.574219 C 412.570312 374.546875 412.257812 369.949219 409.230469 367.269531 L 367.335938 330.5 C 364.304688 327.84375 359.6875 328.132812 357.027344 331.160156 C 354.367188 334.207031 354.65625 338.804688 357.6875 341.464844 Z M 503.949219 292.957031 C 504.707031 296.332031 507.71875 298.640625 511.054688 298.640625 C 511.601562 298.640625 512.144531 298.582031 512.667969 298.46875 C 516.609375 297.574219 519.074219 293.675781 518.199219 289.734375 L 505.910156 235.367188 C 505.019531 231.429688 501.097656 228.984375 497.195312 229.859375 C 493.253906 230.730469 490.789062 234.652344 491.660156 238.570312 Z M 642.351562 294.820312 C 643.285156 295.226562 644.253906 295.421875 645.226562 295.421875 C 648.058594 295.421875 650.757812 293.773438 651.941406 291.015625 L 673.976562 239.8125 C 675.570312 236.105469 673.859375 231.816406 670.152344 230.226562 C 666.445312 228.617188 662.15625 230.34375 660.5625 234.050781 L 638.527344 285.234375 C 636.9375 288.941406 638.644531 293.226562 642.351562 294.820312 Z M 701.097656 333.742188 C 702.398438 334.691406 703.914062 335.140625 705.390625 335.140625 C 707.660156 335.140625 709.875 334.089844 711.3125 332.132812 L 781.335938 235.796875 C 783.707031 232.535156 782.988281 227.976562 779.726562 225.609375 C 776.445312 223.222656 771.902344 223.960938 769.511719 227.21875 L 699.488281 323.554688 C 697.121094 326.816406 697.855469 331.375 701.097656 333.742188 Z M 774.035156 434.074219 C 775.046875 437.160156 777.902344 439.121094 780.988281 439.121094 C 781.726562 439.121094 782.480469 439.003906 783.238281 438.75 L 896.558594 401.964844 C 900.382812 400.722656 902.480469 396.589844 901.238281 392.765625 C 899.996094 388.925781 895.878906 386.828125 892.035156 388.070312 L 778.714844 424.878906 C 774.890625 426.121094 772.792969 430.234375 774.035156 434.074219 Z M 269.644531 401.964844 L 382.964844 438.75 C 383.71875 439.003906 384.476562 439.121094 385.214844 439.121094 C 388.300781 439.121094 391.15625 437.160156 392.164062 434.074219 C 393.40625 430.234375 391.3125 426.121094 387.488281 424.878906 L 274.167969 388.070312 C 270.34375 386.847656 266.207031 388.925781 264.964844 392.765625 C 263.722656 396.589844 265.820312 400.722656 269.644531 401.964844 Z M 454.890625 332.132812 C 456.328125 334.089844 458.5625 335.140625 460.8125 335.140625 C 462.308594 335.140625 463.800781 334.691406 465.101562 333.742188 C 468.363281 331.375 469.082031 326.816406 466.714844 323.554688 L 396.6875 227.21875 C 394.320312 223.960938 389.757812 223.242188 386.476562 225.609375 C 383.214844 227.976562 382.496094 232.535156 384.867188 235.796875 Z M 575.800781 288.125 L 575.800781 169.050781 C 575.800781 165.011719 579.0625 161.753906 583.101562 161.753906 C 587.140625 161.753906 590.402344 165.011719 590.402344 169.050781 L 590.402344 288.125 C 590.402344 292.160156 587.140625 295.421875 583.101562 295.421875 C 579.0625 295.421875 575.800781 292.160156 575.800781 288.125 " fill-opacity="1" fill-rule="nonzero"/></g><g clip-path="url(#57dde8ce2d)"><path fill="#ffffff" d="M 546.730469 216.175781 C 552.03125 218.5 557.691406 220.5 562.308594 221.679688 C 565.933594 222.609375 573.351562 223.902344 575.046875 223.902344 L 576.292969 223.902344 L 576.292969 17.378906 L 590.566406 17.378906 L 590.566406 223.902344 L 591.8125 223.902344 C 593.507812 223.902344 600.929688 222.609375 604.550781 221.679688 C 609.167969 220.5 614.828125 218.5 620.128906 216.175781 C 622.796875 215.007812 624.976562 214.082031 624.976562 214.117188 C 624.976562 214.59375 583.703125 310.496094 583.472656 310.5625 C 583.246094 310.628906 541.882812 214.71875 541.882812 214.121094 C 541.882812 214.082031 544.066406 215.007812 546.730469 216.179688 Z M 546.730469 216.175781 " fill-opacity="1" fill-rule="nonzero"/></g></svg>