<svg xmlns="http://www.w3.org/2000/svg" xmlns:xlink="http://www.w3.org/1999/xlink" width="320" zoomAndPan="magnify" viewBox="0 0 240 359.999987" height="480" preserveAspectRatio="xMidYMid meet" version="1.0"><defs><clipPath id="4b85baf430"><path d="M 0 60.007812 L 240 60.007812 L 240 287 L 0 287 Z M 0 60.007812 " clip-rule="nonzero"/></clipPath></defs><path fill="#c45b52" d="M 161.625 220.1875 L 127.292969 218.742188 C 127.292969 218.742188 82.925781 234.742188 67.363281 210.53125 C 47.820312 180.132812 69.410156 164.074219 81.058594 155.507812 C 90.242188 148.75 88.242188 133.996094 87.226562 123.957031 C 84.972656 101.667969 91.714844 84.75 104.324219 76.613281 C 119.515625 66.808594 134.160156 71.722656 134.160156 71.722656 C 134.160156 71.722656 150.125 69.644531 159.484375 84.320312 C 165.863281 94.328125 168.132812 107.734375 168.792969 121.773438 C 171.238281 173.691406 190.976562 159.351562 194.117188 188.003906 C 196.800781 212.496094 161.625 220.1875 161.625 220.1875 Z M 161.625 220.1875 " fill-opacity="1" fill-rule="nonzero"/><path fill="#feac7c" d="M 265.203125 298.472656 L 265.449219 288.414062 C 265.472656 287.5625 264.632812 286.863281 263.589844 286.859375 L -3.097656 285.308594 C -4.167969 285.300781 -5.027344 286.023438 -4.988281 286.890625 L -4.488281 297.464844 C -4.449219 298.28125 -3.625 298.925781 -2.621094 298.929688 L 263.320312 299.964844 C 264.34375 299.96875 265.183594 299.304688 265.203125 298.472656 Z M 42.167969 237.648438 C 37.089844 238.179688 29.390625 248.65625 36.1875 259.585938 C 36.546875 260.8125 37.023438 262.207031 37.550781 263.507812 C 38.476562 264.714844 41.320312 267.828125 46.714844 268.804688 C 53.457031 270.023438 62.535156 270.210938 65.984375 266.695312 C 68.757812 263.867188 65.675781 260.691406 64.023438 259.617188 C 63.796875 259.476562 62.761719 258.078125 62.539062 257.957031 C 59.847656 251.386719 54.191406 241.734375 49.933594 241.273438 C 47.742188 237.585938 44.570312 237.398438 42.167969 237.648438 Z M 109.007812 161.871094 C 110.054688 165.277344 118.429688 171.828125 132.558594 171.042969 C 146.691406 170.253906 154.019531 164.226562 155.328125 159.511719 C 150.707031 158.550781 146.691406 155.972656 146.5625 150.46875 C 146.5625 150.46875 146.09375 133.414062 148.125 127.988281 C 155.765625 130.195312 159.679688 117.703125 154.75 114.675781 C 150.8125 112.261719 148.273438 115.3125 148.273438 115.3125 C 138.054688 119.285156 128.765625 93.742188 128.765625 89.671875 C 124.710938 98.1875 114.765625 109.632812 97.785156 115.3125 C 98.179688 120.386719 98.367188 126.53125 100.582031 131.210938 C 107.4375 145.710938 119.84375 144.945312 119.84375 144.945312 C 119.84375 144.945312 119.949219 146.6875 120.078125 152.347656 C 120.078125 155.753906 117.46875 159.6875 109.007812 161.871094 Z M 197.351562 159.9375 C 198.488281 158.804688 201.46875 159.800781 202.792969 167.320312 C 203.058594 166.8125 203.40625 166.242188 203.816406 165.640625 C 203.894531 164.617188 203.957031 163.449219 203.96875 162.15625 C 204.015625 157.308594 200.515625 150.589844 202.621094 147.992188 C 204.746094 145.378906 207.167969 151.457031 208.332031 153.875 C 209 155.253906 209.328125 156.777344 209.496094 159.417969 C 211.15625 158.121094 212.707031 157.457031 213.738281 157.984375 C 217.695312 160.015625 215.015625 168.316406 215.015625 168.316406 C 215.070312 168.121094 215.121094 167.925781 215.179688 167.722656 C 215.34375 167.160156 215.558594 166.578125 215.984375 166.171875 C 217.421875 164.8125 218.925781 165.386719 219.597656 166.128906 C 220.324219 166.933594 220.957031 168.105469 220.824219 169.648438 C 220.882812 169.507812 220.9375 169.371094 220.996094 169.226562 C 222.535156 166.960938 224.636719 168.550781 225.222656 169.273438 C 225.769531 169.953125 226.417969 172.878906 226.246094 175.082031 C 225.726562 181.765625 220.492188 200.238281 220.492188 200.238281 L 219.824219 206.769531 C 219.824219 206.769531 209.445312 204.671875 200.960938 201.492188 C 200.917969 200.757812 200.8125 199.15625 200.703125 198.496094 C 200.15625 195.152344 194.566406 181.816406 195.101562 178.582031 C 195.378906 176.890625 196.296875 173.230469 197.160156 169.492188 C 197.953125 166.078125 196.078125 161.203125 197.351562 159.9375 Z M 197.351562 159.9375 " fill-opacity="1" fill-rule="nonzero"/><path fill="#0e7658" d="M 132.910156 170.253906 C 151.753906 170.253906 155.328125 159.511719 155.328125 159.511719 C 155.328125 159.511719 174.460938 165.1875 180.394531 170.78125 C 186.328125 176.371094 196.535156 213.058594 196.535156 213.058594 L 200.960938 201.492188 C 200.960938 201.492188 219.652344 205.699219 226.585938 207.46875 C 224.667969 223.542969 215.375 267.042969 198.714844 266.171875 C 180.492188 265.214844 171.757812 239.179688 171.757812 239.179688 C 171.757812 239.179688 170.1875 271.933594 168.355469 272.808594 C 165.367188 274.234375 98 272.808594 96.253906 272.460938 C 94.511719 272.109375 95.164062 268.441406 94.816406 261.800781 C 81.6875 277.613281 59.136719 279.972656 59.136719 279.972656 L 68.121094 266.34375 L 66.027344 257.914062 L 68.121094 213.410156 C 68.121094 213.410156 71.792969 186.796875 79.113281 174.972656 C 84.523438 166.238281 109.007812 161.871094 109.007812 161.871094 C 109.007812 161.871094 114.066406 170.253906 132.910156 170.253906 Z M 132.910156 170.253906 C 151.753906 170.253906 155.328125 159.511719 155.328125 159.511719 C 155.328125 159.511719 174.460938 165.1875 180.394531 170.78125 C 186.328125 176.371094 196.535156 213.058594 196.535156 213.058594 L 200.960938 201.492188 C 200.960938 201.492188 219.652344 205.699219 226.585938 207.46875 C 224.667969 223.542969 215.375 267.042969 198.714844 266.171875 C 180.492188 265.214844 171.757812 239.179688 171.757812 239.179688 C 171.757812 239.179688 170.1875 271.933594 168.355469 272.808594 C 165.367188 274.234375 98 272.808594 96.253906 272.460938 C 94.511719 272.109375 95.164062 268.441406 94.816406 261.800781 C 81.6875 277.613281 59.136719 279.972656 59.136719 279.972656 L 68.121094 266.34375 L 66.027344 257.914062 L 68.121094 213.410156 C 68.121094 213.410156 71.792969 186.796875 79.113281 174.972656 C 84.523438 166.238281 109.007812 161.871094 109.007812 161.871094 C 109.007812 161.871094 114.066406 170.253906 132.910156 170.253906 Z M 251.316406 68.707031 L 248.175781 69.625 L 247.785156 79.058594 L 243.726562 83.644531 C 243.726562 83.644531 244.511719 89.277344 245.035156 89.671875 C 245.558594 90.066406 249.617188 92.292969 249.617188 92.292969 L 256.683594 90.066406 L 258.90625 87.183594 C 258.90625 87.183594 259.039062 81.285156 258.253906 81.285156 C 257.46875 81.285156 254.589844 78.402344 254.589844 78.402344 L 255.636719 68.96875 Z M 251.316406 68.707031 " fill-opacity="1" fill-rule="nonzero"/><g clip-path="url(#4b85baf430)"><path fill="#f3d4b7" d="M 233.871094 60.714844 C 211.503906 60.09375 188.507812 65.257812 188.855469 79.582031 C 189.050781 87.5625 193.21875 92.179688 199.910156 94.851562 L 197.144531 105.003906 L 209.019531 97.207031 C 215.734375 98.265625 223.671875 98.449219 232.125 98.449219 C 255.15625 98.449219 273.652344 95.65625 273.652344 80.632812 C 273.652344 65.605469 258.996094 61.414062 233.871094 60.714844 Z M 251.898438 90.476562 C 250.507812 90.546875 244.964844 90.964844 245.265625 85.484375 C 245.488281 81.484375 249.699219 80.789062 249.699219 80.789062 L 249.800781 71.027344 C 249.804688 70.523438 250.222656 70.125 250.722656 70.136719 L 253.203125 70.199219 C 253.695312 70.214844 254.089844 70.625 254.078125 71.121094 L 253.875 81.007812 C 253.875 81.007812 257.832031 81.925781 257.613281 86.292969 C 257.390625 90.6875 253.019531 90.414062 251.898438 90.476562 Z M 151.363281 254.464844 L 97.761719 254.464844 C 97.121094 254.464844 96.542969 254.082031 96.292969 253.492188 L 70.164062 191.683594 C 69.550781 190.238281 68.136719 189.300781 66.566406 189.300781 L -15.464844 189.300781 C -16.609375 189.300781 -17.378906 190.464844 -16.933594 191.519531 L 11.378906 258.519531 C 11.628906 259.109375 12.207031 259.492188 12.847656 259.492188 L 36.1875 259.585938 C 32.640625 247.355469 37.066406 239.074219 42.128906 238.542969 C 44.527344 238.292969 47.195312 239.519531 49.382812 243.207031 C 53.644531 243.667969 59.191406 252.652344 61.886719 259.226562 C 62.109375 259.347656 62.332031 259.492188 62.558594 259.632812 C 62.585938 259.652344 62.617188 259.671875 62.644531 259.691406 L 89.3125 259.800781 L 98.957031 259.800781 L 153.152344 259.945312 C 154.035156 259.945312 155.097656 259.085938 155.097656 258.203125 C 155.097656 256.136719 153.425781 254.464844 151.363281 254.464844 Z M 211.605469 184.015625 L 210.101562 178.183594 C 209.734375 178.375 209.375 178.363281 209.070312 178.003906 C 208.222656 177.011719 208.691406 175.558594 209.152344 174.621094 L 207.605469 168.820312 C 207.574219 168.839844 207.546875 168.859375 207.515625 168.878906 C 204.867188 170.554688 201.867188 169.34375 202.464844 167.597656 C 202.949219 166.171875 204.445312 164.214844 205.921875 162.515625 L 200.945312 144.261719 C 201.296875 144.164062 201.507812 143.800781 201.414062 143.445312 C 201.320312 143.085938 200.953125 142.875 200.59375 142.96875 L 195.875 144.230469 C 195.519531 144.328125 195.304688 144.695312 195.402344 145.050781 C 195.460938 145.273438 195.625 145.441406 195.828125 145.511719 C 195.949219 145.554688 196.085938 145.5625 196.222656 145.527344 L 207.234375 186.589844 L 207.320312 186.691406 C 208.308594 187.914062 209.9375 187.886719 211.007812 187.078125 C 212.328125 186.078125 211.605469 184.015625 211.605469 184.015625 Z M 200.5 286.347656 L 164.539062 286.347656 C 164.539062 286.347656 162.398438 239.878906 162.636719 239.089844 C 162.875 238.304688 204.558594 239.964844 204.558594 239.964844 Z M 200.5 286.347656 L 161.726562 286.347656 C 161.726562 286.347656 162.164062 280.582031 163.941406 273.113281 C 163.328125 259.332031 162.480469 239.597656 162.636719 239.089844 C 162.875 238.304688 204.558594 239.964844 204.558594 239.964844 Z M 200.5 286.347656 " fill-opacity="1" fill-rule="nonzero"/></g><path fill="#000000" d="M 204.757812 81.714844 C 204.789062 81.714844 204.824219 81.714844 204.855469 81.714844 C 207.121094 81.714844 209.199219 80.5625 210.726562 79.105469 C 211.933594 80.472656 213.71875 81.5625 215.792969 81.621094 C 218.054688 81.695312 220.136719 80.539062 221.605469 79.0625 C 222.765625 80.320312 224.421875 81.289062 226.371094 81.359375 C 228.917969 81.453125 230.917969 80.429688 232.265625 79.144531 C 233.570312 80.257812 235.410156 81.070312 237.671875 81.105469 C 237.945312 81.132812 238.179688 80.886719 238.179688 80.609375 C 238.183594 80.332031 237.964844 80.105469 237.6875 80.097656 C 235.640625 80.070312 234.058594 79.34375 232.953125 78.398438 C 233.15625 78.148438 233.332031 77.898438 233.488281 77.648438 C 234.351562 76.242188 234.574219 74.785156 234.058594 73.847656 C 233.714844 73.222656 233.078125 72.871094 232.257812 72.859375 C 230.925781 72.835938 230.074219 73.675781 230.054688 74.992188 C 230.039062 76.070312 230.566406 77.339844 231.550781 78.441406 C 230.371094 79.554688 228.617188 80.429688 226.410156 80.355469 C 224.660156 80.289062 223.246094 79.402344 222.277344 78.3125 C 222.53125 78 222.753906 77.675781 222.953125 77.355469 C 223.808594 75.945312 224.046875 74.609375 223.589844 73.777344 C 223.378906 73.394531 222.925781 72.933594 221.964844 72.917969 C 220.667969 72.898438 219.835938 73.707031 219.800781 75.023438 C 219.777344 76.007812 220.199219 77.199219 220.96875 78.28125 C 219.671875 79.621094 217.8125 80.664062 215.824219 80.617188 C 214.074219 80.570312 212.492188 79.578125 211.429688 78.363281 C 212.554688 77.070312 213.234375 75.660156 213.25 74.644531 C 213.265625 73.671875 212.683594 73.0625 211.730469 73.046875 C 210.101562 73.023438 209.078125 73.867188 209.046875 75.3125 C 209.027344 76.210938 209.417969 77.300781 210.117188 78.320312 C 208.769531 79.644531 206.894531 80.746094 204.773438 80.710938 C 204.515625 80.714844 204.269531 80.925781 204.261719 81.203125 C 204.257812 81.480469 204.480469 81.710938 204.757812 81.714844 Z M 231.058594 75.007812 C 231.070312 74.25 231.457031 73.863281 232.210938 73.863281 C 232.222656 73.863281 232.234375 73.863281 232.246094 73.863281 C 232.707031 73.871094 233.011719 74.023438 233.179688 74.328125 C 233.507812 74.933594 233.289062 76.054688 232.632812 77.121094 C 232.515625 77.308594 232.386719 77.496094 232.238281 77.683594 C 231.445312 76.757812 231.046875 75.746094 231.058594 75.007812 Z M 220.804688 75.050781 C 220.824219 74.292969 221.1875 73.921875 221.917969 73.921875 C 221.925781 73.921875 221.9375 73.921875 221.949219 73.921875 C 222.527344 73.929688 222.667969 74.179688 222.710938 74.261719 C 222.9375 74.667969 222.832031 75.621094 222.09375 76.832031 C 221.960938 77.050781 221.8125 77.269531 221.648438 77.488281 C 221.085938 76.613281 220.785156 75.710938 220.804688 75.050781 Z M 210.050781 75.332031 C 210.070312 74.480469 210.609375 74.050781 211.65625 74.050781 C 211.675781 74.050781 211.695312 74.050781 211.714844 74.050781 C 212.058594 74.054688 212.253906 74.152344 212.246094 74.628906 C 212.238281 75.34375 211.710938 76.46875 210.816406 77.554688 C 210.316406 76.785156 210.035156 75.992188 210.050781 75.332031 Z M 137.433594 294.074219 C 130.113281 294.148438 122.792969 294.164062 115.476562 294.171875 C 105.972656 294.179688 96.46875 294.164062 86.96875 294.136719 C 76.605469 294.105469 66.242188 294.058594 55.878906 294.003906 C 45.90625 293.949219 35.933594 293.882812 25.960938 293.808594 C 17.636719 293.742188 9.308594 293.671875 0.984375 293.582031 C 0.140625 293.570312 -0.707031 293.5625 -1.550781 293.550781 C -2.195312 293.542969 -2.195312 294.550781 -1.550781 294.554688 C 6.480469 294.648438 14.507812 294.71875 22.539062 294.785156 C 32.40625 294.863281 42.273438 294.929688 52.144531 294.988281 C 62.527344 295.046875 72.910156 295.09375 83.292969 295.128906 C 92.945312 295.160156 102.59375 295.179688 112.242188 295.175781 C 119.902344 295.175781 127.558594 295.164062 135.214844 295.101562 C 135.953125 295.09375 136.695312 295.085938 137.433594 295.082031 C 138.078125 295.074219 138.078125 294.070312 137.433594 294.074219 Z M 262.011719 290.230469 C 254.117188 290.105469 246.21875 290.03125 238.320312 289.964844 C 227.472656 289.871094 216.625 289.800781 205.777344 289.742188 C 193.695312 289.675781 181.613281 289.628906 169.53125 289.59375 C 157.964844 289.558594 146.398438 289.535156 134.835938 289.535156 C 125.453125 289.539062 116.070312 289.546875 106.691406 289.601562 C 105.757812 289.609375 104.828125 289.613281 103.894531 289.621094 C 103.25 289.625 103.25 290.628906 103.894531 290.625 C 112.917969 290.5625 121.9375 290.546875 130.957031 290.542969 C 142.382812 290.535156 153.8125 290.554688 165.238281 290.585938 C 177.351562 290.617188 189.464844 290.664062 201.578125 290.726562 C 212.632812 290.78125 223.6875 290.851562 234.742188 290.941406 C 243.070312 291.007812 251.398438 291.082031 259.726562 291.203125 C 260.488281 291.214844 261.25 291.226562 262.011719 291.238281 C 262.660156 291.246094 262.660156 290.242188 262.011719 290.230469 Z M 212.890625 295.386719 C 208.121094 295.300781 203.351562 295.292969 198.585938 295.269531 C 192.535156 295.234375 186.484375 295.207031 180.4375 295.164062 C 178.191406 295.148438 175.945312 295.132812 173.699219 295.09375 C 173.054688 295.082031 173.054688 296.085938 173.699219 296.097656 C 178.46875 296.183594 183.238281 296.191406 188.003906 296.214844 C 194.054688 296.25 200.105469 296.277344 206.152344 296.320312 C 208.398438 296.335938 210.644531 296.351562 212.890625 296.390625 C 213.535156 296.402344 213.535156 295.398438 212.890625 295.386719 Z M 22.683594 288.914062 C 19.25 288.886719 15.8125 288.855469 12.375 288.832031 C 11.222656 288.824219 10.070312 288.8125 8.921875 288.8125 C 8.273438 288.8125 8.273438 289.816406 8.921875 289.816406 C 11.484375 289.816406 14.046875 289.847656 16.609375 289.871094 C 20.046875 289.898438 23.484375 289.925781 26.917969 289.953125 C 28.070312 289.960938 29.222656 289.96875 30.375 289.96875 C 31.019531 289.96875 31.019531 288.964844 30.375 288.964844 C 27.8125 288.964844 25.246094 288.933594 22.683594 288.914062 Z M 107.398438 119.761719 C 108.34375 119.761719 109.113281 118.582031 109.113281 117.125 C 109.113281 115.664062 108.34375 114.484375 107.398438 114.484375 C 106.449219 114.484375 105.683594 115.664062 105.683594 117.125 C 105.683594 118.582031 106.449219 119.761719 107.398438 119.761719 Z M 123.78125 107.441406 C 125.25 107.253906 126.722656 107.804688 127.695312 108.9375 C 127.875 109.140625 128.222656 109.117188 128.40625 108.9375 C 128.609375 108.734375 128.582031 108.433594 128.40625 108.226562 C 127.285156 106.925781 125.488281 106.222656 123.78125 106.4375 C 123.511719 106.46875 123.277344 106.644531 123.277344 106.9375 C 123.277344 107.183594 123.511719 107.476562 123.78125 107.441406 Z M 123.605469 117.125 C 123.605469 118.582031 124.375 119.761719 125.320312 119.761719 C 126.265625 119.761719 127.035156 118.582031 127.035156 117.125 C 127.035156 115.664062 126.265625 114.484375 125.320312 114.484375 C 124.375 114.484375 123.605469 115.664062 123.605469 117.125 Z M 113.921875 120.0625 C 113.914062 120.339844 114.128906 120.574219 114.40625 120.585938 C 114.410156 120.585938 114.417969 120.585938 114.425781 120.585938 C 114.691406 120.585938 114.914062 120.371094 114.925781 120.101562 C 115.175781 113.53125 114.546875 108.246094 114.542969 108.195312 C 114.507812 107.917969 114.257812 107.726562 113.984375 107.753906 C 113.707031 107.789062 113.511719 108.039062 113.546875 108.316406 C 113.550781 108.367188 114.171875 113.578125 113.921875 120.0625 Z M 146.597656 123.277344 C 146.515625 123.492188 146.589844 123.738281 146.78125 123.871094 C 146.972656 124 147.226562 123.988281 147.402344 123.832031 C 148.503906 122.847656 149.351562 122.675781 149.738281 122.828125 C 149.910156 122.898438 149.921875 123.003906 149.925781 123.039062 C 149.941406 123.207031 149.796875 123.503906 149.34375 123.789062 C 149.105469 123.9375 149.035156 124.246094 149.183594 124.480469 C 149.277344 124.632812 149.441406 124.71875 149.609375 124.71875 C 149.699219 124.71875 149.792969 124.695312 149.875 124.640625 C 150.585938 124.195312 150.980469 123.5625 150.921875 122.945312 C 150.878906 122.472656 150.574219 122.078125 150.109375 121.894531 C 149.824219 121.78125 149.199219 121.644531 148.285156 122.042969 C 150.394531 118.335938 153.546875 118.113281 153.699219 118.105469 C 153.972656 118.089844 154.1875 117.855469 154.171875 117.578125 C 154.160156 117.300781 153.90625 117.09375 153.648438 117.101562 C 153.453125 117.109375 148.847656 117.402344 146.597656 123.277344 Z M 120.144531 145.765625 C 120.171875 145.769531 120.25 145.769531 120.367188 145.769531 C 122.007812 145.769531 131.820312 145.355469 140.515625 135.808594 C 140.703125 135.605469 140.6875 135.289062 140.484375 135.101562 C 140.277344 134.914062 139.960938 134.929688 139.773438 135.132812 C 130.78125 145.003906 120.285156 144.765625 120.179688 144.761719 C 119.898438 144.742188 119.671875 144.96875 119.660156 145.246094 C 119.652344 145.523438 119.867188 145.757812 120.144531 145.765625 Z M 114.421875 128.5625 C 114.191406 129.214844 114.164062 130 114.347656 130.78125 C 114.710938 132.3125 115.761719 133.367188 116.847656 133.367188 C 116.972656 133.367188 117.101562 133.355469 117.230469 133.324219 C 117.835938 133.179688 118.332031 132.6875 118.589844 131.972656 C 118.820312 131.320312 118.847656 130.535156 118.660156 129.753906 C 118.253906 128.039062 116.992188 126.921875 115.78125 127.210938 C 115.171875 127.355469 114.679688 127.847656 114.421875 128.5625 Z M 115.367188 128.902344 C 115.449219 128.671875 115.640625 128.277344 116.011719 128.1875 C 116.566406 128.058594 117.394531 128.761719 117.6875 129.984375 C 117.824219 130.570312 117.808594 131.171875 117.644531 131.632812 C 117.5625 131.859375 117.371094 132.257812 117 132.347656 C 116.445312 132.472656 115.617188 131.773438 115.324219 130.546875 C 115.1875 129.964844 115.203125 129.363281 115.367188 128.902344 Z M 155.835938 113.261719 C 155.71875 113.511719 155.824219 113.808594 156.074219 113.929688 C 156.144531 113.960938 156.214844 113.976562 156.289062 113.976562 C 156.476562 113.976562 156.65625 113.871094 156.742188 113.691406 C 156.894531 113.371094 160.441406 105.675781 156.242188 92.707031 C 156.15625 92.441406 155.875 92.296875 155.609375 92.382812 C 155.347656 92.46875 155.203125 92.75 155.289062 93.015625 C 159.355469 105.574219 155.871094 113.183594 155.835938 113.261719 Z M 96.09375 114.152344 C 96.152344 114.152344 96.210938 114.144531 96.269531 114.121094 C 96.53125 114.023438 96.660156 113.734375 96.566406 113.476562 C 96.511719 113.328125 91.273438 98.585938 104.820312 85.359375 C 105.019531 85.164062 105.023438 84.847656 104.828125 84.648438 C 104.636719 84.449219 104.316406 84.445312 104.121094 84.636719 C 90.089844 98.335938 95.570312 113.671875 95.625 113.824219 C 95.699219 114.027344 95.890625 114.152344 96.09375 114.152344 Z M 149.757812 110.222656 C 149.851562 110.308594 149.972656 110.351562 150.09375 110.351562 C 150.230469 110.351562 150.367188 110.296875 150.464844 110.191406 C 150.652344 109.984375 150.636719 109.667969 150.433594 109.480469 C 150.386719 109.4375 145.898438 105.292969 143.613281 100.335938 C 143.5 100.085938 143.199219 99.976562 142.949219 100.089844 C 142.699219 100.207031 142.589844 100.507812 142.703125 100.757812 C 145.074219 105.902344 149.566406 110.046875 149.757812 110.222656 Z M 127.734375 75.558594 C 127.800781 75.578125 127.867188 75.601562 127.929688 75.625 C 127.957031 75.636719 127.980469 75.648438 128.007812 75.65625 C 128.007812 75.65625 128.050781 75.675781 128.070312 75.683594 C 128.089844 75.691406 128.117188 75.703125 128.117188 75.703125 C 128.140625 75.714844 128.164062 75.726562 128.191406 75.738281 C 128.253906 75.765625 128.3125 75.796875 128.375 75.828125 C 128.605469 75.949219 128.832031 76.085938 129.042969 76.242188 C 129.066406 76.257812 129.085938 76.273438 129.109375 76.289062 C 129.117188 76.296875 129.117188 76.296875 129.121094 76.300781 C 129.171875 76.335938 129.21875 76.375 129.265625 76.417969 C 129.367188 76.5 129.460938 76.589844 129.554688 76.679688 C 129.648438 76.769531 129.738281 76.867188 129.828125 76.964844 C 129.871094 77.015625 129.917969 77.066406 129.960938 77.121094 C 129.976562 77.144531 129.996094 77.164062 130.011719 77.1875 C 129.9375 77.097656 130.023438 77.203125 130.035156 77.214844 C 130.191406 77.425781 130.476562 77.554688 130.71875 77.394531 C 130.925781 77.261719 131.066406 76.933594 130.898438 76.707031 C 130.164062 75.722656 129.171875 74.984375 128.003906 74.589844 C 127.753906 74.503906 127.445312 74.6875 127.386719 74.941406 C 127.320312 75.21875 127.46875 75.46875 127.734375 75.558594 Z M 134.492188 78.894531 C 134.535156 78.855469 134.578125 78.820312 134.625 78.785156 C 134.636719 78.777344 134.722656 78.714844 134.734375 78.707031 C 134.839844 78.632812 134.945312 78.566406 135.058594 78.503906 C 135.15625 78.445312 135.253906 78.394531 135.355469 78.347656 C 135.371094 78.339844 135.542969 78.265625 135.457031 78.300781 C 135.515625 78.277344 135.574219 78.253906 135.636719 78.230469 C 136.152344 78.046875 136.5 77.988281 137.011719 77.992188 C 137.273438 77.992188 137.523438 77.757812 137.511719 77.488281 C 137.5 77.214844 137.292969 76.988281 137.011719 76.984375 C 135.824219 76.980469 134.683594 77.417969 133.78125 78.183594 C 133.582031 78.355469 133.59375 78.722656 133.78125 78.894531 C 133.996094 79.089844 134.277344 79.074219 134.492188 78.894531 Z M 129.421875 80.128906 C 129.074219 80.128906 128.722656 80.128906 128.375 80.128906 C 128.246094 80.128906 128.109375 80.183594 128.019531 80.273438 C 127.933594 80.363281 127.867188 80.503906 127.875 80.628906 C 127.886719 80.902344 128.09375 81.132812 128.375 81.132812 C 128.722656 81.132812 129.074219 81.132812 129.421875 81.132812 C 129.550781 81.132812 129.6875 81.074219 129.777344 80.984375 C 129.863281 80.898438 129.929688 80.753906 129.921875 80.628906 C 129.910156 80.355469 129.703125 80.128906 129.421875 80.128906 Z M 202.847656 169.738281 C 202.964844 170.335938 203.78125 174.605469 203.6875 177.207031 C 203.683594 177.351562 203.742188 177.492188 203.847656 177.589844 C 204.070312 177.796875 204.363281 178.046875 204.703125 178.335938 C 204.863281 178.472656 205.035156 178.617188 205.210938 178.769531 L 204.722656 176.878906 C 204.757812 174.636719 204.226562 171.578125 203.960938 170.195312 C 204.199219 170.242188 204.445312 170.273438 204.703125 170.273438 C 205.675781 170.273438 206.773438 169.945312 207.78125 169.304688 C 208.03125 169.144531 208.277344 168.972656 208.519531 168.796875 L 208.230469 170.292969 C 208.175781 170.566406 208.355469 170.828125 208.625 170.882812 C 208.660156 170.886719 208.691406 170.890625 208.722656 170.890625 C 208.957031 170.890625 209.167969 170.722656 209.214844 170.484375 L 209.734375 167.804688 C 211.261719 166.4375 212.375 165.023438 212.4375 164.941406 C 212.609375 164.722656 212.570312 164.410156 212.351562 164.238281 C 212.132812 164.066406 211.816406 164.105469 211.648438 164.324219 C 211.628906 164.351562 209.546875 167 207.246094 168.453125 C 205.65625 169.460938 204.171875 169.417969 203.46875 168.949219 C 203.042969 168.671875 202.867188 168.230469 202.957031 167.679688 C 203.453125 164.644531 209.664062 159.273438 209.726562 159.21875 C 209.933594 159.039062 209.960938 158.722656 209.777344 158.511719 C 209.597656 158.300781 209.28125 158.277344 209.070312 158.457031 C 208.804688 158.6875 202.519531 164.121094 201.96875 167.519531 C 201.820312 168.433594 202.140625 169.234375 202.847656 169.738281 Z M 217.203125 185.289062 C 217.707031 184.800781 218.226562 184.296875 218.710938 183.761719 C 221.539062 180.667969 223.09375 176.40625 223.15625 176.226562 C 223.238281 175.992188 223.140625 175.734375 222.925781 175.613281 C 222.707031 175.496094 222.433594 175.554688 222.285156 175.75 C 221.128906 177.273438 217.617188 181.179688 215.375 181.09375 C 214.796875 181.066406 214.335938 180.757812 213.964844 180.160156 C 213.480469 179.371094 216.871094 174.515625 221.367188 169.5625 C 221.554688 169.359375 221.539062 169.039062 221.335938 168.855469 C 221.128906 168.667969 220.8125 168.683594 220.625 168.886719 C 219.613281 170.003906 218.101562 171.71875 216.6875 173.515625 C 216.617188 173.550781 216.546875 173.59375 216.496094 173.664062 C 214.117188 176.871094 211.421875 177.925781 209.933594 177.558594 C 209.578125 177.46875 209.136719 177.253906 209.058594 176.734375 C 208.824219 175.199219 212.960938 170.121094 215.625 167.28125 C 215.816406 167.078125 215.804688 166.761719 215.605469 166.570312 C 215.402344 166.382812 215.085938 166.390625 214.894531 166.59375 C 213.6875 167.878906 207.6875 174.421875 208.066406 176.886719 C 208.191406 177.707031 208.785156 178.308594 209.691406 178.535156 C 209.953125 178.597656 210.234375 178.632812 210.539062 178.632812 C 211.511719 178.632812 212.6875 178.28125 213.910156 177.507812 C 213.121094 178.898438 212.730469 180.066406 213.113281 180.6875 C 213.660156 181.578125 214.40625 182.050781 215.324219 182.097656 C 217.121094 182.183594 219.25 180.492188 220.824219 178.921875 C 220.117188 180.246094 219.15625 181.789062 217.972656 183.085938 C 217.503906 183.597656 216.996094 184.089844 216.503906 184.570312 C 214.023438 186.984375 211.457031 189.480469 212.4375 195.496094 C 212.480469 195.742188 212.691406 195.917969 212.933594 195.917969 C 212.960938 195.917969 212.988281 195.914062 213.015625 195.910156 C 213.289062 195.863281 213.472656 195.605469 213.429688 195.332031 C 212.53125 189.835938 214.800781 187.628906 217.203125 185.289062 Z M 226.585938 207.46875 C 226.75 205.90625 220.074219 204.339844 220.074219 204.339844 L 219.824219 206.769531 C 219.824219 206.769531 226.457031 208.714844 226.585938 207.46875 Z M 93.167969 259.5625 C 93.25 259.753906 93.4375 259.867188 93.632812 259.867188 C 93.695312 259.867188 93.761719 259.855469 93.824219 259.828125 C 94.082031 259.722656 94.199219 259.429688 94.09375 259.171875 L 66.636719 193.484375 L 68.902344 190.582031 C 69.074219 190.363281 69.035156 190.046875 68.816406 189.875 C 68.597656 189.703125 68.28125 189.742188 68.113281 189.960938 L 65.816406 192.90625 L -14.921875 192.617188 C -15.199219 192.617188 -15.421875 192.839844 -15.421875 193.117188 C -15.425781 193.394531 -15.199219 193.621094 -14.921875 193.621094 L 65.726562 193.910156 Z M 44.550781 229.683594 C 44.890625 229.847656 45.242188 229.929688 45.585938 229.929688 C 45.882812 229.929688 46.171875 229.871094 46.445312 229.746094 C 47.632812 229.210938 48.089844 227.648438 47.46875 226.269531 C 47.171875 225.617188 46.679688 225.097656 46.082031 224.804688 C 45.453125 224.496094 44.777344 224.472656 44.1875 224.742188 C 43.003906 225.277344 42.542969 226.835938 43.164062 228.214844 C 43.460938 228.867188 43.953125 229.390625 44.550781 229.683594 Z M 44.601562 225.65625 C 44.914062 225.511719 45.285156 225.53125 45.644531 225.707031 C 46.03125 225.898438 46.355469 226.246094 46.554688 226.683594 C 46.949219 227.558594 46.714844 228.523438 46.03125 228.832031 C 45.71875 228.972656 45.347656 228.953125 44.992188 228.78125 C 44.601562 228.589844 44.277344 228.242188 44.078125 227.800781 C 43.683594 226.925781 43.917969 225.964844 44.601562 225.65625 Z M 56.152344 260.695312 C 56.535156 261.203125 57.40625 260.703125 57.015625 260.1875 C 54.171875 256.433594 52.273438 251.976562 51.101562 247.433594 C 50.796875 246.246094 50.546875 245.050781 50.359375 243.84375 C 50.257812 243.207031 49.289062 243.476562 49.390625 244.109375 C 50.113281 248.691406 51.648438 253.21875 53.914062 257.265625 C 54.582031 258.457031 55.324219 259.605469 56.152344 260.695312 Z M 47.167969 257.195312 C 47.765625 258.675781 48.398438 260.144531 49.105469 261.574219 C 49.394531 262.15625 50.257812 261.648438 49.972656 261.070312 C 48.667969 258.429688 47.597656 255.671875 46.613281 252.898438 C 45.527344 249.851562 44.558594 246.757812 43.753906 243.621094 C 43.367188 242.117188 43.019531 240.601562 42.757812 239.074219 C 42.648438 238.4375 41.679688 238.707031 41.789062 239.339844 C 42.296875 242.285156 43.085938 245.179688 43.953125 248.035156 C 44.894531 251.132812 45.957031 254.195312 47.167969 257.195312 Z M 38.25 242.371094 C 38.230469 241.726562 37.226562 241.722656 37.246094 242.371094 C 37.410156 247.632812 38.15625 252.878906 40.046875 257.8125 C 40.59375 259.230469 41.21875 260.617188 41.910156 261.96875 C 42.207031 262.542969 43.070312 262.035156 42.777344 261.460938 C 40.4375 256.902344 39.058594 251.972656 38.539062 246.878906 C 38.386719 245.378906 38.296875 243.875 38.25 242.371094 Z M 59.136719 279.972656 C 64.628906 279.972656 71.261719 274.492188 71.261719 268.265625 C 71.261719 264.824219 69.894531 261.746094 67.75 259.679688 L 62.59375 259.660156 C 64.269531 260.75 68.136719 263.742188 65.378906 266.546875 C 62.699219 269.277344 53.183594 269.925781 47.164062 268.878906 C 47.671875 274.5625 53.984375 279.972656 59.136719 279.972656 Z M 171.734375 238.367188 C 171.742188 238.371094 171.75 238.371094 171.757812 238.371094 C 172.023438 238.371094 172.246094 238.160156 172.257812 237.890625 C 172.277344 237.511719 174.113281 199.882812 176.421875 192.953125 C 176.507812 192.6875 176.367188 192.40625 176.105469 192.316406 C 175.839844 192.230469 175.558594 192.371094 175.46875 192.632812 C 173.121094 199.695312 171.332031 236.289062 171.257812 237.84375 C 171.242188 238.121094 171.457031 238.355469 171.734375 238.367188 Z M 183.34375 237.546875 C 183.40625 237.570312 183.472656 237.582031 183.535156 237.582031 C 183.730469 237.582031 183.917969 237.46875 184 237.273438 C 186.578125 231.078125 195.925781 213.121094 196.019531 212.941406 C 196.148438 212.695312 196.050781 212.394531 195.804688 212.265625 C 195.5625 212.136719 195.257812 212.230469 195.128906 212.476562 C 195.035156 212.660156 185.667969 230.652344 183.074219 236.886719 C 182.964844 237.144531 183.085938 237.4375 183.34375 237.546875 Z M 179.609375 231.949219 C 179.769531 231.949219 179.925781 231.871094 180.023438 231.730469 C 181.644531 229.355469 185.464844 226.917969 185.503906 226.890625 C 185.738281 226.742188 185.808594 226.433594 185.660156 226.199219 C 185.511719 225.964844 185.203125 225.894531 184.96875 226.042969 C 184.804688 226.148438 180.933594 228.617188 179.195312 231.164062 C 179.039062 231.390625 179.097656 231.703125 179.328125 231.863281 C 179.414062 231.921875 179.511719 231.949219 179.609375 231.949219 Z M 94.316406 246.820312 C 94.339844 247.082031 94.558594 247.28125 94.816406 247.28125 C 94.828125 247.28125 94.84375 247.277344 94.859375 247.277344 C 95.136719 247.253906 95.339844 247.011719 95.316406 246.734375 C 95.144531 244.753906 91.097656 198.113281 88.75 191.0625 C 88.660156 190.796875 88.378906 190.660156 88.113281 190.746094 C 87.851562 190.832031 87.710938 191.117188 87.796875 191.378906 C 90.105469 198.320312 94.273438 246.335938 94.316406 246.820312 Z M 149.90625 244.957031 C 149.976562 244.992188 150.050781 245.007812 150.121094 245.007812 C 150.308594 245.007812 150.488281 244.90625 150.574219 244.726562 C 150.695312 244.476562 150.589844 244.175781 150.34375 244.054688 C 129.078125 233.75 114.214844 212.890625 114.070312 212.683594 C 113.910156 212.453125 113.597656 212.402344 113.371094 212.5625 C 113.144531 212.722656 113.089844 213.035156 113.25 213.261719 C 113.398438 213.472656 128.402344 234.539062 149.90625 244.957031 Z M 249.855469 72.046875 L 253.960938 72.265625 C 253.96875 72.265625 253.976562 72.265625 253.988281 72.265625 C 254.25 72.265625 254.472656 72.058594 254.488281 71.789062 C 254.503906 71.515625 254.289062 71.277344 254.011719 71.261719 L 249.910156 71.042969 C 249.632812 71.035156 249.398438 71.238281 249.382812 71.515625 C 249.367188 71.792969 249.578125 72.03125 249.855469 72.046875 Z M 250.972656 89.351562 C 251.046875 89.351562 251.125 89.355469 251.199219 89.355469 C 253.09375 89.355469 254.644531 88.710938 255.484375 87.578125 C 256.050781 86.8125 256.214844 85.886719 255.929688 85.03125 C 255.828125 84.722656 255.511719 84.65625 255.378906 84.628906 C 254.617188 84.464844 247.507812 84.078125 246.765625 84.882812 C 246.398438 85.289062 246.523438 86.148438 246.808594 86.824219 C 247.121094 87.558594 248.148438 89.277344 250.972656 89.351562 Z M 255.035156 85.578125 C 255.125 86.054688 255.003906 86.542969 254.679688 86.980469 C 254.015625 87.878906 252.652344 88.394531 251 88.347656 C 249.316406 88.300781 248.453125 87.574219 248.03125 86.96875 C 247.632812 86.40625 247.53125 85.828125 247.542969 85.582031 C 248.546875 85.296875 253.796875 85.359375 255.035156 85.578125 Z M 204.371094 85.851562 C 211.148438 86.023438 231.449219 86.535156 236.726562 86.535156 C 237.449219 86.535156 237.890625 86.527344 237.976562 86.503906 C 238.246094 86.4375 238.425781 86.160156 238.359375 85.890625 C 238.292969 85.625 238.03125 85.457031 237.765625 85.523438 C 236.871094 85.632812 217.324219 85.179688 204.398438 84.847656 C 204.394531 84.84375 204.390625 84.84375 204.386719 84.84375 C 204.113281 84.84375 203.890625 85.0625 203.882812 85.335938 C 203.875 85.613281 204.09375 85.84375 204.371094 85.851562 Z M 169.011719 245.316406 L 169.515625 250.839844 C 169.527344 251.007812 169.625 251.15625 169.769531 251.234375 C 169.84375 251.277344 169.929688 251.296875 170.011719 251.296875 C 170.089844 251.296875 170.167969 251.28125 170.238281 251.246094 L 178.8125 246.929688 C 179.292969 246.945312 179.785156 246.957031 180.285156 246.957031 C 180.8125 246.957031 181.351562 246.945312 181.894531 246.929688 C 198.824219 246.40625 204.679688 240.5625 204.917969 240.3125 C 205.113281 240.113281 205.105469 239.796875 204.910156 239.605469 C 204.710938 239.410156 204.394531 239.417969 204.199219 239.613281 C 204.144531 239.671875 198.332031 245.414062 181.863281 245.925781 C 180.777344 245.960938 179.71875 245.960938 178.714844 245.925781 C 178.710938 245.925781 178.703125 245.929688 178.695312 245.929688 C 178.621094 245.929688 178.546875 245.941406 178.472656 245.976562 L 170.445312 250.015625 L 169.988281 244.984375 C 169.980469 244.890625 169.941406 244.8125 169.894531 244.742188 C 169.839844 244.621094 169.738281 244.519531 169.605469 244.46875 C 163.96875 242.453125 163.140625 239.046875 163.125 238.988281 C 163.066406 238.714844 162.804688 238.539062 162.535156 238.597656 C 162.261719 238.65625 162.085938 238.921875 162.144531 239.191406 C 162.175781 239.351562 163.023438 243.074219 169.011719 245.316406 Z M 98.65625 272.632812 C 98.65625 272.632812 94.601562 285.074219 96.039062 285.738281 C 96.148438 285.789062 96.273438 285.839844 96.40625 285.886719 L 164.539062 286.28125 C 164.507812 285.660156 164.253906 280.160156 163.941406 273.113281 C 148.644531 273.015625 111.179688 272.09375 98.835938 272.601562 C 98.722656 272.621094 98.65625 272.632812 98.65625 272.632812 Z M 98.65625 272.632812 " fill-opacity="1" fill-rule="nonzero"/></svg>