<svg xmlns="http://www.w3.org/2000/svg" xmlns:xlink="http://www.w3.org/1999/xlink" width="320" zoomAndPan="magnify" viewBox="0 0 240 359.999987" height="480" preserveAspectRatio="xMidYMid meet" version="1.0"><defs><clipPath id="80d0513d5d"><path d="M 0 238 L 91 238 L 91 345 L 0 345 Z M 0 238 " clip-rule="nonzero"/></clipPath><clipPath id="851c8a7af9"><path d="M 136 238 L 240 238 L 240 345 L 136 345 Z M 136 238 " clip-rule="nonzero"/></clipPath></defs><path fill="#d8f2fa" d="M 242.390625 243.527344 C 228.507812 281.742188 167.40625 294.632812 105.917969 272.328125 C 44.421875 250.019531 5.828125 200.96875 19.714844 162.757812 C 33.597656 124.546875 98.460938 101.28125 159.949219 123.582031 C 221.445312 145.886719 256.273438 205.324219 242.390625 243.527344 " fill-opacity="1" fill-rule="nonzero"/><path fill="#6657b0" d="M 185.886719 167.128906 C 184.480469 167.128906 183.089844 166.796875 181.796875 166.136719 C 179.65625 165.046875 178.070312 163.191406 177.335938 160.917969 L 154.140625 89.332031 C 153.894531 88.585938 154.304688 87.785156 155.050781 87.546875 C 155.792969 87.304688 156.59375 87.710938 156.835938 88.457031 L 180.035156 160.042969 C 180.535156 161.597656 181.621094 162.863281 183.085938 163.613281 C 184.554688 164.363281 186.21875 164.5 187.769531 163.996094 L 188.671875 163.707031 C 191.894531 162.660156 193.667969 159.195312 192.625 155.976562 L 190 147.882812 C 189.761719 147.140625 190.167969 146.34375 190.914062 146.101562 C 191.65625 145.859375 192.457031 146.265625 192.699219 147.011719 L 195.320312 155.101562 C 196.847656 159.808594 194.253906 164.878906 189.542969 166.402344 L 188.644531 166.691406 C 187.738281 166.984375 186.808594 167.128906 185.886719 167.128906 " fill-opacity="1" fill-rule="nonzero"/><path fill="#6657b0" d="M 136.574219 29.457031 L 142.171875 41.605469 C 142.535156 42.394531 142.191406 43.328125 141.402344 43.695312 C 140.609375 44.054688 139.675781 43.710938 139.3125 42.921875 C 139.273438 42.84375 139.242188 42.757812 139.21875 42.679688 L 135.683594 29.777344 C 135.617188 29.527344 135.765625 29.265625 136.019531 29.199219 C 136.246094 29.132812 136.480469 29.246094 136.574219 29.457031 " fill-opacity="1" fill-rule="nonzero"/><path fill="#73d0d1" d="M 232.300781 76.261719 L 202.179688 86.246094 L 123.421875 112.335938 L 88.726562 124.253906 C 82.972656 87.121094 101.625 49.90625 140.707031 36.957031 C 179.792969 24 218.007812 47.316406 232.300781 76.261719 " fill-opacity="1" fill-rule="nonzero"/><path fill="#a48ccd" d="M 191.554688 89.59375 L 126.964844 111.359375 C 106.386719 66.523438 139.042969 37.648438 139.042969 37.648438 C 178.527344 40.648438 188.394531 77.882812 191.554688 89.59375 " fill-opacity="1" fill-rule="nonzero"/><path fill="#f35c6f" d="M 163.65625 158.289062 L 168.621094 151.75 L 181.253906 160.992188 L 174.710938 169.332031 L 163.65625 158.289062 " fill-opacity="1" fill-rule="nonzero"/><path fill="#6657b0" d="M 162.882812 155.484375 L 157.015625 163.109375 C 156.101562 163.820312 155.199219 163.578125 154.613281 163.261719 L 137.382812 146.117188 L 122.261719 161.292969 L 140.410156 179.347656 C 144.804688 183.59375 150.511719 185.953125 156.269531 185.953125 C 156.785156 185.953125 157.300781 185.933594 157.8125 185.894531 C 163.765625 185.457031 169.066406 182.589844 172.730469 177.820312 L 179.871094 168.539062 L 162.882812 155.484375 " fill-opacity="1" fill-rule="nonzero"/><path fill="#64cbc8" d="M 39.910156 244.152344 C 13.636719 244.152344 -7.742188 265.511719 -7.742188 291.769531 C -7.742188 318.027344 13.636719 339.390625 39.910156 339.390625 C 66.183594 339.390625 87.558594 318.027344 87.558594 291.769531 C 87.558594 265.511719 66.183594 244.152344 39.910156 244.152344 Z M 39.910156 344.78125 C 10.660156 344.78125 -13.136719 321 -13.136719 291.769531 C -13.136719 262.542969 10.660156 238.761719 39.910156 238.761719 C 69.160156 238.761719 92.953125 262.542969 92.953125 291.769531 C 92.953125 321 69.160156 344.78125 39.910156 344.78125 " fill-opacity="1" fill-rule="nonzero"/><g clip-path="url(#80d0513d5d)"><path fill="#1a181a" d="M 37.136719 244.378906 C 10.867188 244.378906 -10.511719 265.738281 -10.511719 291.996094 C -10.511719 318.253906 10.867188 339.613281 37.136719 339.613281 C 63.414062 339.613281 84.792969 318.253906 84.792969 291.996094 C 84.792969 265.738281 63.414062 244.378906 37.136719 244.378906 Z M 37.136719 345.003906 C 7.890625 345.003906 -15.910156 321.226562 -15.910156 291.996094 C -15.910156 262.765625 7.890625 238.988281 37.136719 238.988281 C 66.390625 238.988281 90.183594 262.765625 90.183594 291.996094 C 90.183594 321.226562 66.390625 345.003906 37.136719 345.003906 " fill-opacity="1" fill-rule="nonzero"/></g><path fill="#64cbc8" d="M 191.855469 244.152344 C 165.582031 244.152344 144.203125 265.511719 144.203125 291.769531 C 144.203125 318.027344 165.582031 339.390625 191.855469 339.390625 C 218.128906 339.390625 239.507812 318.027344 239.507812 291.769531 C 239.507812 265.511719 218.128906 244.152344 191.855469 244.152344 Z M 191.855469 344.78125 C 162.605469 344.78125 138.8125 321 138.8125 291.769531 C 138.8125 262.539062 162.605469 238.761719 191.855469 238.761719 C 221.105469 238.761719 244.902344 262.539062 244.902344 291.769531 C 244.902344 321 221.105469 344.78125 191.855469 344.78125 " fill-opacity="1" fill-rule="nonzero"/><g clip-path="url(#851c8a7af9)"><path fill="#1a181a" d="M 189.085938 244.378906 C 162.8125 244.378906 141.429688 265.738281 141.429688 291.996094 C 141.429688 318.253906 162.8125 339.613281 189.085938 339.613281 C 215.359375 339.613281 236.738281 318.253906 236.738281 291.996094 C 236.738281 265.738281 215.359375 244.378906 189.085938 244.378906 Z M 189.085938 345.003906 C 159.835938 345.003906 136.039062 321.226562 136.039062 291.996094 C 136.039062 262.765625 159.835938 238.988281 189.085938 238.988281 C 218.332031 238.988281 242.128906 262.765625 242.128906 291.996094 C 242.128906 321.226562 218.332031 345.003906 189.085938 345.003906 " fill-opacity="1" fill-rule="nonzero"/></g><path fill="#e76bbc" d="M 74.808594 230.65625 L 40.230469 292.121094 L 109.726562 291.554688 L 164.867188 226.492188 L 163.296875 222.191406 Z M 37.140625 295.742188 C 36.507812 295.742188 35.917969 295.40625 35.59375 294.859375 C 35.265625 294.304688 35.261719 293.621094 35.574219 293.0625 L 72.136719 228.074219 C 72.425781 227.5625 72.949219 227.222656 73.535156 227.167969 L 164.339844 218.484375 C 165.164062 218.402344 165.921875 218.886719 166.203125 219.65625 L 168.601562 226.246094 C 168.824219 226.851562 168.699219 227.527344 168.285156 228.019531 L 111.9375 294.507812 C 111.597656 294.90625 111.105469 295.136719 110.582031 295.140625 L 37.15625 295.742188 C 37.152344 295.742188 37.144531 295.742188 37.140625 295.742188 " fill-opacity="1" fill-rule="nonzero"/><path fill="#e76bbc" d="M 109.972656 293.945312 C 109.324219 293.945312 108.703125 293.597656 108.378906 292.988281 L 65.730469 212.523438 L 58.609375 207.679688 C 57.789062 207.125 57.574219 206.003906 58.132812 205.183594 C 58.695312 204.363281 59.808594 204.152344 60.632812 204.710938 L 68.492188 210.050781 L 111.558594 291.304688 C 112.023438 292.183594 111.6875 293.269531 110.808594 293.734375 C 110.542969 293.878906 110.253906 293.945312 109.972656 293.945312 " fill-opacity="1" fill-rule="nonzero"/><path fill="#e76bbc" d="M 192.683594 296.039062 C 191.960938 296.039062 191.277344 295.597656 191.003906 294.882812 L 164.628906 225.703125 C 164.277344 224.773438 164.742188 223.734375 165.671875 223.382812 C 166.59375 223.035156 167.632812 223.496094 167.992188 224.421875 L 194.363281 293.601562 C 194.71875 294.527344 194.253906 295.566406 193.324219 295.921875 C 193.117188 296 192.894531 296.039062 192.683594 296.039062 " fill-opacity="1" fill-rule="nonzero"/><path fill="#64cbc8" d="M 52.683594 193.492188 L 82.539062 201.207031 C 85.675781 202.015625 87.566406 205.214844 86.75 208.351562 C 86.027344 211.148438 83.398438 212.949219 80.613281 212.730469 L 49.871094 210.332031 C 45.152344 209.960938 41.617188 205.835938 41.988281 201.121094 C 42.355469 196.402344 46.484375 192.875 51.207031 193.246094 C 51.695312 193.285156 52.21875 193.375 52.683594 193.492188 " fill-opacity="1" fill-rule="nonzero"/><path fill="#1a181a" d="M 178.285156 224.152344 L 172.265625 224.078125 C 171.273438 224.066406 170.480469 223.253906 170.492188 222.261719 C 170.503906 221.273438 171.308594 220.484375 172.289062 220.484375 C 172.296875 220.484375 172.304688 220.484375 172.3125 220.484375 L 178.230469 220.558594 C 180 220.480469 181.582031 219.054688 181.582031 217.453125 L 181.582031 212.769531 C 181.582031 208.570312 177.894531 205.046875 173.359375 204.910156 L 163.398438 204.609375 C 162.40625 204.578125 161.621094 203.75 161.65625 202.757812 C 161.683594 201.769531 162.511719 200.996094 163.503906 201.019531 L 173.46875 201.316406 C 179.925781 201.511719 185.179688 206.648438 185.179688 212.769531 L 185.179688 217.453125 C 185.179688 220.980469 182.085938 223.984375 178.285156 224.152344 " fill-opacity="1" fill-rule="nonzero"/><path fill="#1a181a" d="M 110.261719 279.269531 C 102.332031 279.269531 95.878906 285.71875 95.878906 293.644531 C 95.878906 301.570312 102.332031 308.019531 110.261719 308.019531 C 118.195312 308.019531 124.648438 301.570312 124.648438 293.644531 C 124.648438 285.71875 118.195312 279.269531 110.261719 279.269531 Z M 110.261719 309.816406 C 101.339844 309.816406 94.082031 302.5625 94.082031 293.644531 C 94.082031 284.726562 101.339844 277.472656 110.261719 277.472656 C 119.1875 277.472656 126.449219 284.726562 126.449219 293.644531 C 126.449219 302.5625 119.1875 309.816406 110.261719 309.816406 " fill-opacity="1" fill-rule="nonzero"/><path fill="#1a181a" d="M 110.15625 294.550781 C 109.816406 294.550781 109.492188 294.359375 109.339844 294.03125 L 103.082031 280.699219 C 102.871094 280.25 103.066406 279.714844 103.515625 279.503906 C 103.960938 279.289062 104.496094 279.484375 104.710938 279.933594 L 110.96875 293.269531 C 111.179688 293.71875 110.984375 294.253906 110.535156 294.460938 C 110.414062 294.519531 110.28125 294.550781 110.15625 294.550781 " fill-opacity="1" fill-rule="nonzero"/><path fill="#1a181a" d="M 110.1875 294.628906 C 110.097656 294.628906 110.007812 294.617188 109.917969 294.585938 L 96.230469 290.285156 C 95.757812 290.136719 95.496094 289.628906 95.644531 289.15625 C 95.789062 288.683594 96.300781 288.421875 96.769531 288.570312 L 110.457031 292.875 C 110.929688 293.023438 111.191406 293.527344 111.042969 294 C 110.921875 294.382812 110.570312 294.628906 110.1875 294.628906 " fill-opacity="1" fill-rule="nonzero"/><path fill="#1a181a" d="M 97.152344 301.09375 C 96.820312 301.09375 96.5 300.910156 96.34375 300.589844 C 96.125 300.144531 96.308594 299.605469 96.753906 299.386719 L 109.871094 292.960938 C 110.316406 292.746094 110.855469 292.921875 111.074219 293.371094 C 111.292969 293.816406 111.109375 294.355469 110.664062 294.574219 L 97.546875 301.003906 C 97.421875 301.0625 97.285156 301.09375 97.152344 301.09375 " fill-opacity="1" fill-rule="nonzero"/><path fill="#1a181a" d="M 106.832031 309.386719 C 106.769531 309.386719 106.703125 309.378906 106.636719 309.363281 C 106.152344 309.257812 105.847656 308.777344 105.953125 308.292969 L 109.277344 293.34375 C 109.386719 292.859375 109.871094 292.5625 110.347656 292.660156 C 110.832031 292.769531 111.136719 293.25 111.03125 293.734375 L 107.710938 308.683594 C 107.617188 309.101562 107.246094 309.386719 106.832031 309.386719 " fill-opacity="1" fill-rule="nonzero"/><path fill="#1a181a" d="M 118.167969 307.609375 C 117.863281 307.609375 117.5625 307.449219 117.398438 307.167969 L 109.609375 294.113281 C 109.355469 293.6875 109.496094 293.136719 109.921875 292.882812 C 110.347656 292.632812 110.902344 292.765625 111.152344 293.191406 L 118.941406 306.25 C 119.195312 306.671875 119.054688 307.226562 118.628906 307.480469 C 118.484375 307.566406 118.328125 307.609375 118.167969 307.609375 " fill-opacity="1" fill-rule="nonzero"/><path fill="#1a181a" d="M 124.914062 298.847656 C 124.828125 298.847656 124.742188 298.832031 124.652344 298.808594 L 110.089844 294.433594 C 109.617188 294.289062 109.347656 293.789062 109.488281 293.3125 C 109.632812 292.839844 110.125 292.574219 110.609375 292.710938 L 125.171875 297.089844 C 125.648438 297.230469 125.917969 297.730469 125.773438 298.207031 C 125.65625 298.59375 125.300781 298.847656 124.914062 298.847656 " fill-opacity="1" fill-rule="nonzero"/><path fill="#1a181a" d="M 110.269531 294.433594 C 109.921875 294.433594 109.589844 294.230469 109.445312 293.894531 C 109.246094 293.4375 109.457031 292.910156 109.914062 292.710938 L 123.660156 286.792969 C 124.105469 286.59375 124.644531 286.804688 124.839844 287.257812 C 125.035156 287.714844 124.828125 288.242188 124.371094 288.441406 L 110.625 294.359375 C 110.511719 294.410156 110.390625 294.433594 110.269531 294.433594 " fill-opacity="1" fill-rule="nonzero"/><path fill="#1a181a" d="M 110.191406 294.464844 C 110.082031 294.464844 109.972656 294.445312 109.871094 294.40625 C 109.402344 294.230469 109.171875 293.710938 109.347656 293.246094 L 114.519531 279.660156 C 114.699219 279.195312 115.21875 278.96875 115.679688 279.136719 C 116.144531 279.316406 116.378906 279.835938 116.199219 280.296875 L 111.027344 293.886719 C 110.890625 294.246094 110.550781 294.464844 110.191406 294.464844 " fill-opacity="1" fill-rule="nonzero"/><path fill="#f35c6f" d="M 142.921875 124.003906 L 141.445312 128.613281 C 139.257812 131.953125 137.679688 135.535156 138.894531 139.019531 C 139.761719 141.546875 141.4375 143.78125 143.839844 145.335938 L 144.84375 146.007812 C 145.3125 146.308594 145.789062 146.574219 146.28125 146.796875 C 146.375 146.859375 146.480469 146.90625 146.59375 146.960938 C 152.507812 149.558594 158.511719 147.851562 162.050781 142.390625 L 164.214844 139.074219 L 164.75 138.25 C 165.703125 136.808594 166.308594 135.226562 166.605469 133.605469 C 167.445312 128.855469 165.449219 123.832031 161.136719 121.015625 L 160.871094 120.871094 L 160.125 120.386719 C 156.839844 118.242188 152.90625 117.847656 149.445312 118.992188 C 146.855469 119.84375 144.53125 121.550781 142.921875 124.003906 " fill-opacity="1" fill-rule="nonzero"/><path fill="#f35c6f" d="M 127.964844 150.597656 C 129.835938 154.117188 134.203125 155.449219 137.726562 153.574219 C 138.671875 153.074219 139.46875 152.367188 140.09375 151.5625 L 149.257812 139.457031 C 150.546875 137.761719 150.203125 135.339844 148.511719 134.050781 C 147.269531 133.105469 145.648438 133.042969 144.359375 133.71875 L 135.40625 138.472656 L 133.429688 139.527344 L 130.949219 140.84375 C 127.425781 142.714844 126.09375 147.082031 127.964844 150.597656 " fill-opacity="1" fill-rule="nonzero"/><path fill="#f35c6f" d="M 163.597656 143.363281 C 163.65625 144.851562 162.847656 145.640625 161.792969 145.113281 L 159.878906 144.164062 L 163.402344 138.589844 L 163.597656 143.363281 " fill-opacity="1" fill-rule="nonzero"/><path fill="#1a181a" d="M 151.03125 134.667969 C 150.878906 134.667969 150.738281 134.5625 150.699219 134.410156 L 150.078125 131.789062 C 150.035156 131.605469 150.148438 131.425781 150.328125 131.382812 C 150.523438 131.332031 150.691406 131.453125 150.738281 131.632812 L 151.363281 134.25 C 151.40625 134.433594 151.292969 134.617188 151.109375 134.660156 C 151.082031 134.667969 151.058594 134.667969 151.03125 134.667969 " fill-opacity="1" fill-rule="nonzero"/><path fill="#1a181a" d="M 149.734375 136.820312 C 149.699219 136.820312 149.664062 136.816406 149.628906 136.804688 C 147.632812 136.140625 146.550781 133.972656 147.210938 131.972656 C 147.882812 129.972656 150.0625 128.890625 152.046875 129.554688 C 153.019531 129.878906 153.804688 130.558594 154.269531 131.476562 C 154.355469 131.644531 154.285156 131.847656 154.117188 131.933594 C 153.957031 132.019531 153.75 131.949219 153.664062 131.78125 C 153.28125 131.023438 152.632812 130.460938 151.835938 130.199219 C 150.191406 129.648438 148.40625 130.539062 147.855469 132.183594 C 147.3125 133.832031 148.203125 135.613281 149.84375 136.160156 C 150.023438 136.21875 150.117188 136.410156 150.058594 136.589844 C 150.011719 136.730469 149.878906 136.820312 149.734375 136.820312 " fill-opacity="1" fill-rule="nonzero"/><path fill="#1a181a" d="M 148.183594 147.84375 C 148.160156 147.84375 148.132812 147.839844 148.109375 147.835938 C 147.925781 147.792969 143.546875 146.761719 141.035156 142.320312 C 140.941406 142.15625 141 141.949219 141.164062 141.859375 C 141.324219 141.765625 141.53125 141.820312 141.625 141.988281 C 143.988281 146.171875 148.214844 147.164062 148.257812 147.171875 C 148.441406 147.214844 148.554688 147.394531 148.515625 147.578125 C 148.480469 147.738281 148.339844 147.84375 148.183594 147.84375 " fill-opacity="1" fill-rule="nonzero"/><path fill="#1a181a" d="M 159.96875 139.324219 C 159.769531 139.324219 159.609375 139.164062 159.601562 138.96875 C 159.597656 138.765625 159.757812 138.597656 159.960938 138.59375 L 162.648438 138.527344 C 162.648438 138.523438 162.652344 138.523438 162.65625 138.523438 C 162.851562 138.523438 163.015625 138.683594 163.023438 138.878906 C 163.027344 139.085938 162.867188 139.25 162.664062 139.253906 L 159.976562 139.324219 C 159.972656 139.324219 159.972656 139.324219 159.96875 139.324219 " fill-opacity="1" fill-rule="nonzero"/><path fill="#1a181a" d="M 176.6875 131.121094 C 177.199219 128.953125 175 126.523438 171.601562 125.28125 C 172.839844 124.144531 173.460938 122.816406 173.078125 121.648438 C 172.429688 119.65625 169.140625 118.933594 165.71875 120.042969 C 165.304688 120.179688 164.898438 120.339844 164.515625 120.515625 C 164.921875 118.652344 164.503906 116.984375 163.382812 116.542969 C 162.578125 116.226562 161.597656 116.632812 160.753906 117.492188 C 160.300781 114.675781 158.792969 112.601562 157.015625 112.621094 C 155.800781 112.640625 154.75 113.636719 154.070312 115.140625 C 152.21875 112.910156 149.859375 111.839844 148.234375 112.730469 C 146.847656 113.492188 146.382812 115.480469 146.832031 117.765625 C 144.113281 116.703125 141.6875 116.75 140.835938 118.070312 C 140.285156 118.933594 140.503906 120.171875 141.300781 121.492188 C 140.367188 122.007812 139.699219 122.75 139.472656 123.679688 C 139.226562 124.6875 139.558594 125.742188 140.265625 126.6875 C 138.335938 127.300781 137.066406 128.265625 137.152344 129.246094 C 137.214844 129.992188 138.054688 130.589844 139.320312 130.949219 C 137.5 131.785156 136.359375 133.183594 136.660156 134.484375 C 137.03125 136.113281 139.492188 136.9375 142.15625 136.328125 C 144.53125 135.796875 146.25 134.296875 146.34375 132.832031 L 146.429688 132.847656 C 146.609375 131.359375 147.300781 130.539062 148.117188 130.09375 C 148.191406 130.054688 148.269531 130.023438 148.335938 129.984375 C 149.699219 129.355469 151.265625 129.664062 151.265625 129.664062 L 151.453125 129.78125 L 151.621094 129.75 C 152.898438 130.429688 154.855469 132.015625 153.148438 134.917969 L 152.421875 135.800781 C 151.84375 136.507812 151.949219 137.550781 152.652344 138.128906 C 153.359375 138.707031 154.402344 138.605469 154.984375 137.898438 L 158.027344 134.183594 C 159.242188 134.800781 161.1875 134.871094 163.621094 131.78125 C 164.765625 132.648438 166.257812 133.367188 167.984375 133.777344 C 172.199219 134.78125 176.101562 133.589844 176.6875 131.121094 " fill-opacity="1" fill-rule="nonzero"/><path fill="#f35c6f" d="M 99.441406 263.109375 L 100.949219 279.640625 L 122.300781 281.742188 L 121.851562 260.101562 L 99.441406 263.109375 " fill-opacity="1" fill-rule="nonzero"/><path fill="#6657b0" d="M 126.609375 268.121094 L 94.523438 272.738281 C 94.410156 272.214844 94.320312 271.671875 94.269531 271.113281 L 90.261719 233.097656 L 63.101562 199.882812 C 57.433594 192.957031 58.464844 182.734375 65.410156 177.050781 C 72.34375 171.390625 82.574219 172.417969 88.257812 179.359375 L 118.488281 216.328125 C 120.488281 218.761719 121.734375 221.738281 122.0625 224.894531 L 126.574219 267.722656 C 126.8125 268.820312 126.589844 267.996094 126.609375 268.121094 " fill-opacity="1" fill-rule="nonzero"/><path fill="#f35c6f" d="M 154.183594 218.25 C 156.550781 220.367188 162.496094 222.398438 167.464844 222.789062 L 169.550781 222.953125 C 174.519531 223.34375 180.371094 219.421875 178.390625 214.851562 C 176.816406 211.207031 172.757812 207.5 163.207031 206.074219 L 153.054688 195.03125 L 149.898438 214.417969 C 149.898438 214.417969 151.816406 216.132812 154.183594 218.25 " fill-opacity="1" fill-rule="nonzero"/><path fill="#73d0d1" d="M 138.488281 162.269531 L 138.507812 162.285156 C 137.949219 162.808594 137.589844 163.136719 137.589844 163.136719 L 105.988281 191.988281 C 101.296875 195.578125 99.816406 192.800781 99.816406 192.800781 L 67.109375 176.09375 C 72.070312 162.117188 105.859375 141.585938 105.859375 141.585938 C 129.140625 127.824219 134.878906 141.0625 134.878906 141.0625 C 136.015625 146.617188 138.527344 149.628906 140.4375 151.160156 L 140.402344 151.214844 C 142.207031 157.921875 138.488281 162.269531 138.488281 162.269531 " fill-opacity="1" fill-rule="nonzero"/><path fill="#1a181a" d="M 131.984375 304.621094 C 131.558594 304.652344 131.125 304.621094 130.691406 304.523438 L 118.289062 301.757812 C 115.855469 301.222656 114.324219 298.8125 114.867188 296.378906 C 115.410156 293.949219 117.828125 292.414062 120.253906 292.960938 L 132.652344 295.722656 C 135.085938 296.265625 136.617188 298.675781 136.074219 301.105469 C 135.628906 303.097656 133.925781 304.488281 131.984375 304.621094 " fill-opacity="1" fill-rule="nonzero"/><path fill="#6657b0" d="M 99.339844 291.800781 C 97.042969 291.320312 95.585938 289.074219 96.078125 286.785156 L 98.292969 276.394531 L 98.535156 275.320312 L 98.722656 274.433594 L 102.675781 275.273438 L 120.585938 279.082031 C 120.640625 279.121094 120.6875 279.164062 120.742188 279.1875 C 138.511719 291.902344 137.835938 299.832031 137.835938 299.832031 L 99.339844 291.800781 " fill-opacity="1" fill-rule="nonzero"/><path fill="#6657b0" d="M 102.675781 275.273438 C 102.671875 275.285156 102.671875 275.285156 102.671875 275.285156 L 98.480469 276.347656 L 98.292969 276.394531 L 98.535156 275.320312 C 98.570312 274.878906 98.628906 274.429688 98.722656 273.988281 L 99.691406 269.367188 C 102.179688 271.070312 102.640625 274.945312 102.675781 275.273438 " fill-opacity="1" fill-rule="nonzero"/><path fill="#6657b0" d="M 116.714844 284.113281 C 115.929688 283.949219 115.195312 283.523438 114.660156 282.84375 C 113.453125 281.308594 113.71875 279.085938 115.253906 277.882812 L 122.019531 272.554688 C 123.554688 271.351562 125.78125 271.617188 126.988281 273.148438 C 128.195312 274.683594 127.925781 276.90625 126.398438 278.109375 L 119.625 283.4375 C 118.765625 284.105469 117.703125 284.320312 116.714844 284.113281 " fill-opacity="1" fill-rule="nonzero"/><path fill="#1a181a" d="M 120.351562 286.09375 C 120.105469 286.09375 119.871094 285.964844 119.738281 285.738281 C 119.542969 285.402344 119.660156 284.96875 120 284.773438 L 124.925781 281.949219 C 125.265625 281.753906 125.691406 281.871094 125.890625 282.210938 C 126.085938 282.550781 125.96875 282.980469 125.628906 283.175781 L 120.703125 286 C 120.589844 286.0625 120.472656 286.09375 120.351562 286.09375 " fill-opacity="1" fill-rule="nonzero"/><path fill="#1a181a" d="M 122.476562 287.894531 C 122.230469 287.894531 121.996094 287.765625 121.863281 287.539062 C 121.671875 287.199219 121.789062 286.769531 122.125 286.574219 L 127.042969 283.75 C 127.382812 283.554688 127.8125 283.675781 128.007812 284.007812 C 128.203125 284.347656 128.085938 284.78125 127.746094 284.972656 L 122.828125 287.796875 C 122.71875 287.859375 122.597656 287.894531 122.476562 287.894531 " fill-opacity="1" fill-rule="nonzero"/><path fill="#1a181a" d="M 124.820312 289.644531 C 124.578125 289.644531 124.339844 289.515625 124.207031 289.289062 C 124.015625 288.953125 124.132812 288.519531 124.46875 288.328125 L 129.390625 285.503906 C 129.730469 285.304688 130.160156 285.425781 130.355469 285.761719 C 130.550781 286.101562 130.433594 286.53125 130.09375 286.726562 L 125.171875 289.550781 C 125.0625 289.613281 124.941406 289.644531 124.820312 289.644531 " fill-opacity="1" fill-rule="nonzero"/><path fill="#73d0d1" d="M 149.589844 218.109375 L 129.441406 192.558594 C 128.480469 191.347656 127.796875 189.945312 127.429688 188.449219 L 119.757812 157.265625 L 140.785156 152.097656 L 147.898438 181.003906 L 166.597656 204.714844 L 149.589844 218.109375 " fill-opacity="1" fill-rule="nonzero"/><path fill="#1a181a" d="M 127.414062 189.621094 C 127.210938 189.621094 127.023438 189.480469 126.976562 189.273438 L 121.5625 166.734375 C 121.503906 166.492188 121.652344 166.246094 121.894531 166.1875 C 122.128906 166.128906 122.378906 166.28125 122.441406 166.523438 L 127.855469 189.0625 C 127.910156 189.308594 127.761719 189.550781 127.519531 189.609375 C 127.484375 189.617188 127.449219 189.621094 127.414062 189.621094 " fill-opacity="1" fill-rule="nonzero"/><path fill="#f35c6f" d="M 184.398438 149.488281 C 185.867188 146.953125 182.664062 141.839844 180.261719 146.304688 C 180.742188 144.964844 180.25 142.675781 178.476562 142.722656 C 176.835938 142.765625 176 144.21875 175.210938 145.402344 C 174.011719 147.183594 173.757812 144.25 173.109375 143.578125 C 172.535156 142.984375 171.300781 142.605469 170.878906 143.558594 C 170.707031 143.941406 170.804688 144.511719 170.667969 144.945312 C 170.5 145.488281 170.253906 146.011719 170.019531 146.527344 C 169.546875 147.589844 168.96875 148.609375 168.566406 149.703125 C 168.109375 150.949219 168.144531 151.847656 168.25 153.117188 C 168.417969 155.097656 169.019531 157.066406 170.285156 158.628906 C 172.679688 161.582031 177.167969 163.609375 180.59375 161.273438 C 182.839844 159.742188 184.753906 157.265625 185.746094 154.894531 C 186.398438 153.386719 187.570312 147.855469 184.398438 149.488281 " fill-opacity="1" fill-rule="nonzero"/><path fill="#1a181a" d="M 178.425781 149.507812 C 178.339844 149.507812 178.253906 149.484375 178.175781 149.433594 C 177.96875 149.296875 177.914062 149.015625 178.050781 148.808594 L 179.886719 146.054688 C 180.027344 145.84375 180.308594 145.792969 180.511719 145.929688 C 180.722656 146.066406 180.777344 146.347656 180.640625 146.554688 L 178.800781 149.308594 C 178.714844 149.4375 178.570312 149.507812 178.425781 149.507812 " fill-opacity="1" fill-rule="nonzero"/><path fill="#1a181a" d="M 182.679688 152.675781 C 182.59375 152.675781 182.507812 152.648438 182.429688 152.597656 C 182.222656 152.460938 182.167969 152.179688 182.304688 151.972656 L 184.140625 149.21875 C 184.28125 149.011719 184.558594 148.957031 184.765625 149.09375 C 184.972656 149.230469 185.027344 149.511719 184.890625 149.71875 L 183.054688 152.472656 C 182.96875 152.605469 182.824219 152.675781 182.679688 152.675781 " fill-opacity="1" fill-rule="nonzero"/><path fill="#cdb9e2" d="M 43.105469 70.839844 C 44.386719 67.578125 53.933594 60.628906 53.933594 60.628906 C 53.933594 60.628906 56.214844 72.203125 54.933594 75.472656 C 53.65625 78.734375 49.972656 80.34375 46.703125 79.066406 C 43.4375 77.785156 41.828125 74.105469 43.105469 70.839844 " fill-opacity="1" fill-rule="nonzero"/><path fill="#cdb9e2" d="M 20.679688 131.761719 C 21.441406 129.8125 27.132812 125.667969 27.132812 125.667969 C 27.132812 125.667969 28.496094 132.574219 27.734375 134.519531 C 26.96875 136.46875 24.773438 137.429688 22.824219 136.667969 C 20.875 135.902344 19.914062 133.707031 20.679688 131.761719 " fill-opacity="1" fill-rule="nonzero"/><path fill="#cdb9e2" d="M 31.726562 104.105469 C 32.582031 101.921875 38.957031 97.28125 38.957031 97.28125 C 38.957031 97.28125 40.480469 105.015625 39.625 107.195312 C 38.773438 109.375 36.3125 110.449219 34.132812 109.597656 C 31.949219 108.742188 30.871094 106.28125 31.726562 104.105469 " fill-opacity="1" fill-rule="nonzero"/><path fill="#cdb9e2" d="M 11.542969 112.28125 C 12.398438 110.097656 18.773438 105.457031 18.773438 105.457031 C 18.773438 105.457031 20.296875 113.191406 19.445312 115.371094 C 18.589844 117.550781 16.128906 118.625 13.949219 117.773438 C 11.765625 116.917969 10.6875 114.457031 11.542969 112.28125 " fill-opacity="1" fill-rule="nonzero"/><path fill="#cdb9e2" d="M 21.910156 87.207031 C 22.761719 85.023438 29.136719 80.382812 29.136719 80.382812 C 29.136719 80.382812 30.664062 88.117188 29.808594 90.296875 C 28.953125 92.476562 26.496094 93.550781 24.3125 92.699219 C 22.128906 91.84375 21.050781 89.382812 21.910156 87.207031 " fill-opacity="1" fill-rule="nonzero"/><path fill="#cdb9e2" d="M 49.871094 96.445312 C 51.011719 93.535156 59.53125 87.335938 59.53125 87.335938 C 59.53125 87.335938 61.570312 97.664062 60.425781 100.578125 C 59.285156 103.492188 55.996094 104.925781 53.082031 103.785156 C 50.164062 102.644531 48.730469 99.359375 49.871094 96.445312 " fill-opacity="1" fill-rule="nonzero"/></svg>