<svg xmlns="http://www.w3.org/2000/svg" xmlns:xlink="http://www.w3.org/1999/xlink" width="320" zoomAndPan="magnify" viewBox="0 0 240 359.999987" height="480" preserveAspectRatio="xMidYMid meet" version="1.0"><path fill="#f09a88" d="M 173.851562 216.421875 C 173.851562 216.421875 173.855469 224.738281 178.988281 226.390625 L 181.609375 216.421875 L 173.851562 216.421875 " fill-opacity="1" fill-rule="nonzero"/><path fill="#f09a88" d="M 224.835938 216.421875 C 224.835938 216.421875 224.832031 224.738281 218.804688 226.390625 L 215.722656 216.421875 L 224.835938 216.421875 " fill-opacity="1" fill-rule="nonzero"/><path fill="#ee538e" d="M 198.355469 291.925781 C 198.355469 291.925781 194.253906 292 188.53125 291.925781 C 188.53125 291.925781 173.828125 302.371094 173.851562 304.488281 C 173.875 306.339844 193.113281 305.03125 197.46875 304.746094 C 198.050781 304.707031 198.519531 304.257812 198.578125 303.675781 C 198.738281 302.066406 198.789062 298.046875 198.355469 291.925781 " fill-opacity="1" fill-rule="nonzero"/><path fill="#ee538e" d="M 220.566406 291.785156 C 220.566406 291.785156 216.464844 291.859375 210.742188 291.785156 C 210.742188 291.785156 196.039062 302.230469 196.066406 304.347656 C 196.085938 306.199219 215.324219 304.890625 219.679688 304.605469 C 220.261719 304.570312 220.734375 304.117188 220.789062 303.535156 C 220.949219 301.925781 221 297.910156 220.566406 291.785156 " fill-opacity="1" fill-rule="nonzero"/><path fill="#f04151" d="M 184.121094 293.101562 C 184.121094 293.101562 177.429688 264.980469 177.308594 252.347656 L 180.03125 210.230469 L 219.605469 209.488281 L 218.550781 251.292969 C 218.550781 251.292969 222.140625 285.546875 222.015625 293.101562 L 206.539062 293.101562 C 206.539062 293.101562 197.496094 260.894531 197.125 256.558594 L 199.664062 293.101562 L 184.121094 293.101562 " fill-opacity="1" fill-rule="nonzero"/><path fill="#f09a88" d="M 122.40625 175.464844 L 127.003906 182.304688 L 131.058594 178.714844 L 126.734375 170.894531 L 122.40625 175.464844 " fill-opacity="1" fill-rule="nonzero"/><path fill="#f46e6d" d="M 193.03125 149.277344 L 194.78125 150.183594 C 197.773438 151.734375 201.359375 151.605469 204.234375 149.847656 L 205.167969 149.277344 L 205.167969 138.445312 L 193.03125 138.445312 L 193.03125 149.277344 " fill-opacity="1" fill-rule="nonzero"/><path fill="#f09a88" d="M 60.742188 244.808594 L 60.742188 252.710938 C 60.742188 256.058594 60.027344 259.363281 58.652344 262.433594 C 58.175781 263.488281 57.625 264.519531 57 265.511719 L 41.355469 290.289062 L 27.835938 284.585938 L 39.363281 259.957031 C 40.675781 257.148438 41.355469 254.121094 41.355469 251.058594 L 41.355469 242.855469 L 60.742188 244.808594 " fill-opacity="1" fill-rule="nonzero"/><path fill="#f09a88" d="M 91.804688 290.308594 L 77.835938 290.308594 L 69.789062 255.800781 L 87.777344 242.835938 L 88.277344 248.726562 L 89.464844 262.710938 L 91.804688 290.308594 " fill-opacity="1" fill-rule="nonzero"/><path fill="#f57a79" d="M 60.742188 248.726562 L 60.742188 252.710938 C 60.742188 256.058594 60.027344 259.363281 58.652344 262.433594 C 55.976562 261.421875 54.070312 258.832031 54.070312 255.800781 C 54.070312 252.023438 57.027344 248.9375 60.742188 248.726562 " fill-opacity="1" fill-rule="nonzero"/><path fill="#f57a79" d="M 89.464844 262.710938 C 88.957031 262.832031 88.429688 262.894531 87.882812 262.894531 C 83.972656 262.894531 80.796875 259.71875 80.796875 255.800781 C 80.796875 251.886719 83.972656 248.710938 87.882812 248.710938 C 88.015625 248.710938 88.148438 248.714844 88.277344 248.726562 L 89.464844 262.710938 " fill-opacity="1" fill-rule="nonzero"/><path fill="#f04151" d="M 72.726562 143.027344 C 72.726562 143.027344 72.511719 149.484375 77.273438 154.863281 C 82.039062 160.246094 72.816406 165.011719 68.359375 161.78125 C 63.902344 158.554688 72.726562 143.027344 72.726562 143.027344 " fill-opacity="1" fill-rule="nonzero"/><path fill="#f04151" d="M 45.097656 124.046875 C 45.097656 124.046875 41.308594 128.582031 41.925781 133.652344 C 42.539062 138.722656 41.464844 139.339844 39.925781 139.957031 C 38.390625 140.570312 31.628906 141.644531 32.089844 145.335938 C 32.550781 149.023438 35.316406 149.175781 34.855469 151.484375 C 34.394531 153.789062 29.167969 159.015625 33.777344 163.628906 C 38.390625 168.238281 41.320312 161.78125 43.929688 163.011719 C 46.535156 164.242188 50.070312 169.609375 54.988281 165.3125 C 59.90625 161.015625 52.59375 150.308594 52.59375 150.308594 L 45.097656 124.046875 " fill-opacity="1" fill-rule="nonzero"/><path fill="#f46e6d" d="M 55.449219 160.835938 L 57.21875 161.75 C 60.242188 163.316406 63.863281 163.1875 66.765625 161.414062 L 67.710938 160.835938 L 67.710938 149.894531 L 55.449219 149.894531 L 55.449219 160.835938 " fill-opacity="1" fill-rule="nonzero"/><path fill="#f09a88" d="M 72.546875 148.441406 C 72.492188 148.753906 72.425781 149.050781 72.355469 149.332031 C 70.972656 154.714844 65.59375 157.480469 59.136719 154.714844 C 52.683594 151.945312 51.144531 148.257812 51.144531 148.257812 C 51.144531 148.257812 45 147.792969 44.078125 143.953125 C 43.15625 140.109375 46.6875 136.878906 50.53125 139.953125 C 50.53125 139.953125 55.757812 118.125 72.355469 133.804688 C 72.355469 133.804688 72.785156 137.398438 72.894531 141.367188 C 72.960938 143.835938 72.90625 146.449219 72.546875 148.441406 " fill-opacity="1" fill-rule="nonzero"/><path fill="#f35d54" d="M 50.6875 143.402344 C 50.542969 143.402344 50.402344 143.316406 50.34375 143.171875 C 50.296875 143.066406 49.1875 140.515625 46.910156 140.933594 C 46.707031 140.972656 46.515625 140.839844 46.476562 140.636719 C 46.441406 140.433594 46.574219 140.242188 46.777344 140.203125 C 49.066406 139.777344 50.558594 141.773438 51.027344 142.882812 C 51.105469 143.074219 51.019531 143.292969 50.828125 143.371094 C 50.78125 143.390625 50.734375 143.402344 50.6875 143.402344 " fill-opacity="1" fill-rule="nonzero"/><path fill="#f04151" d="M 50.53125 139.957031 C 50.53125 139.957031 59.78125 140.847656 63.929688 131.777344 C 63.929688 131.777344 68.109375 137.492188 73.105469 137.507812 C 73.105469 137.507812 73.429688 124.996094 65.902344 121.355469 C 56.679688 116.898438 45.722656 121.753906 44.640625 124.828125 C 43.558594 127.90625 42.089844 131.195312 43.929688 134.265625 C 45.765625 137.34375 50.53125 139.957031 50.53125 139.957031 " fill-opacity="1" fill-rule="nonzero"/><path fill="#f57a79" d="M 64.78125 145.285156 C 64.867188 147.261719 63.328125 148.933594 61.347656 149.015625 C 59.371094 149.097656 57.699219 147.558594 57.617188 145.582031 C 57.535156 143.601562 59.070312 141.929688 61.050781 141.847656 C 63.03125 141.765625 64.699219 143.304688 64.78125 145.285156 " fill-opacity="1" fill-rule="nonzero"/><path fill="#f57a79" d="M 72.546875 148.4375 C 70.980469 148.109375 69.777344 146.753906 69.707031 145.082031 C 69.628906 143.179688 71.035156 141.570312 72.894531 141.367188 C 72.960938 143.835938 72.90625 146.449219 72.546875 148.4375 " fill-opacity="1" fill-rule="nonzero"/><path fill="#f35f58" d="M 67.296875 140.625 L 65.195312 147.597656 L 69.007812 147.707031 L 67.296875 140.625 " fill-opacity="1" fill-rule="nonzero"/><path fill="#3c465e" d="M 67.230469 151.265625 C 65.628906 151.265625 64.542969 150.21875 64.523438 150.203125 C 64.378906 150.058594 64.378906 149.824219 64.523438 149.675781 C 64.664062 149.53125 64.898438 149.53125 65.046875 149.675781 C 65.128906 149.757812 67.042969 151.570312 69.472656 149.648438 C 69.632812 149.519531 69.867188 149.546875 69.992188 149.710938 C 70.121094 149.871094 70.09375 150.101562 69.933594 150.230469 C 68.949219 151.007812 68.023438 151.265625 67.230469 151.265625 " fill-opacity="1" fill-rule="nonzero"/><path fill="#3c465e" d="M 63.929688 142.34375 C 63.84375 142.34375 63.753906 142.3125 63.683594 142.25 C 63.03125 141.667969 62.410156 141.402344 61.835938 141.472656 C 61.097656 141.558594 60.65625 142.175781 60.652344 142.183594 C 60.535156 142.351562 60.304688 142.390625 60.132812 142.277344 C 59.96875 142.160156 59.925781 141.929688 60.039062 141.761719 C 60.0625 141.726562 60.664062 140.867188 61.738281 140.734375 C 62.535156 140.640625 63.355469 140.960938 64.179688 141.695312 C 64.332031 141.832031 64.34375 142.066406 64.207031 142.21875 C 64.136719 142.300781 64.035156 142.34375 63.929688 142.34375 " fill-opacity="1" fill-rule="nonzero"/><path fill="#3c465e" d="M 73.105469 141.902344 C 73.015625 141.902344 72.929688 141.871094 72.859375 141.808594 C 72.203125 141.226562 71.582031 140.964844 71.007812 141.03125 C 70.269531 141.117188 69.828125 141.738281 69.824219 141.742188 C 69.707031 141.910156 69.472656 141.953125 69.308594 141.835938 C 69.136719 141.71875 69.097656 141.488281 69.210938 141.320312 C 69.234375 141.285156 69.835938 140.425781 70.910156 140.296875 C 71.707031 140.199219 72.527344 140.523438 73.351562 141.253906 C 73.503906 141.390625 73.519531 141.625 73.382812 141.777344 C 73.308594 141.859375 73.207031 141.902344 73.105469 141.902344 " fill-opacity="1" fill-rule="nonzero"/><path fill="#7c89c6" d="M 68.4375 158.742188 C 68.4375 158.742188 63.335938 160.96875 56.234375 159.371094 C 56.234375 159.371094 37.945312 165.054688 34.394531 170.027344 C 30.84375 175 27.824219 180.859375 26.582031 190.09375 C 25.339844 199.328125 23.917969 212.46875 24.984375 214.601562 C 26.050781 216.730469 29.425781 222.769531 37.234375 222.234375 L 35.105469 255.800781 L 98.136719 255.800781 L 84.667969 193.121094 C 84.667969 193.121094 96.714844 199.507812 101.507812 199.507812 C 106.304688 199.507812 116.25 195.5625 127.84375 183.210938 L 121.945312 174.429688 L 102.929688 180.089844 C 102.929688 180.089844 82.136719 163.804688 77.183594 161.660156 C 72.304688 159.550781 68.4375 158.742188 68.4375 158.742188 " fill-opacity="1" fill-rule="nonzero"/><path fill="#3c465e" d="M 40.789062 206.09375 C 40.773438 206.09375 40.757812 206.09375 40.742188 206.089844 C 40.539062 206.066406 40.394531 205.878906 40.417969 205.675781 L 42.519531 188.628906 C 42.546875 188.425781 42.734375 188.28125 42.933594 188.304688 C 43.136719 188.332031 43.285156 188.515625 43.257812 188.71875 L 41.15625 205.769531 C 41.132812 205.957031 40.972656 206.09375 40.789062 206.09375 " fill-opacity="1" fill-rule="nonzero"/><path fill="#3c465e" d="M 85.351562 196.679688 C 85.179688 196.679688 85.027344 196.5625 84.988281 196.386719 L 80.726562 176.320312 C 80.683594 176.121094 80.8125 175.921875 81.015625 175.878906 C 81.214844 175.835938 81.414062 175.964844 81.453125 176.167969 L 85.714844 196.230469 C 85.757812 196.433594 85.628906 196.628906 85.429688 196.671875 C 85.402344 196.675781 85.378906 196.679688 85.351562 196.679688 " fill-opacity="1" fill-rule="nonzero"/><path fill="#3c465e" d="M 90.503906 252.445312 L 35.34375 252.445312 C 35.136719 252.445312 34.96875 252.28125 34.96875 252.074219 C 34.96875 251.871094 35.136719 251.703125 35.34375 251.703125 L 90.503906 251.703125 C 90.707031 251.703125 90.875 251.871094 90.875 252.074219 C 90.875 252.28125 90.707031 252.445312 90.503906 252.445312 " fill-opacity="1" fill-rule="nonzero"/><path fill="#f3b6a9" d="M 57.675781 144.757812 C 57.058594 143.996094 56.691406 143.027344 56.691406 141.972656 C 56.691406 139.523438 58.671875 137.542969 61.117188 137.542969 C 63.5625 137.542969 65.546875 139.523438 65.546875 141.972656 C 65.546875 142.953125 65.226562 143.859375 64.6875 144.59375 C 64.308594 143.007812 62.878906 141.84375 61.203125 141.84375 C 61.152344 141.84375 61.101562 141.847656 61.050781 141.847656 C 61.023438 141.851562 61 141.851562 60.972656 141.851562 C 61.175781 141.6875 61.472656 141.515625 61.835938 141.472656 C 61.894531 141.464844 61.953125 141.460938 62.015625 141.460938 C 62.535156 141.460938 63.097656 141.726562 63.683594 142.25 C 63.757812 142.3125 63.84375 142.34375 63.933594 142.34375 C 64.035156 142.34375 64.136719 142.300781 64.210938 142.21875 C 64.34375 142.066406 64.332031 141.832031 64.179688 141.695312 C 63.453125 141.046875 62.722656 140.71875 62.015625 140.71875 C 61.921875 140.71875 61.832031 140.722656 61.738281 140.734375 C 60.664062 140.867188 60.066406 141.726562 60.039062 141.761719 C 59.976562 141.851562 59.960938 141.957031 59.984375 142.054688 C 58.800781 142.484375 57.914062 143.511719 57.675781 144.757812 " fill-opacity="1" fill-rule="nonzero"/><path fill="#f89d9c" d="M 61.117188 146.398438 C 59.726562 146.398438 58.488281 145.761719 57.675781 144.757812 C 57.914062 143.511719 58.800781 142.484375 59.984375 142.058594 C 60.003906 142.144531 60.054688 142.222656 60.132812 142.277344 C 60.199219 142.320312 60.273438 142.339844 60.34375 142.339844 C 60.460938 142.339844 60.578125 142.285156 60.652344 142.183594 C 60.652344 142.179688 60.765625 142.019531 60.972656 141.851562 C 61 141.851562 61.023438 141.851562 61.050781 141.847656 C 61.101562 141.847656 61.152344 141.847656 61.203125 141.847656 C 62.878906 141.847656 64.308594 143.007812 64.6875 144.59375 C 63.878906 145.691406 62.582031 146.398438 61.117188 146.398438 " fill-opacity="1" fill-rule="nonzero"/><path fill="#717a8b" d="M 63.929688 142.34375 C 63.84375 142.34375 63.757812 142.3125 63.683594 142.25 C 63.097656 141.726562 62.535156 141.460938 62.015625 141.460938 C 61.953125 141.460938 61.894531 141.464844 61.835938 141.472656 C 61.472656 141.515625 61.175781 141.6875 60.972656 141.851562 C 60.765625 142.019531 60.652344 142.179688 60.652344 142.183594 C 60.578125 142.285156 60.464844 142.339844 60.34375 142.339844 C 60.273438 142.339844 60.199219 142.320312 60.132812 142.277344 C 60.054688 142.222656 60.003906 142.144531 59.984375 142.054688 C 59.960938 141.957031 59.976562 141.851562 60.039062 141.761719 C 60.066406 141.726562 60.664062 140.867188 61.738281 140.734375 C 61.832031 140.726562 61.921875 140.71875 62.015625 140.71875 C 62.722656 140.71875 63.453125 141.046875 64.179688 141.695312 C 64.332031 141.832031 64.34375 142.066406 64.207031 142.21875 C 64.136719 142.300781 64.035156 142.34375 63.929688 142.34375 " fill-opacity="1" fill-rule="nonzero"/><path fill="#6f7375" d="M 61.117188 137.914062 C 58.882812 137.914062 57.0625 139.734375 57.0625 141.972656 C 57.0625 144.210938 58.882812 146.03125 61.117188 146.03125 C 63.355469 146.03125 65.175781 144.210938 65.175781 141.972656 C 65.175781 139.734375 63.355469 137.914062 61.117188 137.914062 Z M 61.117188 146.773438 C 58.472656 146.773438 56.320312 144.617188 56.320312 141.972656 C 56.320312 139.324219 58.472656 137.171875 61.117188 137.171875 C 63.765625 137.171875 65.917969 139.324219 65.917969 141.972656 C 65.917969 144.617188 63.765625 146.773438 61.117188 146.773438 " fill-opacity="1" fill-rule="nonzero"/><path fill="#ffffff" d="M 73.070312 146.269531 C 72.988281 145.867188 72.925781 145.488281 72.878906 145.148438 C 72.90625 144.484375 72.921875 143.800781 72.921875 143.117188 C 72.921875 142.691406 72.914062 142.265625 72.90625 141.84375 C 72.96875 141.882812 73.035156 141.902344 73.105469 141.902344 C 73.207031 141.902344 73.308594 141.859375 73.382812 141.777344 C 73.519531 141.625 73.503906 141.390625 73.351562 141.253906 C 73.195312 141.113281 73.035156 140.988281 72.878906 140.875 C 72.839844 139.671875 72.769531 138.511719 72.695312 137.492188 C 72.832031 137.503906 72.96875 137.507812 73.105469 137.507812 C 73.105469 137.507812 73.105469 137.480469 73.105469 137.425781 C 75.273438 137.5625 76.992188 139.488281 76.992188 141.84375 C 76.992188 144.214844 75.253906 146.148438 73.070312 146.269531 " fill-opacity="1" fill-rule="nonzero"/><path fill="#f46c7e" d="M 72.855469 146.273438 C 72.839844 146.273438 72.824219 146.273438 72.8125 146.273438 C 72.839844 145.90625 72.859375 145.53125 72.878906 145.148438 C 72.925781 145.492188 72.988281 145.867188 73.066406 146.269531 C 72.996094 146.273438 72.925781 146.273438 72.855469 146.273438 " fill-opacity="1" fill-rule="nonzero"/><path fill="#f3b6a9" d="M 69.710938 144.726562 C 69.089844 143.953125 68.714844 142.945312 68.714844 141.847656 C 68.714844 139.601562 70.273438 137.75 72.296875 137.457031 C 72.429688 137.472656 72.5625 137.484375 72.695312 137.496094 C 72.769531 138.511719 72.839844 139.671875 72.878906 140.878906 C 72.308594 140.480469 71.742188 140.277344 71.1875 140.277344 C 71.09375 140.277344 71.003906 140.285156 70.910156 140.292969 C 69.835938 140.425781 69.238281 141.285156 69.210938 141.320312 C 69.097656 141.488281 69.140625 141.71875 69.308594 141.835938 C 69.371094 141.878906 69.445312 141.902344 69.515625 141.902344 C 69.636719 141.902344 69.75 141.847656 69.824219 141.742188 C 69.828125 141.738281 70.269531 141.117188 71.007812 141.03125 C 71.066406 141.023438 71.125 141.019531 71.183594 141.019531 C 71.574219 141.019531 71.984375 141.164062 72.410156 141.457031 C 70.910156 141.832031 69.800781 143.148438 69.710938 144.726562 " fill-opacity="1" fill-rule="nonzero"/><path fill="#f46c7e" d="M 73.105469 137.507812 C 72.96875 137.507812 72.832031 137.503906 72.695312 137.496094 C 72.5625 137.484375 72.429688 137.472656 72.296875 137.457031 C 72.476562 137.429688 72.664062 137.414062 72.855469 137.414062 C 72.9375 137.414062 73.023438 137.417969 73.105469 137.425781 C 73.105469 137.480469 73.105469 137.507812 73.105469 137.507812 " fill-opacity="1" fill-rule="nonzero"/><path fill="#f89d9c" d="M 72.8125 146.273438 C 71.570312 146.261719 70.460938 145.664062 69.710938 144.726562 C 69.800781 143.148438 70.910156 141.832031 72.410156 141.457031 C 72.558594 141.554688 72.707031 141.671875 72.859375 141.808594 C 72.871094 141.820312 72.890625 141.832031 72.90625 141.84375 C 72.914062 142.265625 72.917969 142.691406 72.917969 143.117188 C 72.917969 143.800781 72.90625 144.484375 72.878906 145.148438 C 72.863281 145.53125 72.839844 145.90625 72.8125 146.273438 " fill-opacity="1" fill-rule="nonzero"/><path fill="#717a8b" d="M 73.105469 141.902344 C 73.035156 141.902344 72.964844 141.882812 72.90625 141.84375 C 72.886719 141.832031 72.875 141.824219 72.855469 141.808594 C 72.707031 141.675781 72.558594 141.554688 72.410156 141.457031 C 71.984375 141.167969 71.574219 141.019531 71.183594 141.019531 C 71.125 141.019531 71.066406 141.023438 71.007812 141.03125 C 70.269531 141.117188 69.828125 141.738281 69.824219 141.742188 C 69.75 141.847656 69.636719 141.902344 69.515625 141.902344 C 69.445312 141.902344 69.371094 141.878906 69.308594 141.835938 C 69.140625 141.71875 69.097656 141.488281 69.210938 141.320312 C 69.238281 141.285156 69.835938 140.425781 70.910156 140.296875 C 71.003906 140.285156 71.09375 140.277344 71.1875 140.277344 C 71.742188 140.277344 72.308594 140.480469 72.878906 140.878906 C 73.035156 140.988281 73.195312 141.113281 73.351562 141.253906 C 73.503906 141.390625 73.519531 141.625 73.382812 141.777344 C 73.308594 141.859375 73.207031 141.902344 73.105469 141.902344 " fill-opacity="1" fill-rule="nonzero"/><path fill="#6f7375" d="M 72.855469 137.789062 C 70.777344 137.789062 69.085938 139.609375 69.085938 141.847656 C 69.085938 144.085938 70.777344 145.902344 72.855469 145.902344 C 74.929688 145.902344 76.621094 144.085938 76.621094 141.847656 C 76.621094 139.609375 74.929688 137.789062 72.855469 137.789062 Z M 72.855469 146.644531 C 70.367188 146.644531 68.34375 144.492188 68.34375 141.847656 C 68.34375 139.199219 70.367188 137.042969 72.855469 137.042969 C 75.339844 137.042969 77.363281 139.199219 77.363281 141.847656 C 77.363281 144.492188 75.339844 146.644531 72.855469 146.644531 " fill-opacity="1" fill-rule="nonzero"/><path fill="#6f7375" d="M 68.253906 141.738281 L 65.503906 141.738281 C 65.300781 141.738281 65.132812 141.574219 65.132812 141.367188 C 65.132812 141.164062 65.300781 140.996094 65.503906 140.996094 L 68.253906 140.996094 C 68.457031 140.996094 68.625 141.164062 68.625 141.367188 C 68.625 141.574219 68.457031 141.738281 68.253906 141.738281 " fill-opacity="1" fill-rule="nonzero"/><path fill="#6f7375" d="M 56.710938 141.902344 C 56.683594 141.902344 56.652344 141.898438 56.621094 141.890625 L 50.441406 140.3125 C 50.242188 140.265625 50.121094 140.0625 50.171875 139.863281 C 50.222656 139.664062 50.421875 139.542969 50.625 139.59375 L 56.804688 141.171875 C 57.003906 141.222656 57.121094 141.425781 57.070312 141.621094 C 57.027344 141.789062 56.878906 141.902344 56.710938 141.902344 " fill-opacity="1" fill-rule="nonzero"/><path fill="#f09a88" d="M 54.074219 207.429688 C 54.074219 207.429688 60.964844 202.070312 62.09375 203.222656 C 63.226562 204.371094 59.980469 206.015625 59.980469 206.015625 C 59.980469 206.015625 63.441406 208.179688 67.492188 205.496094 C 69.304688 204.292969 71.023438 203.078125 70.167969 204.914062 C 69.3125 206.742188 67.980469 208.523438 65.449219 208.507812 C 65.449219 208.507812 71.183594 204.871094 71.101562 206.15625 C 71.011719 207.441406 69.25 210.546875 66.0625 210.859375 C 66.0625 210.859375 71.949219 207.613281 71.738281 208.910156 C 71.4375 210.800781 68.046875 213.050781 65.847656 212.851562 C 65.847656 212.851562 71.34375 211.472656 70.78125 212.765625 C 69.96875 214.640625 62.214844 217.75 54.980469 214.640625 L 54.074219 207.429688 " fill-opacity="1" fill-rule="nonzero"/><path fill="#3c465e" d="M 37.234375 222.605469 C 37.046875 222.605469 36.886719 222.46875 36.867188 222.277344 C 36.84375 222.074219 36.992188 221.890625 37.195312 221.867188 C 44.335938 221.070312 53.246094 217.515625 54.863281 216.851562 L 53.597656 206.09375 L 36.347656 206.09375 C 36.144531 206.09375 35.976562 205.925781 35.976562 205.722656 C 35.976562 205.515625 36.144531 205.351562 36.347656 205.351562 L 53.925781 205.351562 C 54.113281 205.351562 54.273438 205.492188 54.292969 205.679688 L 55.632812 217.042969 C 55.652344 217.207031 55.558594 217.363281 55.40625 217.429688 C 55.308594 217.472656 45.230469 221.71875 37.277344 222.605469 C 37.261719 222.605469 37.25 222.605469 37.234375 222.605469 " fill-opacity="1" fill-rule="nonzero"/><path fill="#f04151" d="M 51.148438 148.253906 C 51.148438 148.253906 55.402344 149.726562 57.0625 151.945312 C 59.136719 154.710938 60.828125 160.964844 56.332031 163.332031 C 53.710938 164.714844 44.941406 166.683594 44.289062 161.972656 C 43.828125 158.617188 51.148438 148.253906 51.148438 148.253906 " fill-opacity="1" fill-rule="nonzero"/><path fill="#f36073" d="M 74.113281 278.351562 L 90.855469 278.351562 C 91.351562 278.351562 91.757812 278.742188 91.769531 279.238281 L 93.261719 292.96875 C 93.425781 294.617188 94.242188 296.132812 95.527344 297.175781 C 98.902344 299.90625 105.324219 305.320312 105.0625 306.761719 C 104.707031 308.714844 102.398438 308.765625 102.398438 308.765625 L 81.554688 308.765625 C 79.074219 308.765625 77 306.886719 76.753906 304.417969 L 73.199219 279.355469 C 73.148438 278.816406 73.570312 278.351562 74.113281 278.351562 " fill-opacity="1" fill-rule="nonzero"/><path fill="#ffffff" d="M 91.878906 280.617188 L 79.492188 280.617188 C 79.289062 280.617188 79.121094 280.453125 79.121094 280.246094 C 79.121094 280.042969 79.289062 279.875 79.492188 279.875 L 91.878906 279.875 C 92.085938 279.875 92.25 280.042969 92.25 280.246094 C 92.25 280.453125 92.085938 280.617188 91.878906 280.617188 " fill-opacity="1" fill-rule="nonzero"/><path fill="#f36073" d="M 34.425781 268.816406 L 49.582031 276.746094 C 50.085938 277.011719 50.285156 277.636719 50.019531 278.144531 L 43.496094 290.613281 C 42.644531 292.242188 42.679688 294.191406 43.585938 295.792969 C 45.648438 299.421875 49.007812 305.914062 47.925781 307.949219 C 46.96875 309.75 43.550781 308.511719 36.941406 304.804688 C 33.398438 302.816406 26.402344 299.113281 22.382812 296.992188 C 20.707031 296.109375 20.0625 294.039062 20.941406 292.359375 L 33.027344 269.253906 C 33.292969 268.746094 33.917969 268.550781 34.425781 268.816406 " fill-opacity="1" fill-rule="nonzero"/><path fill="#ffffff" d="M 48.417969 278.648438 C 48.359375 278.648438 48.300781 278.636719 48.246094 278.609375 L 33.765625 271.03125 C 33.585938 270.9375 33.515625 270.710938 33.609375 270.53125 C 33.707031 270.347656 33.929688 270.28125 34.109375 270.375 L 48.589844 277.949219 C 48.769531 278.042969 48.839844 278.269531 48.746094 278.449219 C 48.679688 278.578125 48.550781 278.648438 48.417969 278.648438 " fill-opacity="1" fill-rule="nonzero"/><path fill="#3c465e" d="M 104.015625 182.746094 C 103.898438 182.746094 103.785156 182.695312 103.710938 182.59375 L 102.515625 180.945312 L 101.394531 181.785156 C 101.230469 181.910156 101 181.875 100.875 181.710938 C 100.753906 181.546875 100.785156 181.316406 100.949219 181.191406 L 102.371094 180.125 C 102.449219 180.066406 102.550781 180.039062 102.648438 180.054688 C 102.746094 180.070312 102.835938 180.121094 102.890625 180.203125 L 104.3125 182.160156 C 104.433594 182.324219 104.398438 182.554688 104.230469 182.675781 C 104.164062 182.722656 104.089844 182.746094 104.015625 182.746094 " fill-opacity="1" fill-rule="nonzero"/><path fill="#f57c8f" d="M 130.488281 188.488281 C 130.421875 188.488281 130.359375 188.488281 130.292969 188.484375 C 127.730469 188.378906 125.683594 186.144531 125.726562 183.496094 L 127.0625 103.609375 C 127.066406 103.300781 127.320312 103.070312 127.625 103.0625 C 127.933594 103.066406 128.179688 103.320312 128.175781 103.625 L 126.84375 183.515625 C 126.808594 185.5625 128.375 187.292969 130.335938 187.371094 C 132.207031 187.449219 133.898438 186.039062 135.339844 183.191406 C 135.476562 182.914062 135.8125 182.804688 136.082031 182.941406 C 136.359375 183.082031 136.46875 183.417969 136.332031 183.691406 C 134.722656 186.875 132.757812 188.488281 130.488281 188.488281 " fill-opacity="1" fill-rule="nonzero"/><path fill="#f8a2b0" d="M 71.539062 112.824219 C 70.734375 109.761719 70.320312 106.585938 70.332031 103.332031 C 70.425781 77.367188 98.179688 56.277344 131.8125 56.59375 C 165.003906 56.90625 191.785156 77.773438 191.785156 103.472656 C 191.785156 106.003906 191.527344 108.488281 191.023438 110.914062 C 191.023438 110.914062 172.980469 106.375 164.007812 118.945312 C 164.007812 118.945312 142.878906 107.847656 126.230469 118.945312 C 126.230469 118.945312 104.996094 106.082031 84.753906 118.945312 L 83.796875 117.773438 C 81.164062 114.542969 76.480469 112.652344 71.539062 112.824219 " fill-opacity="1" fill-rule="nonzero"/><path fill="#ffffff" d="M 164.007812 119.316406 C 163.972656 119.316406 163.941406 119.3125 163.90625 119.300781 C 163.707031 119.25 163.59375 119.042969 163.648438 118.84375 C 163.675781 118.746094 166.367188 108.796875 164.015625 96.660156 C 161.851562 85.480469 154.835938 70.09375 133.707031 60.28125 C 133.519531 60.195312 133.4375 59.976562 133.523438 59.789062 C 133.609375 59.601562 133.832031 59.523438 134.019531 59.609375 C 143.472656 64 150.957031 69.855469 156.253906 77.015625 C 160.496094 82.746094 163.355469 89.320312 164.75 96.550781 C 167.125 108.851562 164.390625 118.945312 164.363281 119.042969 C 164.316406 119.207031 164.167969 119.316406 164.007812 119.316406 " fill-opacity="1" fill-rule="nonzero"/><path fill="#ffffff" d="M 84.753906 119.316406 L 84.742188 119.316406 C 84.535156 119.308594 84.375 119.136719 84.382812 118.933594 C 84.386719 118.847656 84.714844 110.328125 88.269531 100.011719 C 91.558594 90.476562 98.355469 77.40625 112.0625 69.277344 C 112.242188 69.171875 112.46875 69.234375 112.574219 69.40625 C 112.675781 69.585938 112.621094 69.8125 112.441406 69.917969 C 98.933594 77.925781 92.226562 90.824219 88.980469 100.230469 C 85.453125 110.445312 85.128906 118.871094 85.125 118.957031 C 85.117188 119.15625 84.953125 119.316406 84.753906 119.316406 " fill-opacity="1" fill-rule="nonzero"/><path fill="#ffffff" d="M 126.230469 119.316406 C 126.203125 119.316406 126.175781 119.3125 126.144531 119.304688 C 125.945312 119.257812 125.824219 119.058594 125.867188 118.859375 C 130.625 98.332031 125.910156 71.894531 125.863281 71.628906 C 125.828125 71.425781 125.960938 71.234375 126.164062 71.199219 C 126.367188 71.160156 126.558594 71.296875 126.59375 71.496094 C 126.644531 71.761719 131.382812 98.347656 126.59375 119.027344 C 126.550781 119.199219 126.398438 119.316406 126.230469 119.316406 " fill-opacity="1" fill-rule="nonzero"/><path fill="#f8a2b0" d="M 127.980469 58.480469 C 127.46875 58.480469 127.054688 58.066406 127.054688 57.554688 L 127.054688 54.570312 C 127.054688 54.058594 127.46875 53.644531 127.980469 53.644531 C 128.492188 53.644531 128.910156 54.058594 128.910156 54.570312 L 128.910156 57.554688 C 128.910156 58.066406 128.492188 58.480469 127.980469 58.480469 " fill-opacity="1" fill-rule="nonzero"/><path fill="#f09a88" d="M 122.40625 175.464844 C 122.40625 175.464844 122.546875 168.96875 126.285156 168.019531 C 130.023438 167.074219 126.285156 173.050781 126.285156 173.050781 L 122.40625 175.464844 " fill-opacity="1" fill-rule="nonzero"/><path fill="#f09a88" d="M 127.617188 170.371094 C 127.617188 170.371094 130.851562 169.324219 132.035156 171.691406 C 133.21875 174.058594 130.476562 183.757812 126.601562 181.707031 C 126.601562 181.707031 126.222656 179.742188 127.945312 179.03125 C 127.945312 179.03125 123.9375 178.796875 125.175781 177.253906 C 126.414062 175.710938 127.0625 175.464844 127.0625 175.464844 C 127.0625 175.464844 124.117188 173.820312 125.175781 172.398438 C 126.234375 170.980469 127.617188 170.371094 127.617188 170.371094 " fill-opacity="1" fill-rule="nonzero"/><path fill="#3c465e" d="M 205.167969 146.375 C 205.167969 146.375 197.851562 148.699219 193.027344 146.933594 C 193.027344 146.933594 182.074219 149.90625 179.289062 155.109375 C 176.503906 160.308594 172.785156 172.757812 172.414062 183.90625 C 172.042969 195.054688 172.414062 216.421875 172.414062 216.421875 L 179.660156 216.421875 L 180.03125 211.964844 L 219.605469 211.035156 L 219.605469 216.421875 L 226.847656 216.421875 C 226.847656 216.421875 226.660156 180.75 224.246094 170.714844 C 221.832031 160.683594 221.273438 157.152344 218.488281 153.0625 C 215.699219 148.976562 205.167969 146.375 205.167969 146.375 " fill-opacity="1" fill-rule="nonzero"/><path fill="#acb4bc" d="M 180.03125 212.335938 C 179.828125 212.335938 179.660156 212.171875 179.660156 211.964844 L 179.660156 178.519531 C 179.664062 178.386719 180.066406 166.285156 182.84375 158.878906 C 182.914062 158.6875 183.128906 158.589844 183.320312 158.660156 C 183.511719 158.734375 183.609375 158.949219 183.535156 159.140625 C 180.804688 166.429688 180.40625 178.410156 180.402344 178.53125 L 180.402344 211.964844 C 180.402344 212.171875 180.238281 212.335938 180.03125 212.335938 " fill-opacity="1" fill-rule="nonzero"/><path fill="#acb4bc" d="M 219.601562 211.40625 C 219.398438 211.40625 219.230469 211.242188 219.230469 211.035156 L 219.230469 179.296875 C 219.230469 179.09375 219.398438 178.925781 219.601562 178.925781 C 219.808594 178.925781 219.972656 179.09375 219.972656 179.296875 L 219.972656 211.035156 C 219.972656 211.242188 219.808594 211.40625 219.601562 211.40625 " fill-opacity="1" fill-rule="nonzero"/><path fill="#f09a88" d="M 185.941406 132.945312 L 186.035156 133.488281 C 186.34375 135.320312 186.6875 137.09375 187.144531 138.714844 C 187.324219 139.3125 187.507812 139.910156 187.726562 140.449219 C 187.746094 140.503906 187.761719 140.550781 187.777344 140.597656 C 187.792969 140.613281 187.792969 140.625 187.796875 140.640625 C 189.367188 144.59375 192.121094 147.121094 197.847656 146.175781 C 201.828125 145.523438 205.878906 140.703125 207.527344 135.246094 C 210.667969 135.304688 212.582031 132.507812 212.214844 130.265625 C 211.851562 128.03125 210.445312 126.75 207.976562 127.15625 L 207.941406 127.164062 C 206.277344 120.089844 199.457031 116.453125 193.984375 117.347656 C 188.691406 118.21875 184.941406 122.71875 185.695312 130.980469 C 185.738281 131.445312 185.789062 131.929688 185.863281 132.417969 C 185.882812 132.597656 185.910156 132.765625 185.941406 132.945312 " fill-opacity="1" fill-rule="nonzero"/><path fill="#f46e6d" d="M 185.941406 132.945312 L 186.035156 133.488281 C 186.339844 135.320312 186.6875 137.09375 187.144531 138.714844 C 187.324219 139.3125 187.511719 139.910156 187.726562 140.453125 C 189.5 139.6875 190.59375 137.882812 190.300781 135.964844 C 189.964844 133.859375 188.035156 132.371094 185.863281 132.417969 C 185.882812 132.597656 185.910156 132.765625 185.941406 132.945312 " fill-opacity="1" fill-rule="nonzero"/><path fill="#f46e6d" d="M 206.011719 134.398438 C 206.375 136.691406 204.71875 138.847656 202.3125 139.214844 C 199.90625 139.578125 197.660156 138.015625 197.296875 135.722656 C 196.929688 133.429688 198.585938 131.273438 200.992188 130.910156 C 203.398438 130.542969 205.644531 132.105469 206.011719 134.398438 " fill-opacity="1" fill-rule="nonzero"/><path fill="#f35f58" d="M 206.722656 130.878906 C 206.667969 130.878906 206.609375 130.867188 206.558594 130.839844 C 206.371094 130.75 206.300781 130.523438 206.390625 130.34375 C 207.292969 128.550781 209.398438 128.050781 209.484375 128.03125 C 209.6875 127.988281 209.882812 128.113281 209.929688 128.308594 C 209.976562 128.511719 209.851562 128.710938 209.652344 128.753906 C 209.632812 128.761719 207.796875 129.203125 207.054688 130.675781 C 206.992188 130.804688 206.859375 130.878906 206.722656 130.878906 " fill-opacity="1" fill-rule="nonzero"/><path fill="#984953" d="M 200.804688 127.007812 C 198.78125 128.898438 194.503906 131.949219 190.410156 128.742188 C 189.300781 127.875 187.863281 127.5625 186.488281 127.875 C 183.835938 128.476562 179.824219 128.476562 179.605469 123.078125 C 179.320312 116.070312 183.585938 110.953125 188.566406 111.5 C 190.101562 111.667969 191.628906 111.125 192.730469 110.039062 C 195.320312 107.472656 200.296875 104.335938 205.046875 111.367188 C 205.992188 112.765625 207.460938 113.734375 209.117188 114.074219 C 212.046875 114.675781 216.335938 116.355469 216.441406 121.007812 C 216.597656 128.085938 211.773438 128.835938 211.773438 128.835938 C 211.773438 128.835938 209.855469 126.511719 207.28125 127.367188 C 206.066406 128.367188 204.285156 128.246094 203.21875 127.089844 C 202.578125 126.390625 201.496094 126.359375 200.804688 127.007812 " fill-opacity="1" fill-rule="nonzero"/><path fill="#3c465e" d="M 188.277344 134.351562 C 188.242188 134.351562 188.203125 134.347656 188.167969 134.34375 C 187.140625 134.253906 186.617188 132.960938 186.5625 132.816406 C 186.488281 132.621094 186.585938 132.40625 186.777344 132.335938 C 186.96875 132.261719 187.183594 132.355469 187.253906 132.550781 C 187.355469 132.808594 187.753906 133.5625 188.234375 133.605469 C 188.617188 133.632812 189.117188 133.195312 189.621094 132.351562 C 189.726562 132.175781 189.953125 132.117188 190.128906 132.222656 C 190.304688 132.328125 190.363281 132.554688 190.257812 132.730469 C 189.613281 133.804688 188.949219 134.351562 188.277344 134.351562 " fill-opacity="1" fill-rule="nonzero"/><path fill="#3c465e" d="M 197.910156 133.457031 C 196.582031 133.457031 195.523438 132.070312 195.476562 132.007812 C 195.355469 131.84375 195.386719 131.613281 195.550781 131.488281 C 195.714844 131.367188 195.949219 131.398438 196.074219 131.5625 C 196.082031 131.574219 197.042969 132.828125 198.046875 132.707031 C 198.667969 132.632812 199.222656 132.027344 199.699219 130.914062 C 199.777344 130.726562 199.996094 130.640625 200.1875 130.722656 C 200.375 130.800781 200.460938 131.019531 200.382812 131.207031 C 199.792969 132.582031 199.035156 133.335938 198.132812 133.445312 C 198.058594 133.453125 197.980469 133.457031 197.910156 133.457031 " fill-opacity="1" fill-rule="nonzero"/><path fill="#f35f58" d="M 192.765625 132.09375 L 195.617188 138.265625 L 192.105469 138.859375 L 192.765625 132.09375 " fill-opacity="1" fill-rule="nonzero"/><path fill="#3c465e" d="M 193.035156 142.65625 C 192.859375 142.65625 192.703125 142.53125 192.671875 142.351562 C 192.632812 142.152344 192.769531 141.957031 192.972656 141.921875 L 196.128906 141.367188 C 196.328125 141.328125 196.523438 141.464844 196.558594 141.664062 C 196.59375 141.867188 196.460938 142.058594 196.257812 142.097656 L 193.097656 142.652344 C 193.078125 142.65625 193.054688 142.65625 193.035156 142.65625 " fill-opacity="1" fill-rule="nonzero"/><path fill="#3c465e" d="M 197.257812 257.867188 C 197.097656 257.867188 196.949219 257.765625 196.902344 257.605469 L 196.496094 256.289062 C 195.800781 254.027344 195.554688 251.6875 195.765625 249.332031 L 198.054688 224.007812 C 198.070312 223.804688 198.253906 223.65625 198.457031 223.671875 C 198.660156 223.691406 198.8125 223.871094 198.792969 224.074219 L 196.507812 249.398438 C 196.300781 251.65625 196.535156 253.902344 197.203125 256.070312 L 197.613281 257.386719 C 197.671875 257.582031 197.5625 257.792969 197.367188 257.851562 C 197.328125 257.863281 197.292969 257.867188 197.257812 257.867188 " fill-opacity="1" fill-rule="nonzero"/><path fill="#202d56" d="M 186.636719 297.117188 C 186.546875 297.117188 186.457031 297.085938 186.386719 297.019531 C 186.363281 297 185.542969 296.328125 183.328125 296.492188 C 183.121094 296.5 182.945312 296.355469 182.929688 296.148438 C 182.914062 295.945312 183.066406 295.769531 183.273438 295.753906 C 185.839844 295.566406 186.789062 296.378906 186.890625 296.472656 C 187.039062 296.613281 187.046875 296.847656 186.90625 296.996094 C 186.835938 297.074219 186.734375 297.117188 186.636719 297.117188 " fill-opacity="1" fill-rule="nonzero"/><path fill="#202d56" d="M 184.695312 299.175781 C 184.632812 299.175781 184.566406 299.160156 184.507812 299.125 C 184.492188 299.113281 183.535156 298.5625 181.558594 298.460938 C 181.355469 298.453125 181.195312 298.28125 181.203125 298.074219 C 181.214844 297.867188 181.390625 297.710938 181.59375 297.722656 C 183.785156 297.832031 184.847656 298.460938 184.890625 298.488281 C 185.066406 298.59375 185.121094 298.824219 185.015625 298.996094 C 184.945312 299.113281 184.824219 299.175781 184.695312 299.175781 " fill-opacity="1" fill-rule="nonzero"/><path fill="#ffffff" d="M 184.566406 305.933594 C 184.398438 305.933594 184.246094 305.820312 184.207031 305.648438 C 184.15625 305.449219 184.28125 305.246094 184.480469 305.203125 C 188.308594 304.304688 190.113281 302.722656 191.769531 301.042969 C 193.707031 299.082031 198.503906 298.304688 198.707031 298.273438 C 198.910156 298.242188 199.101562 298.378906 199.132812 298.582031 C 199.164062 298.78125 199.027344 298.972656 198.824219 299.007812 C 198.773438 299.011719 194.0625 299.777344 192.300781 301.566406 C 190.210938 303.679688 188.292969 305.074219 184.652344 305.925781 C 184.625 305.929688 184.59375 305.933594 184.566406 305.933594 " fill-opacity="1" fill-rule="nonzero"/><path fill="#202d56" d="M 190.648438 289.992188 C 190.59375 289.992188 190.539062 289.996094 190.484375 290.003906 C 189.253906 290.179688 187.644531 292.183594 186.707031 293.5625 C 188.757812 292.859375 191.308594 291.703125 191.527344 290.785156 C 191.554688 290.664062 191.554688 290.496094 191.304688 290.265625 C 191.109375 290.082031 190.894531 289.992188 190.648438 289.992188 Z M 185.835938 294.601562 C 185.726562 294.601562 185.617188 294.550781 185.546875 294.457031 C 185.449219 294.335938 185.441406 294.171875 185.519531 294.039062 C 185.789062 293.585938 188.21875 289.578125 190.378906 289.269531 C 190.917969 289.191406 191.414062 289.347656 191.8125 289.722656 C 192.304688 290.183594 192.320312 290.644531 192.246094 290.953125 C 191.820312 292.761719 186.921875 294.296875 185.945312 294.585938 C 185.910156 294.597656 185.875 294.601562 185.835938 294.601562 " fill-opacity="1" fill-rule="nonzero"/><path fill="#202d56" d="M 184.261719 288.578125 C 184.164062 288.578125 184.03125 288.609375 183.855469 288.710938 C 183.535156 288.894531 183.371094 289.132812 183.332031 289.453125 C 183.203125 290.550781 184.527344 292.277344 185.480469 293.324219 C 185.464844 291.46875 185.207031 289.082031 184.46875 288.636719 C 184.433594 288.617188 184.371094 288.578125 184.261719 288.578125 Z M 185.839844 294.601562 C 185.746094 294.601562 185.652344 294.566406 185.582031 294.5 C 185.253906 294.179688 182.359375 291.34375 182.597656 289.367188 C 182.660156 288.8125 182.96875 288.367188 183.484375 288.066406 C 184.105469 287.707031 184.574219 287.832031 184.851562 288 C 186.335938 288.894531 186.242188 293.359375 186.210938 294.242188 C 186.203125 294.390625 186.113281 294.519531 185.976562 294.574219 C 185.933594 294.59375 185.886719 294.601562 185.839844 294.601562 " fill-opacity="1" fill-rule="nonzero"/><path fill="#202d56" d="M 208.847656 296.976562 C 208.761719 296.976562 208.667969 296.945312 208.597656 296.878906 C 208.574219 296.859375 207.753906 296.191406 205.539062 296.351562 C 205.332031 296.363281 205.15625 296.214844 205.144531 296.011719 C 205.128906 295.804688 205.28125 295.628906 205.488281 295.613281 C 208.050781 295.425781 209.003906 296.238281 209.101562 296.335938 C 209.25 296.472656 209.261719 296.710938 209.121094 296.859375 C 209.046875 296.9375 208.949219 296.976562 208.847656 296.976562 " fill-opacity="1" fill-rule="nonzero"/><path fill="#202d56" d="M 206.910156 299.035156 C 206.847656 299.035156 206.78125 299.019531 206.722656 298.980469 C 206.699219 298.96875 205.738281 298.421875 203.773438 298.324219 C 203.566406 298.3125 203.410156 298.140625 203.417969 297.933594 C 203.429688 297.726562 203.613281 297.570312 203.808594 297.582031 C 206 297.691406 207.0625 298.320312 207.105469 298.347656 C 207.28125 298.453125 207.335938 298.683594 207.230469 298.859375 C 207.160156 298.972656 207.039062 299.035156 206.910156 299.035156 " fill-opacity="1" fill-rule="nonzero"/><path fill="#ffffff" d="M 206.777344 305.792969 C 206.609375 305.792969 206.457031 305.679688 206.417969 305.507812 C 206.371094 305.308594 206.496094 305.109375 206.695312 305.0625 C 210.519531 304.167969 212.328125 302.585938 213.984375 300.902344 C 215.921875 298.941406 220.71875 298.164062 220.921875 298.132812 C 221.121094 298.101562 221.3125 298.238281 221.347656 298.441406 C 221.378906 298.644531 221.242188 298.835938 221.035156 298.867188 C 220.988281 298.875 216.277344 299.636719 214.511719 301.425781 C 212.425781 303.542969 210.507812 304.933594 206.863281 305.785156 C 206.835938 305.792969 206.804688 305.792969 206.777344 305.792969 " fill-opacity="1" fill-rule="nonzero"/><path fill="#202d56" d="M 212.863281 289.851562 C 212.8125 289.851562 212.757812 289.855469 212.699219 289.863281 C 211.46875 290.039062 209.859375 292.042969 208.921875 293.421875 C 210.972656 292.71875 213.523438 291.566406 213.738281 290.644531 C 213.769531 290.523438 213.769531 290.355469 213.519531 290.125 C 213.324219 289.941406 213.113281 289.851562 212.863281 289.851562 Z M 208.054688 294.460938 C 207.941406 294.460938 207.832031 294.410156 207.761719 294.316406 C 207.667969 294.195312 207.65625 294.03125 207.734375 293.902344 C 208.003906 293.445312 210.4375 289.4375 212.59375 289.128906 C 213.132812 289.050781 213.625 289.210938 214.027344 289.582031 C 214.519531 290.042969 214.535156 290.503906 214.464844 290.8125 C 214.039062 292.621094 209.136719 294.15625 208.160156 294.445312 C 208.125 294.457031 208.089844 294.460938 208.054688 294.460938 " fill-opacity="1" fill-rule="nonzero"/><path fill="#202d56" d="M 206.472656 288.4375 C 206.378906 288.4375 206.246094 288.46875 206.066406 288.570312 C 205.753906 288.753906 205.585938 288.992188 205.546875 289.316406 C 205.414062 290.410156 206.738281 292.136719 207.695312 293.183594 C 207.679688 291.328125 207.421875 288.941406 206.683594 288.496094 C 206.648438 288.476562 206.585938 288.4375 206.472656 288.4375 Z M 208.054688 294.460938 C 207.960938 294.460938 207.867188 294.425781 207.796875 294.355469 C 207.464844 294.039062 204.570312 291.207031 204.808594 289.226562 C 204.875 288.675781 205.183594 288.226562 205.695312 287.929688 C 206.320312 287.566406 206.785156 287.691406 207.066406 287.863281 C 208.550781 288.757812 208.457031 293.21875 208.425781 294.101562 C 208.417969 294.25 208.328125 294.378906 208.191406 294.433594 C 208.148438 294.453125 208.097656 294.460938 208.054688 294.460938 " fill-opacity="1" fill-rule="nonzero"/><path fill="#b0bce5" d="M 233.890625 244.851562 C 233.773438 244.851562 233.65625 244.816406 233.554688 244.738281 C 233.3125 244.554688 233.261719 244.203125 233.445312 243.957031 L 238.769531 236.910156 C 238.957031 236.664062 239.304688 236.613281 239.550781 236.800781 C 239.796875 236.984375 239.847656 237.335938 239.660156 237.582031 L 234.335938 244.632812 C 234.226562 244.777344 234.058594 244.851562 233.890625 244.851562 " fill-opacity="1" fill-rule="nonzero"/><path fill="#b0bce5" d="M 144.726562 45.933594 C 144.609375 45.933594 144.488281 45.898438 144.390625 45.824219 C 144.144531 45.636719 144.097656 45.289062 144.28125 45.042969 L 147.058594 41.363281 C 147.242188 41.117188 147.59375 41.070312 147.839844 41.253906 C 148.085938 41.441406 148.132812 41.789062 147.949219 42.035156 L 145.167969 45.714844 C 145.058594 45.859375 144.894531 45.933594 144.726562 45.933594 " fill-opacity="1" fill-rule="nonzero"/><path fill="#b0bce5" d="M 228.414062 122.3125 C 228.292969 122.3125 228.179688 122.273438 228.078125 122.199219 C 227.832031 122.015625 227.785156 121.664062 227.96875 121.417969 L 236.109375 110.640625 C 236.292969 110.394531 236.644531 110.34375 236.890625 110.527344 C 237.132812 110.714844 237.183594 111.066406 237 111.308594 L 228.855469 122.089844 C 228.746094 122.234375 228.582031 122.3125 228.414062 122.3125 " fill-opacity="1" fill-rule="nonzero"/><path fill="#b0bce5" d="M 62.296875 65.011719 C 62.183594 65.011719 62.0625 64.972656 61.964844 64.898438 C 61.71875 64.710938 61.671875 64.363281 61.855469 64.117188 L 67.179688 57.066406 C 67.363281 56.824219 67.714844 56.773438 67.960938 56.957031 C 68.207031 57.144531 68.253906 57.492188 68.066406 57.738281 L 62.742188 64.789062 C 62.632812 64.933594 62.46875 65.011719 62.296875 65.011719 " fill-opacity="1" fill-rule="nonzero"/><path fill="#b0bce5" d="M 96.003906 35.964844 C 95.886719 35.964844 95.769531 35.929688 95.667969 35.851562 C 95.421875 35.667969 95.375 35.320312 95.5625 35.074219 L 103.703125 24.292969 C 103.886719 24.046875 104.238281 23.996094 104.480469 24.183594 C 104.726562 24.371094 104.777344 24.71875 104.589844 24.964844 L 96.449219 35.746094 C 96.339844 35.890625 96.171875 35.964844 96.003906 35.964844 " fill-opacity="1" fill-rule="nonzero"/><path fill="#b0bce5" d="M 220.761719 64.714844 C 220.648438 64.714844 220.53125 64.679688 220.429688 64.601562 C 220.183594 64.417969 220.136719 64.070312 220.320312 63.824219 L 228.460938 53.042969 C 228.648438 52.796875 228.996094 52.75 229.242188 52.933594 C 229.488281 53.117188 229.535156 53.46875 229.351562 53.714844 L 221.207031 64.496094 C 221.101562 64.640625 220.933594 64.714844 220.761719 64.714844 " fill-opacity="1" fill-rule="nonzero"/><path fill="#b0bce5" d="M 182.839844 75.289062 C 182.722656 75.289062 182.605469 75.25 182.503906 75.175781 C 182.257812 74.988281 182.207031 74.640625 182.394531 74.394531 L 187.980469 67 C 188.164062 66.753906 188.511719 66.703125 188.761719 66.890625 C 189.003906 67.074219 189.054688 67.425781 188.871094 67.671875 L 183.285156 75.066406 C 183.171875 75.210938 183.007812 75.289062 182.839844 75.289062 " fill-opacity="1" fill-rule="nonzero"/><path fill="#b0bce5" d="M 0.773438 187.515625 C 0.65625 187.515625 0.535156 187.480469 0.4375 187.402344 C 0.191406 187.21875 0.140625 186.867188 0.328125 186.625 L 5.652344 179.574219 C 5.835938 179.328125 6.1875 179.277344 6.433594 179.464844 C 6.675781 179.648438 6.726562 180 6.539062 180.242188 L 1.214844 187.292969 C 1.105469 187.441406 0.941406 187.515625 0.773438 187.515625 " fill-opacity="1" fill-rule="nonzero"/><path fill="#b0bce5" d="M 174.644531 39.492188 C 174.527344 39.492188 174.410156 39.453125 174.308594 39.378906 C 174.0625 39.195312 174.015625 38.84375 174.199219 38.601562 L 179.523438 31.546875 C 179.710938 31.300781 180.058594 31.253906 180.304688 31.441406 C 180.550781 31.625 180.597656 31.976562 180.414062 32.222656 L 175.089844 39.269531 C 174.980469 39.417969 174.8125 39.492188 174.644531 39.492188 " fill-opacity="1" fill-rule="nonzero"/><path fill="#b0bce5" d="M 12.742188 116.507812 C 12.625 116.507812 12.503906 116.472656 12.40625 116.394531 C 12.160156 116.210938 12.113281 115.859375 12.296875 115.617188 L 20.4375 104.835938 C 20.625 104.589844 20.972656 104.539062 21.21875 104.726562 C 21.464844 104.910156 21.511719 105.261719 21.328125 105.503906 L 13.183594 116.285156 C 13.074219 116.429688 12.910156 116.507812 12.742188 116.507812 " fill-opacity="1" fill-rule="nonzero"/><path fill="#b0bce5" d="M 1.214844 236.214844 C 1.097656 236.214844 0.980469 236.175781 0.878906 236.101562 C 0.636719 235.917969 0.585938 235.566406 0.773438 235.320312 L 8.914062 224.542969 C 9.097656 224.296875 9.449219 224.246094 9.691406 224.433594 C 9.9375 224.617188 9.988281 224.96875 9.800781 225.210938 L 1.660156 235.992188 C 1.550781 236.140625 1.382812 236.214844 1.214844 236.214844 " fill-opacity="1" fill-rule="nonzero"/><path fill="#b0bce5" d="M 234.222656 163.621094 C 234.105469 163.621094 233.988281 163.582031 233.886719 163.507812 C 233.644531 163.324219 233.59375 162.972656 233.777344 162.726562 L 238.441406 156.554688 C 238.625 156.3125 238.972656 156.261719 239.21875 156.449219 C 239.464844 156.632812 239.511719 156.984375 239.328125 157.226562 L 234.667969 163.398438 C 234.558594 163.542969 234.390625 163.621094 234.222656 163.621094 " fill-opacity="1" fill-rule="nonzero"/></svg>